<?xml version="1.0" encoding="UTF-8" standalone="no"?>
<!DOCTYPE svg PUBLIC "-//W3C//DTD SVG 1.1//EN"
 "http://www.w3.org/Graphics/SVG/1.1/DTD/svg11.dtd">
<!-- Generated by graphviz version 2.40.1 (20161225.0304)
 -->
<!-- Title: twoDegreesRelationshipsDiagram Pages: 1 -->
<svg width="840pt" height="617pt"
 viewBox="0.00 0.00 840.00 617.20" xmlns="http://www.w3.org/2000/svg" xmlns:xlink="http://www.w3.org/1999/xlink">
<g id="graph0" class="graph" transform="scale(1 1) rotate(0) translate(4 613.2)">
<title>twoDegreesRelationshipsDiagram</title>
<polygon fill="#ffffff" stroke="transparent" points="-4,4 -4,-613.2 836,-613.2 836,4 -4,4"/>
<text text-anchor="middle" x="72.4936" y="-7.3" font-family="Helvetica,sans-Serif" font-size="11.00" fill="#000000">Generated by SchemaSpy</text>
<!-- am_projecttemplates -->
<g id="node1" class="node">
<title>am_projecttemplates</title>
<g id="a_node1"><a xlink:href="../../tables/am_projecttemplates.html" xlink:title="am_projecttemplates" target="_top">
<polygon fill="#ffffff" stroke="transparent" points="128,-252.2 128,-401.2 296,-401.2 296,-252.2 128,-252.2"/>
<polygon fill="#f5f5f5" stroke="transparent" points="128,-377.7 128,-400.7 296,-400.7 296,-377.7 128,-377.7"/>
<polygon fill="none" stroke="#000000" points="128,-377.7 128,-400.7 296,-400.7 296,-377.7 128,-377.7"/>
<text text-anchor="start" x="133" y="-386.3" font-family="Helvetica,sans-Serif" font-weight="bold" font-size="11.00" fill="#000000">am_projecttemplates</text>
<text text-anchor="start" x="261.0437" y="-385.8" font-family="Helvetica,sans-Serif" font-size="11.00" fill="#000000">[table]</text>
<polygon fill="none" stroke="#000000" points="128,-355.7 128,-377.7 296,-377.7 296,-355.7 128,-355.7"/>
<image xlink:href="../../images/primaryKeys.png" width="11px" height="12px" preserveAspectRatio="xMinYMin meet" x="133" y="-372.7"/>
<text text-anchor="start" x="148" y="-362.8" font-family="Helvetica,sans-Serif" font-size="11.00" fill="#000000">id</text>
<polygon fill="#c0c0c0" stroke="transparent" points="128,-333.7 128,-355.7 296,-355.7 296,-333.7 128,-333.7"/>
<polygon fill="none" stroke="#000000" points="128,-333.7 128,-355.7 296,-355.7 296,-333.7 128,-333.7"/>
<image xlink:href="../../images/foreignKeys.png" width="11px" height="12px" preserveAspectRatio="xMinYMin meet" x="133" y="-350.7"/>
<text text-anchor="start" x="148" y="-340.8" font-family="Helvetica,sans-Serif" font-size="11.00" fill="#000000">modified_user_id</text>
<polygon fill="#c0c0c0" stroke="transparent" points="128,-311.7 128,-333.7 296,-333.7 296,-311.7 128,-311.7"/>
<polygon fill="none" stroke="#000000" points="128,-311.7 128,-333.7 296,-333.7 296,-311.7 128,-311.7"/>
<image xlink:href="../../images/foreignKeys.png" width="11px" height="12px" preserveAspectRatio="xMinYMin meet" x="133" y="-328.7"/>
<text text-anchor="start" x="148" y="-318.8" font-family="Helvetica,sans-Serif" font-size="11.00" fill="#000000">created_by</text>
<polygon fill="#c0c0c0" stroke="transparent" points="128,-289.7 128,-311.7 296,-311.7 296,-289.7 128,-289.7"/>
<polygon fill="none" stroke="#000000" points="128,-289.7 128,-311.7 296,-311.7 296,-289.7 128,-289.7"/>
<image xlink:href="../../images/foreignKeys.png" width="11px" height="12px" preserveAspectRatio="xMinYMin meet" x="133" y="-306.7"/>
<text text-anchor="start" x="148" y="-296.8" font-family="Helvetica,sans-Serif" font-size="11.00" fill="#000000">assigned_user_id</text>
<polygon fill="none" stroke="#000000" points="128,-270.7 128,-289.7 296,-289.7 296,-270.7 128,-270.7"/>
<text text-anchor="start" x="131" y="-276.8" font-family="Helvetica,sans-Serif" font-size="11.00" fill="#000000">...</text>
<polygon fill="#ffffff" stroke="transparent" points="128,-251.7 128,-270.7 206,-270.7 206,-251.7 128,-251.7"/>
<polygon fill="none" stroke="#000000" points="128,-251.7 128,-270.7 206,-270.7 206,-251.7 128,-251.7"/>
<text text-anchor="start" x="131" y="-257.8" font-family="Helvetica,sans-Serif" font-size="11.00" fill="#000000">&lt; 3</text>
<polygon fill="#ffffff" stroke="transparent" points="206,-251.7 206,-270.7 246,-270.7 246,-251.7 206,-251.7"/>
<polygon fill="none" stroke="#000000" points="206,-251.7 206,-270.7 246,-270.7 246,-251.7 206,-251.7"/>
<text text-anchor="start" x="236.8862" y="-257.8" font-family="Helvetica,sans-Serif" font-size="11.00" fill="#000000"> &#160;</text>
<polygon fill="#ffffff" stroke="transparent" points="246,-251.7 246,-270.7 296,-270.7 296,-251.7 246,-251.7"/>
<polygon fill="none" stroke="#000000" points="246,-251.7 246,-270.7 296,-270.7 296,-251.7 246,-251.7"/>
<text text-anchor="start" x="277.4053" y="-257.8" font-family="Helvetica,sans-Serif" font-size="11.00" fill="#000000">5 &gt;</text>
</a>
</g>
</g>
<!-- users -->
<g id="node2" class="node">
<title>users</title>
<g id="a_node2"><a xlink:href="../../tables/users.html" xlink:title="users" target="_top">
<polygon fill="#ffffff" stroke="transparent" points="8,-273.2 8,-334.2 79,-334.2 79,-273.2 8,-273.2"/>
<polygon fill="#f5f5f5" stroke="transparent" points="8.5,-310.7 8.5,-333.7 79.5,-333.7 79.5,-310.7 8.5,-310.7"/>
<polygon fill="none" stroke="#000000" points="8.5,-310.7 8.5,-333.7 79.5,-333.7 79.5,-310.7 8.5,-310.7"/>
<text text-anchor="start" x="13.5" y="-319.3" font-family="Helvetica,sans-Serif" font-weight="bold" font-size="11.00" fill="#000000">users</text>
<text text-anchor="start" x="45.0219" y="-318.8" font-family="Helvetica,sans-Serif" font-size="11.00" fill="#000000">[table]</text>
<polygon fill="none" stroke="#000000" points="8.5,-291.7 8.5,-310.7 79.5,-310.7 79.5,-291.7 8.5,-291.7"/>
<text text-anchor="start" x="11.5" y="-297.8" font-family="Helvetica,sans-Serif" font-size="11.00" fill="#000000">...</text>
<polygon fill="#ffffff" stroke="transparent" points="8.5,-272.7 8.5,-291.7 31.5,-291.7 31.5,-272.7 8.5,-272.7"/>
<polygon fill="none" stroke="#000000" points="8.5,-272.7 8.5,-291.7 31.5,-291.7 31.5,-272.7 8.5,-272.7"/>
<text text-anchor="start" x="11.5" y="-278.8" font-family="Helvetica,sans-Serif" font-size="11.00" fill="#000000">&lt; 2</text>
<polygon fill="#ffffff" stroke="transparent" points="31.5,-272.7 31.5,-291.7 44.5,-291.7 44.5,-272.7 31.5,-272.7"/>
<polygon fill="none" stroke="#000000" points="31.5,-272.7 31.5,-291.7 44.5,-291.7 44.5,-272.7 31.5,-272.7"/>
<text text-anchor="start" x="35.3862" y="-278.8" font-family="Helvetica,sans-Serif" font-size="11.00" fill="#000000"> &#160;</text>
<polygon fill="#ffffff" stroke="transparent" points="44.5,-272.7 44.5,-291.7 79.5,-291.7 79.5,-272.7 44.5,-272.7"/>
<polygon fill="none" stroke="#000000" points="44.5,-272.7 44.5,-291.7 79.5,-291.7 79.5,-272.7 44.5,-272.7"/>
<text text-anchor="start" x="48.6755" y="-278.8" font-family="Helvetica,sans-Serif" font-size="11.00" fill="#000000">228 &gt;</text>
</a>
</g>
</g>
<!-- am_projecttemplates&#45;&gt;users -->
<g id="edge1" class="edge">
<title>am_projecttemplates:w&#45;&gt;users:e</title>
<path fill="none" stroke="#000000" d="M113.2829,-300.7C102.2886,-300.7 95.1615,-300.7 79.5,-300.7"/>
<polygon fill="#000000" stroke="#000000" points="120,-300.7001 128,-304.3 124,-300.7 128,-300.7 128,-300.7 128,-300.7 124,-300.7 128,-297.1 120,-300.7001 120,-300.7001"/>
<ellipse fill="none" stroke="#000000" cx="116.8" cy="-300.7001" rx="3.2" ry="3.2"/>
</g>
<!-- am_projecttemplates&#45;&gt;users -->
<g id="edge2" class="edge">
<title>am_projecttemplates:w&#45;&gt;users:e</title>
<path fill="none" stroke="#000000" d="M113.7648,-319.2625C102.3432,-313.075 97.2522,-300.7 79.5,-300.7"/>
<polygon fill="#000000" stroke="#000000" points="120.2235,-320.8221 127.1549,-326.1994 124.1118,-321.7611 128,-322.7 128,-322.7 128,-322.7 124.1118,-321.7611 128.8451,-319.2006 120.2235,-320.8221 120.2235,-320.8221"/>
<ellipse fill="none" stroke="#000000" cx="117.1129" cy="-320.0709" rx="3.2" ry="3.2"/>
</g>
<!-- am_projecttemplates&#45;&gt;users -->
<g id="edge3" class="edge">
<title>am_projecttemplates:w&#45;&gt;users:e</title>
<path fill="none" stroke="#000000" d="M114.0348,-339.6526C101.2645,-328.0953 102.4651,-300.7 79.5,-300.7"/>
<polygon fill="#000000" stroke="#000000" points="120.4763,-341.9807 126.7763,-348.0857 124.2382,-343.3404 128,-344.7 128,-344.7 128,-344.7 124.2382,-343.3404 129.2237,-341.3143 120.4763,-341.9807 120.4763,-341.9807"/>
<ellipse fill="none" stroke="#000000" cx="117.4668" cy="-340.893" rx="3.2" ry="3.2"/>
</g>
<!-- am_projecttemplates_audit -->
<g id="node3" class="node">
<title>am_projecttemplates_audit</title>
<g id="a_node3"><a xlink:href="../../tables/am_projecttemplates_audit.html" xlink:title="am_projecttemplates_audit" target="_top">
<polygon fill="#ffffff" stroke="transparent" points="484.5,-462.2 484.5,-523.2 684.5,-523.2 684.5,-462.2 484.5,-462.2"/>
<polygon fill="#f5f5f5" stroke="transparent" points="484.5,-499.7 484.5,-522.7 684.5,-522.7 684.5,-499.7 484.5,-499.7"/>
<polygon fill="none" stroke="#000000" points="484.5,-499.7 484.5,-522.7 684.5,-522.7 684.5,-499.7 484.5,-499.7"/>
<text text-anchor="start" x="489.5" y="-508.3" font-family="Helvetica,sans-Serif" font-weight="bold" font-size="11.00" fill="#000000">am_projecttemplates_audit</text>
<text text-anchor="start" x="650.0219" y="-507.8" font-family="Helvetica,sans-Serif" font-size="11.00" fill="#000000">[table]</text>
<polygon fill="none" stroke="#000000" points="484.5,-480.7 484.5,-499.7 684.5,-499.7 684.5,-480.7 484.5,-480.7"/>
<text text-anchor="start" x="487.5" y="-486.8" font-family="Helvetica,sans-Serif" font-size="11.00" fill="#000000">...</text>
<polygon fill="#ffffff" stroke="transparent" points="484.5,-461.7 484.5,-480.7 582.5,-480.7 582.5,-461.7 484.5,-461.7"/>
<polygon fill="none" stroke="#000000" points="484.5,-461.7 484.5,-480.7 582.5,-480.7 582.5,-461.7 484.5,-461.7"/>
<text text-anchor="start" x="487.5" y="-467.8" font-family="Helvetica,sans-Serif" font-size="11.00" fill="#000000">&lt; 1</text>
<polygon fill="#ffffff" stroke="transparent" points="582.5,-461.7 582.5,-480.7 633.5,-480.7 633.5,-461.7 582.5,-461.7"/>
<polygon fill="none" stroke="#000000" points="582.5,-461.7 582.5,-480.7 633.5,-480.7 633.5,-461.7 582.5,-461.7"/>
<text text-anchor="start" x="624.3862" y="-467.8" font-family="Helvetica,sans-Serif" font-size="11.00" fill="#000000"> &#160;</text>
<polygon fill="#ffffff" stroke="transparent" points="633.5,-461.7 633.5,-480.7 684.5,-480.7 684.5,-461.7 633.5,-461.7"/>
<polygon fill="none" stroke="#000000" points="633.5,-461.7 633.5,-480.7 684.5,-480.7 684.5,-461.7 633.5,-461.7"/>
<text text-anchor="start" x="675.3862" y="-467.8" font-family="Helvetica,sans-Serif" font-size="11.00" fill="#000000"> &#160;</text>
</a>
</g>
</g>
<!-- am_projecttemplates_audit&#45;&gt;am_projecttemplates -->
<g id="edge4" class="edge">
<title>am_projecttemplates_audit:w&#45;&gt;am_projecttemplates:e</title>
<path fill="none" stroke="#000000" d="M470.0654,-489.7598C412.5915,-490.167 385.4646,-491.4359 337,-451.7 304.5652,-425.1069 337.9429,-366.7 296,-366.7"/>
<polygon fill="#000000" stroke="#000000" points="476.5001,-489.7332 484.5149,-493.3 480.5,-489.7166 484.5,-489.7 484.5,-489.7 484.5,-489.7 480.5,-489.7166 484.4851,-486.1 476.5001,-489.7332 476.5001,-489.7332"/>
<ellipse fill="none" stroke="#000000" cx="473.3001" cy="-489.7464" rx="3.2" ry="3.2"/>
</g>
<!-- am_projecttemplates_contacts_1_c -->
<g id="node4" class="node">
<title>am_projecttemplates_contacts_1_c</title>
<g id="a_node4"><a xlink:href="../../tables/am_projecttemplates_contacts_1_c.html" xlink:title="am_projecttemplates_contacts_1_c" target="_top">
<polygon fill="#ffffff" stroke="transparent" points="462.5,-380.2 462.5,-441.2 706.5,-441.2 706.5,-380.2 462.5,-380.2"/>
<polygon fill="#f5f5f5" stroke="transparent" points="462.5,-417.7 462.5,-440.7 706.5,-440.7 706.5,-417.7 462.5,-417.7"/>
<polygon fill="none" stroke="#000000" points="462.5,-417.7 462.5,-440.7 706.5,-440.7 706.5,-417.7 462.5,-417.7"/>
<text text-anchor="start" x="467.5" y="-426.3" font-family="Helvetica,sans-Serif" font-weight="bold" font-size="11.00" fill="#000000">am_projecttemplates_contacts_1_c</text>
<text text-anchor="start" x="672.0219" y="-425.8" font-family="Helvetica,sans-Serif" font-size="11.00" fill="#000000">[table]</text>
<polygon fill="none" stroke="#000000" points="462.5,-398.7 462.5,-417.7 706.5,-417.7 706.5,-398.7 462.5,-398.7"/>
<text text-anchor="start" x="465.5" y="-404.8" font-family="Helvetica,sans-Serif" font-size="11.00" fill="#000000">...</text>
<polygon fill="#ffffff" stroke="transparent" points="462.5,-379.7 462.5,-398.7 582.5,-398.7 582.5,-379.7 462.5,-379.7"/>
<polygon fill="none" stroke="#000000" points="462.5,-379.7 462.5,-398.7 582.5,-398.7 582.5,-379.7 462.5,-379.7"/>
<text text-anchor="start" x="465.5" y="-385.8" font-family="Helvetica,sans-Serif" font-size="11.00" fill="#000000">&lt; 2</text>
<polygon fill="#ffffff" stroke="transparent" points="582.5,-379.7 582.5,-398.7 644.5,-398.7 644.5,-379.7 582.5,-379.7"/>
<polygon fill="none" stroke="#000000" points="582.5,-379.7 582.5,-398.7 644.5,-398.7 644.5,-379.7 582.5,-379.7"/>
<text text-anchor="start" x="635.3862" y="-385.8" font-family="Helvetica,sans-Serif" font-size="11.00" fill="#000000"> &#160;</text>
<polygon fill="#ffffff" stroke="transparent" points="644.5,-379.7 644.5,-398.7 706.5,-398.7 706.5,-379.7 644.5,-379.7"/>
<polygon fill="none" stroke="#000000" points="644.5,-379.7 644.5,-398.7 706.5,-398.7 706.5,-379.7 644.5,-379.7"/>
<text text-anchor="start" x="697.3862" y="-385.8" font-family="Helvetica,sans-Serif" font-size="11.00" fill="#000000"> &#160;</text>
</a>
</g>
</g>
<!-- am_projecttemplates_contacts_1_c&#45;&gt;am_projecttemplates -->
<g id="edge5" class="edge">
<title>am_projecttemplates_contacts_1_c:w&#45;&gt;am_projecttemplates:e</title>
<path fill="none" stroke="#000000" d="M448.103,-407.1816C384.1456,-402.4355 367.1497,-366.7 296,-366.7"/>
<polygon fill="#000000" stroke="#000000" points="454.5052,-407.4121 462.3704,-411.2977 458.5026,-407.556 462.5,-407.7 462.5,-407.7 462.5,-407.7 458.5026,-407.556 462.6296,-404.1023 454.5052,-407.4121 454.5052,-407.4121"/>
<ellipse fill="none" stroke="#000000" cx="451.3073" cy="-407.2969" rx="3.2" ry="3.2"/>
</g>
<!-- am_projecttemplates_project_1_c -->
<g id="node5" class="node">
<title>am_projecttemplates_project_1_c</title>
<g id="a_node5"><a xlink:href="../../tables/am_projecttemplates_project_1_c.html" xlink:title="am_projecttemplates_project_1_c" target="_top">
<polygon fill="#ffffff" stroke="transparent" points="466.5,-298.2 466.5,-359.2 702.5,-359.2 702.5,-298.2 466.5,-298.2"/>
<polygon fill="#f5f5f5" stroke="transparent" points="466.5,-335.7 466.5,-358.7 702.5,-358.7 702.5,-335.7 466.5,-335.7"/>
<polygon fill="none" stroke="#000000" points="466.5,-335.7 466.5,-358.7 702.5,-358.7 702.5,-335.7 466.5,-335.7"/>
<text text-anchor="start" x="471.5" y="-344.3" font-family="Helvetica,sans-Serif" font-weight="bold" font-size="11.00" fill="#000000">am_projecttemplates_project_1_c</text>
<text text-anchor="start" x="668.0219" y="-343.8" font-family="Helvetica,sans-Serif" font-size="11.00" fill="#000000">[table]</text>
<polygon fill="none" stroke="#000000" points="466.5,-316.7 466.5,-335.7 702.5,-335.7 702.5,-316.7 466.5,-316.7"/>
<text text-anchor="start" x="469.5" y="-322.8" font-family="Helvetica,sans-Serif" font-size="11.00" fill="#000000">...</text>
<polygon fill="#ffffff" stroke="transparent" points="466.5,-297.7 466.5,-316.7 582.5,-316.7 582.5,-297.7 466.5,-297.7"/>
<polygon fill="none" stroke="#000000" points="466.5,-297.7 466.5,-316.7 582.5,-316.7 582.5,-297.7 466.5,-297.7"/>
<text text-anchor="start" x="469.5" y="-303.8" font-family="Helvetica,sans-Serif" font-size="11.00" fill="#000000">&lt; 2</text>
<polygon fill="#ffffff" stroke="transparent" points="582.5,-297.7 582.5,-316.7 642.5,-316.7 642.5,-297.7 582.5,-297.7"/>
<polygon fill="none" stroke="#000000" points="582.5,-297.7 582.5,-316.7 642.5,-316.7 642.5,-297.7 582.5,-297.7"/>
<text text-anchor="start" x="633.3862" y="-303.8" font-family="Helvetica,sans-Serif" font-size="11.00" fill="#000000"> &#160;</text>
<polygon fill="#ffffff" stroke="transparent" points="642.5,-297.7 642.5,-316.7 702.5,-316.7 702.5,-297.7 642.5,-297.7"/>
<polygon fill="none" stroke="#000000" points="642.5,-297.7 642.5,-316.7 702.5,-316.7 702.5,-297.7 642.5,-297.7"/>
<text text-anchor="start" x="693.3862" y="-303.8" font-family="Helvetica,sans-Serif" font-size="11.00" fill="#000000"> &#160;</text>
</a>
</g>
</g>
<!-- am_projecttemplates_project_1_c&#45;&gt;am_projecttemplates -->
<g id="edge6" class="edge">
<title>am_projecttemplates_project_1_c:w&#45;&gt;am_projecttemplates:e</title>
<path fill="none" stroke="#000000" d="M451.7738,-326.2184C386.3406,-330.9645 368.7624,-366.7 296,-366.7"/>
<polygon fill="#000000" stroke="#000000" points="458.505,-325.9815 466.6267,-329.2978 462.5025,-325.8407 466.5,-325.7 466.5,-325.7 466.5,-325.7 462.5025,-325.8407 466.3733,-322.1022 458.505,-325.9815 458.505,-325.9815"/>
<ellipse fill="none" stroke="#000000" cx="455.3069" cy="-326.0941" rx="3.2" ry="3.2"/>
</g>
<!-- am_projecttemplates_users_1_c -->
<g id="node6" class="node">
<title>am_projecttemplates_users_1_c</title>
<g id="a_node6"><a xlink:href="../../tables/am_projecttemplates_users_1_c.html" xlink:title="am_projecttemplates_users_1_c" target="_top">
<polygon fill="#ffffff" stroke="transparent" points="471,-544.2 471,-605.2 698,-605.2 698,-544.2 471,-544.2"/>
<polygon fill="#f5f5f5" stroke="transparent" points="471.5,-581.7 471.5,-604.7 698.5,-604.7 698.5,-581.7 471.5,-581.7"/>
<polygon fill="none" stroke="#000000" points="471.5,-581.7 471.5,-604.7 698.5,-604.7 698.5,-581.7 471.5,-581.7"/>
<text text-anchor="start" x="476.5" y="-590.3" font-family="Helvetica,sans-Serif" font-weight="bold" font-size="11.00" fill="#000000">am_projecttemplates_users_1_c</text>
<text text-anchor="start" x="664.0219" y="-589.8" font-family="Helvetica,sans-Serif" font-size="11.00" fill="#000000">[table]</text>
<polygon fill="none" stroke="#000000" points="471.5,-562.7 471.5,-581.7 698.5,-581.7 698.5,-562.7 471.5,-562.7"/>
<text text-anchor="start" x="474.5" y="-568.8" font-family="Helvetica,sans-Serif" font-size="11.00" fill="#000000">...</text>
<polygon fill="#ffffff" stroke="transparent" points="471.5,-543.7 471.5,-562.7 583.5,-562.7 583.5,-543.7 471.5,-543.7"/>
<polygon fill="none" stroke="#000000" points="471.5,-543.7 471.5,-562.7 583.5,-562.7 583.5,-543.7 471.5,-543.7"/>
<text text-anchor="start" x="474.5" y="-549.8" font-family="Helvetica,sans-Serif" font-size="11.00" fill="#000000">&lt; 2</text>
<polygon fill="#ffffff" stroke="transparent" points="583.5,-543.7 583.5,-562.7 640.5,-562.7 640.5,-543.7 583.5,-543.7"/>
<polygon fill="none" stroke="#000000" points="583.5,-543.7 583.5,-562.7 640.5,-562.7 640.5,-543.7 583.5,-543.7"/>
<text text-anchor="start" x="631.3862" y="-549.8" font-family="Helvetica,sans-Serif" font-size="11.00" fill="#000000"> &#160;</text>
<polygon fill="#ffffff" stroke="transparent" points="640.5,-543.7 640.5,-562.7 698.5,-562.7 698.5,-543.7 640.5,-543.7"/>
<polygon fill="none" stroke="#000000" points="640.5,-543.7 640.5,-562.7 698.5,-562.7 698.5,-543.7 640.5,-543.7"/>
<text text-anchor="start" x="689.3862" y="-549.8" font-family="Helvetica,sans-Serif" font-size="11.00" fill="#000000"> &#160;</text>
</a>
</g>
</g>
<!-- am_projecttemplates_users_1_c&#45;&gt;am_projecttemplates -->
<g id="edge7" class="edge">
<title>am_projecttemplates_users_1_c:w&#45;&gt;am_projecttemplates:e</title>
<path fill="none" stroke="#000000" d="M456.8514,-571.8028C404.4938,-572.4499 376.6171,-574.7123 337,-533.7 283.9015,-478.7315 372.4264,-366.7 296,-366.7"/>
<polygon fill="#000000" stroke="#000000" points="463.5002,-571.7562 471.5253,-575.2999 467.5001,-571.7281 471.5,-571.7 471.5,-571.7 471.5,-571.7 467.5001,-571.7281 471.4747,-568.1001 463.5002,-571.7562 463.5002,-571.7562"/>
<ellipse fill="none" stroke="#000000" cx="460.3003" cy="-571.7786" rx="3.2" ry="3.2"/>
</g>
<!-- am_projecttemplates_users_1_c&#45;&gt;users -->
<g id="edge8" class="edge">
<title>am_projecttemplates_users_1_c:w&#45;&gt;users:e</title>
<path fill="none" stroke="#000000" d="M456.6753,-571.623C295.7914,-569.9025 227.8769,-538.6792 120,-411.7 85.9992,-371.6785 132.0145,-300.7 79.5,-300.7"/>
<polygon fill="#000000" stroke="#000000" points="463.5001,-571.6584 471.4813,-575.3 467.5001,-571.6792 471.5,-571.7 471.5,-571.7 471.5,-571.7 467.5001,-571.6792 471.5187,-568.1 463.5001,-571.6584 463.5001,-571.6584"/>
<ellipse fill="none" stroke="#000000" cx="460.3002" cy="-571.6418" rx="3.2" ry="3.2"/>
</g>
<!-- am_tasktemplates -->
<g id="node7" class="node">
<title>am_tasktemplates</title>
<g id="a_node7"><a xlink:href="../../tables/am_tasktemplates.html" xlink:title="am_tasktemplates" target="_top">
<polygon fill="#ffffff" stroke="transparent" points="138.5,-82.2 138.5,-231.2 285.5,-231.2 285.5,-82.2 138.5,-82.2"/>
<polygon fill="#f5f5f5" stroke="transparent" points="139,-207.7 139,-230.7 286,-230.7 286,-207.7 139,-207.7"/>
<polygon fill="none" stroke="#000000" points="139,-207.7 139,-230.7 286,-230.7 286,-207.7 139,-207.7"/>
<text text-anchor="start" x="144" y="-216.3" font-family="Helvetica,sans-Serif" font-weight="bold" font-size="11.00" fill="#000000">am_tasktemplates</text>
<text text-anchor="start" x="251.5219" y="-215.8" font-family="Helvetica,sans-Serif" font-size="11.00" fill="#000000">[table]</text>
<polygon fill="none" stroke="#000000" points="139,-185.7 139,-207.7 286,-207.7 286,-185.7 139,-185.7"/>
<image xlink:href="../../images/primaryKeys.png" width="11px" height="12px" preserveAspectRatio="xMinYMin meet" x="144" y="-202.7"/>
<text text-anchor="start" x="168" y="-192.8" font-family="Helvetica,sans-Serif" font-size="11.00" fill="#000000">id</text>
<polygon fill="#c0c0c0" stroke="transparent" points="139,-163.7 139,-185.7 286,-185.7 286,-163.7 139,-163.7"/>
<polygon fill="none" stroke="#000000" points="139,-163.7 139,-185.7 286,-185.7 286,-163.7 139,-163.7"/>
<image xlink:href="../../images/foreignKeys.png" width="11px" height="12px" preserveAspectRatio="xMinYMin meet" x="144" y="-180.7"/>
<text text-anchor="start" x="168" y="-170.8" font-family="Helvetica,sans-Serif" font-size="11.00" fill="#000000">modified_user_id</text>
<polygon fill="#c0c0c0" stroke="transparent" points="139,-141.7 139,-163.7 286,-163.7 286,-141.7 139,-141.7"/>
<polygon fill="none" stroke="#000000" points="139,-141.7 139,-163.7 286,-163.7 286,-141.7 139,-141.7"/>
<image xlink:href="../../images/foreignKeys.png" width="11px" height="12px" preserveAspectRatio="xMinYMin meet" x="144" y="-158.7"/>
<text text-anchor="start" x="168" y="-148.8" font-family="Helvetica,sans-Serif" font-size="11.00" fill="#000000">created_by</text>
<polygon fill="#c0c0c0" stroke="transparent" points="139,-119.7 139,-141.7 286,-141.7 286,-119.7 139,-119.7"/>
<polygon fill="none" stroke="#000000" points="139,-119.7 139,-141.7 286,-141.7 286,-119.7 139,-119.7"/>
<image xlink:href="../../images/foreignKeys.png" width="11px" height="12px" preserveAspectRatio="xMinYMin meet" x="144" y="-136.7"/>
<text text-anchor="start" x="168" y="-126.8" font-family="Helvetica,sans-Serif" font-size="11.00" fill="#000000">assigned_user_id</text>
<polygon fill="none" stroke="#000000" points="139,-100.7 139,-119.7 286,-119.7 286,-100.7 139,-100.7"/>
<text text-anchor="start" x="142" y="-106.8" font-family="Helvetica,sans-Serif" font-size="11.00" fill="#000000">...</text>
<polygon fill="#ffffff" stroke="transparent" points="139,-81.7 139,-100.7 206,-100.7 206,-81.7 139,-81.7"/>
<polygon fill="none" stroke="#000000" points="139,-81.7 139,-100.7 206,-100.7 206,-81.7 139,-81.7"/>
<text text-anchor="start" x="142" y="-87.8" font-family="Helvetica,sans-Serif" font-size="11.00" fill="#000000">&lt; 3</text>
<polygon fill="#ffffff" stroke="transparent" points="206,-81.7 206,-100.7 241,-100.7 241,-81.7 206,-81.7"/>
<polygon fill="none" stroke="#000000" points="206,-81.7 206,-100.7 241,-100.7 241,-81.7 206,-81.7"/>
<text text-anchor="start" x="231.8862" y="-87.8" font-family="Helvetica,sans-Serif" font-size="11.00" fill="#000000"> &#160;</text>
<polygon fill="#ffffff" stroke="transparent" points="241,-81.7 241,-100.7 286,-100.7 286,-81.7 241,-81.7"/>
<polygon fill="none" stroke="#000000" points="241,-81.7 241,-100.7 286,-100.7 286,-81.7 241,-81.7"/>
<text text-anchor="start" x="267.4053" y="-87.8" font-family="Helvetica,sans-Serif" font-size="11.00" fill="#000000">2 &gt;</text>
</a>
</g>
</g>
<!-- am_tasktemplates&#45;&gt;users -->
<g id="edge9" class="edge">
<title>am_tasktemplates:w&#45;&gt;users:e</title>
<path fill="none" stroke="#000000" d="M124.6682,-133.1032C72.204,-153.7658 153.9212,-300.7 79.5,-300.7"/>
<polygon fill="#000000" stroke="#000000" points="131.1102,-132.023 139.5954,-134.2504 135.0551,-131.3615 139,-130.7 139,-130.7 139,-130.7 135.0551,-131.3615 138.4046,-127.1496 131.1102,-132.023 131.1102,-132.023"/>
<ellipse fill="none" stroke="#000000" cx="127.9542" cy="-132.5522" rx="3.2" ry="3.2"/>
</g>
<!-- am_tasktemplates&#45;&gt;users -->
<g id="edge10" class="edge">
<title>am_tasktemplates:w&#45;&gt;users:e</title>
<path fill="none" stroke="#000000" d="M124.7583,-155.3952C80.3023,-175.4541 144.7174,-300.7 79.5,-300.7"/>
<polygon fill="#000000" stroke="#000000" points="131.1395,-154.1876 139.6694,-156.2372 135.0698,-153.4438 139,-152.7 139,-152.7 139,-152.7 135.0698,-153.4438 138.3306,-149.1628 131.1395,-154.1876 131.1395,-154.1876"/>
<ellipse fill="none" stroke="#000000" cx="127.9953" cy="-154.7826" rx="3.2" ry="3.2"/>
</g>
<!-- am_tasktemplates&#45;&gt;users -->
<g id="edge11" class="edge">
<title>am_tasktemplates:w&#45;&gt;users:e</title>
<path fill="none" stroke="#000000" d="M124.704,-177.8146C88.0276,-197.2176 135.6239,-300.7 79.5,-300.7"/>
<polygon fill="#000000" stroke="#000000" points="131.1834,-176.403 139.7664,-178.2175 135.0917,-175.5515 139,-174.7 139,-174.7 139,-174.7 135.0917,-175.5515 138.2336,-171.1825 131.1834,-176.403 131.1834,-176.403"/>
<ellipse fill="none" stroke="#000000" cx="128.0567" cy="-177.0842" rx="3.2" ry="3.2"/>
</g>
<!-- am_tasktemplates_am_projecttemplates_c -->
<g id="node8" class="node">
<title>am_tasktemplates_am_projecttemplates_c</title>
<g id="a_node8"><a xlink:href="../../tables/am_tasktemplates_am_projecttemplates_c.html" xlink:title="am_tasktemplates_am_projecttemplates_c" target="_top">
<polygon fill="#ffffff" stroke="transparent" points="345,-120.7 345,-276.7 824,-276.7 824,-120.7 345,-120.7"/>
<polygon fill="#f5f5f5" stroke="transparent" points="347.5,-251.7 347.5,-274.7 822.5,-274.7 822.5,-251.7 347.5,-251.7"/>
<polygon fill="none" stroke="#000000" points="347.5,-251.7 347.5,-274.7 822.5,-274.7 822.5,-251.7 347.5,-251.7"/>
<text text-anchor="start" x="352.5" y="-260.3" font-family="Helvetica,sans-Serif" font-weight="bold" font-size="11.00" fill="#000000">am_tasktemplates_am_projecttemplates_c</text>
<text text-anchor="start" x="787.5437" y="-259.8" font-family="Helvetica,sans-Serif" font-size="11.00" fill="#000000">[table]</text>
<polygon fill="none" stroke="#000000" points="347.5,-229.7 347.5,-251.7 756.5,-251.7 756.5,-229.7 347.5,-229.7"/>
<image xlink:href="../../images/primaryKeys.png" width="11px" height="12px" preserveAspectRatio="xMinYMin meet" x="352.5" y="-246.7"/>
<text text-anchor="start" x="367.5" y="-236.8" font-family="Helvetica,sans-Serif" font-size="11.00" fill="#000000">id</text>
<polygon fill="none" stroke="#000000" points="756.5,-229.7 756.5,-251.7 822.5,-251.7 822.5,-229.7 756.5,-229.7"/>
<text text-anchor="start" x="759.5" y="-237.4" font-family="Helvetica,sans-Serif" font-size="11.00" fill="#000000">varchar[36]</text>
<polygon fill="none" stroke="#000000" points="347.5,-207.7 347.5,-229.7 756.5,-229.7 756.5,-207.7 347.5,-207.7"/>
<text text-anchor="start" x="367.5" y="-214.8" font-family="Helvetica,sans-Serif" font-size="11.00" fill="#000000">date_modified</text>
<polygon fill="none" stroke="#000000" points="756.5,-207.7 756.5,-229.7 822.5,-229.7 822.5,-207.7 756.5,-207.7"/>
<text text-anchor="start" x="759.2401" y="-215.4" font-family="Helvetica,sans-Serif" font-size="11.00" fill="#000000">datetime[19]</text>
<polygon fill="none" stroke="#000000" points="347.5,-185.7 347.5,-207.7 756.5,-207.7 756.5,-185.7 347.5,-185.7"/>
<text text-anchor="start" x="367.5" y="-192.8" font-family="Helvetica,sans-Serif" font-size="11.00" fill="#000000">deleted</text>
<polygon fill="none" stroke="#000000" points="756.5,-185.7 756.5,-207.7 822.5,-207.7 822.5,-185.7 756.5,-185.7"/>
<text text-anchor="start" x="759.5" y="-193.4" font-family="Helvetica,sans-Serif" font-size="11.00" fill="#000000">boolean[3]</text>
<polygon fill="#ffffff" stroke="transparent" points="347.5,-163.7 347.5,-185.7 756.5,-185.7 756.5,-163.7 347.5,-163.7"/>
<polygon fill="none" stroke="#000000" points="347.5,-163.7 347.5,-185.7 756.5,-185.7 756.5,-163.7 347.5,-163.7"/>
<image xlink:href="../../images/foreignKeys.png" width="11px" height="12px" preserveAspectRatio="xMinYMin meet" x="352.5" y="-180.7"/>
<text text-anchor="start" x="367.5" y="-170.8" font-family="Helvetica,sans-Serif" font-size="11.00" fill="#000000">am_tasktemplates_am_projecttemplatesam_projecttemplates_ida</text>
<polygon fill="none" stroke="#000000" points="756.5,-163.7 756.5,-185.7 822.5,-185.7 822.5,-163.7 756.5,-163.7"/>
<text text-anchor="start" x="759.5" y="-171.4" font-family="Helvetica,sans-Serif" font-size="11.00" fill="#000000">varchar[36]</text>
<polygon fill="#ffffff" stroke="transparent" points="347.5,-141.7 347.5,-163.7 756.5,-163.7 756.5,-141.7 347.5,-141.7"/>
<polygon fill="none" stroke="#000000" points="347.5,-141.7 347.5,-163.7 756.5,-163.7 756.5,-141.7 347.5,-141.7"/>
<image xlink:href="../../images/foreignKeys.png" width="11px" height="12px" preserveAspectRatio="xMinYMin meet" x="352.5" y="-158.7"/>
<text text-anchor="start" x="367.5" y="-148.8" font-family="Helvetica,sans-Serif" font-size="11.00" fill="#000000">am_tasktemplates_am_projecttemplatesam_tasktemplates_idb</text>
<polygon fill="none" stroke="#000000" points="756.5,-141.7 756.5,-163.7 822.5,-163.7 822.5,-141.7 756.5,-141.7"/>
<text text-anchor="start" x="759.5" y="-149.4" font-family="Helvetica,sans-Serif" font-size="11.00" fill="#000000">varchar[36]</text>
<polygon fill="#ffffff" stroke="transparent" points="347.5,-122.7 347.5,-141.7 556.5,-141.7 556.5,-122.7 347.5,-122.7"/>
<polygon fill="none" stroke="#000000" points="347.5,-122.7 347.5,-141.7 556.5,-141.7 556.5,-122.7 347.5,-122.7"/>
<text text-anchor="start" x="350.5" y="-128.8" font-family="Helvetica,sans-Serif" font-size="11.00" fill="#000000">&lt; 2</text>
<polygon fill="#ffffff" stroke="transparent" points="556.5,-122.7 556.5,-141.7 756.5,-141.7 756.5,-122.7 556.5,-122.7"/>
<polygon fill="none" stroke="#000000" points="556.5,-122.7 556.5,-141.7 756.5,-141.7 756.5,-122.7 556.5,-122.7"/>
<text text-anchor="start" x="747.3862" y="-128.8" font-family="Helvetica,sans-Serif" font-size="11.00" fill="#000000"> &#160;</text>
<polygon fill="#ffffff" stroke="transparent" points="756.5,-122.7 756.5,-141.7 822.5,-141.7 822.5,-122.7 756.5,-122.7"/>
<polygon fill="none" stroke="#000000" points="756.5,-122.7 756.5,-141.7 822.5,-141.7 822.5,-122.7 756.5,-122.7"/>
<text text-anchor="start" x="803.9053" y="-128.8" font-family="Helvetica,sans-Serif" font-size="11.00" fill="#000000">0 &gt;</text>
<polygon fill="none" stroke="#000000" stroke-width="2" points="346,-121.7 346,-275.7 823,-275.7 823,-121.7 346,-121.7"/>
</a>
</g>
</g>
<!-- am_tasktemplates_am_projecttemplates_c&#45;&gt;am_projecttemplates -->
<g id="edge12" class="edge">
<title>am_tasktemplates_am_projecttemplates_c:w&#45;&gt;am_projecttemplates:e</title>
<path fill="none" stroke="#000000" d="M332.9638,-176.99C274.4021,-198.6524 378.6553,-366.7 296,-366.7"/>
<polygon fill="#000000" stroke="#000000" points="339.5975,-175.945 348.0602,-178.2561 343.5487,-175.3225 347.5,-174.7 347.5,-174.7 347.5,-174.7 343.5487,-175.3225 346.9398,-171.1439 339.5975,-175.945 339.5975,-175.945"/>
<ellipse fill="none" stroke="#000000" cx="336.4364" cy="-176.443" rx="3.2" ry="3.2"/>
</g>
<!-- am_tasktemplates_am_projecttemplates_c&#45;&gt;am_tasktemplates -->
<g id="edge13" class="edge">
<title>am_tasktemplates_am_projecttemplates_c:w&#45;&gt;am_tasktemplates:e</title>
<path fill="none" stroke="#000000" d="M333.2564,-156.1526C314.695,-166.5252 313.832,-196.7 286,-196.7"/>
<polygon fill="#000000" stroke="#000000" points="339.7251,-154.5846 348.3481,-156.1987 343.6126,-153.6423 347.5,-152.7 347.5,-152.7 347.5,-152.7 343.6126,-153.6423 346.6519,-149.2013 339.7251,-154.5846 339.7251,-154.5846"/>
<ellipse fill="none" stroke="#000000" cx="336.6152" cy="-155.3385" rx="3.2" ry="3.2"/>
</g>
<!-- am_tasktemplates_audit -->
<g id="node9" class="node">
<title>am_tasktemplates_audit</title>
<g id="a_node9"><a xlink:href="../../tables/am_tasktemplates_audit.html" xlink:title="am_tasktemplates_audit" target="_top">
<polygon fill="#ffffff" stroke="transparent" points="493,-38.2 493,-99.2 676,-99.2 676,-38.2 493,-38.2"/>
<polygon fill="#f5f5f5" stroke="transparent" points="493.5,-75.7 493.5,-98.7 676.5,-98.7 676.5,-75.7 493.5,-75.7"/>
<polygon fill="none" stroke="#000000" points="493.5,-75.7 493.5,-98.7 676.5,-98.7 676.5,-75.7 493.5,-75.7"/>
<text text-anchor="start" x="498.5" y="-84.3" font-family="Helvetica,sans-Serif" font-weight="bold" font-size="11.00" fill="#000000">am_tasktemplates_audit</text>
<text text-anchor="start" x="642.0219" y="-83.8" font-family="Helvetica,sans-Serif" font-size="11.00" fill="#000000">[table]</text>
<polygon fill="none" stroke="#000000" points="493.5,-56.7 493.5,-75.7 676.5,-75.7 676.5,-56.7 493.5,-56.7"/>
<text text-anchor="start" x="496.5" y="-62.8" font-family="Helvetica,sans-Serif" font-size="11.00" fill="#000000">...</text>
<polygon fill="#ffffff" stroke="transparent" points="493.5,-37.7 493.5,-56.7 583.5,-56.7 583.5,-37.7 493.5,-37.7"/>
<polygon fill="none" stroke="#000000" points="493.5,-37.7 493.5,-56.7 583.5,-56.7 583.5,-37.7 493.5,-37.7"/>
<text text-anchor="start" x="496.5" y="-43.8" font-family="Helvetica,sans-Serif" font-size="11.00" fill="#000000">&lt; 1</text>
<polygon fill="#ffffff" stroke="transparent" points="583.5,-37.7 583.5,-56.7 629.5,-56.7 629.5,-37.7 583.5,-37.7"/>
<polygon fill="none" stroke="#000000" points="583.5,-37.7 583.5,-56.7 629.5,-56.7 629.5,-37.7 583.5,-37.7"/>
<text text-anchor="start" x="620.3862" y="-43.8" font-family="Helvetica,sans-Serif" font-size="11.00" fill="#000000"> &#160;</text>
<polygon fill="#ffffff" stroke="transparent" points="629.5,-37.7 629.5,-56.7 676.5,-56.7 676.5,-37.7 629.5,-37.7"/>
<polygon fill="none" stroke="#000000" points="629.5,-37.7 629.5,-56.7 676.5,-56.7 676.5,-37.7 629.5,-37.7"/>
<text text-anchor="start" x="667.3862" y="-43.8" font-family="Helvetica,sans-Serif" font-size="11.00" fill="#000000"> &#160;</text>
</a>
</g>
</g>
<!-- am_tasktemplates_audit&#45;&gt;am_tasktemplates -->
<g id="edge14" class="edge">
<title>am_tasktemplates_audit:w&#45;&gt;am_tasktemplates:e</title>
<path fill="none" stroke="#000000" d="M478.9035,-65.7133C417.2946,-65.8984 390.1753,-68.6576 337,-109.7 301.5187,-137.0856 330.8206,-196.7 286,-196.7"/>
<polygon fill="#000000" stroke="#000000" points="485.5,-65.7073 493.5033,-69.3 489.5,-65.7037 493.5,-65.7 493.5,-65.7 493.5,-65.7 489.5,-65.7037 493.4967,-62.1 485.5,-65.7073 485.5,-65.7073"/>
<ellipse fill="none" stroke="#000000" cx="482.3" cy="-65.7103" rx="3.2" ry="3.2"/>
</g>
</g>
</svg>
