<?xml version="1.0" encoding="UTF-8" standalone="no"?>
<!DOCTYPE svg PUBLIC "-//W3C//DTD SVG 1.1//EN"
 "http://www.w3.org/Graphics/SVG/1.1/DTD/svg11.dtd">
<!-- Generated by graphviz version 2.40.1 (20161225.0304)
 -->
<!-- Title: oneDegreeRelationshipsDiagram Pages: 1 -->
<svg width="530pt" height="501pt"
 viewBox="0.00 0.00 530.00 501.20" xmlns="http://www.w3.org/2000/svg" xmlns:xlink="http://www.w3.org/1999/xlink">
<g id="graph0" class="graph" transform="scale(1 1) rotate(0) translate(4 497.2)">
<title>oneDegreeRelationshipsDiagram</title>
<polygon fill="#ffffff" stroke="transparent" points="-4,4 -4,-497.2 526,-497.2 526,4 -4,4"/>
<text text-anchor="middle" x="72.4936" y="-7.3" font-family="Helvetica,sans-Serif" font-size="11.00" fill="#000000">Generated by SchemaSpy</text>
<!-- aos_quotes_os_contracts_c -->
<g id="node1" class="node">
<title>aos_quotes_os_contracts_c</title>
<g id="a_node1"><a xlink:href="../../tables/aos_quotes_os_contracts_c.html" xlink:title="aos_quotes_os_contracts_c" target="_top">
<polygon fill="#ffffff" stroke="transparent" points="257,-293.7 257,-449.7 514,-449.7 514,-293.7 257,-293.7"/>
<polygon fill="#f5f5f5" stroke="transparent" points="259.5,-424.7 259.5,-447.7 512.5,-447.7 512.5,-424.7 259.5,-424.7"/>
<polygon fill="none" stroke="#000000" points="259.5,-424.7 259.5,-447.7 512.5,-447.7 512.5,-424.7 259.5,-424.7"/>
<text text-anchor="start" x="264.5" y="-433.3" font-family="Helvetica,sans-Serif" font-weight="bold" font-size="11.00" fill="#000000">aos_quotes_os_contracts_c</text>
<text text-anchor="start" x="477.5437" y="-432.8" font-family="Helvetica,sans-Serif" font-size="11.00" fill="#000000">[table]</text>
<polygon fill="none" stroke="#000000" points="259.5,-402.7 259.5,-424.7 446.5,-424.7 446.5,-402.7 259.5,-402.7"/>
<image xlink:href="../../images/primaryKeys.png" width="11px" height="12px" preserveAspectRatio="xMinYMin meet" x="264.5" y="-419.7"/>
<text text-anchor="start" x="279.5" y="-409.8" font-family="Helvetica,sans-Serif" font-size="11.00" fill="#000000">id</text>
<polygon fill="none" stroke="#000000" points="446.5,-402.7 446.5,-424.7 512.5,-424.7 512.5,-402.7 446.5,-402.7"/>
<text text-anchor="start" x="449.5" y="-410.4" font-family="Helvetica,sans-Serif" font-size="11.00" fill="#000000">varchar[36]</text>
<polygon fill="none" stroke="#000000" points="259.5,-380.7 259.5,-402.7 446.5,-402.7 446.5,-380.7 259.5,-380.7"/>
<text text-anchor="start" x="279.5" y="-387.8" font-family="Helvetica,sans-Serif" font-size="11.00" fill="#000000">date_modified</text>
<polygon fill="none" stroke="#000000" points="446.5,-380.7 446.5,-402.7 512.5,-402.7 512.5,-380.7 446.5,-380.7"/>
<text text-anchor="start" x="449.2401" y="-388.4" font-family="Helvetica,sans-Serif" font-size="11.00" fill="#000000">datetime[19]</text>
<polygon fill="none" stroke="#000000" points="259.5,-358.7 259.5,-380.7 446.5,-380.7 446.5,-358.7 259.5,-358.7"/>
<text text-anchor="start" x="279.5" y="-365.8" font-family="Helvetica,sans-Serif" font-size="11.00" fill="#000000">deleted</text>
<polygon fill="none" stroke="#000000" points="446.5,-358.7 446.5,-380.7 512.5,-380.7 512.5,-358.7 446.5,-358.7"/>
<text text-anchor="start" x="449.5" y="-366.4" font-family="Helvetica,sans-Serif" font-size="11.00" fill="#000000">boolean[3]</text>
<polygon fill="#ffffff" stroke="transparent" points="259.5,-336.7 259.5,-358.7 446.5,-358.7 446.5,-336.7 259.5,-336.7"/>
<polygon fill="none" stroke="#000000" points="259.5,-336.7 259.5,-358.7 446.5,-358.7 446.5,-336.7 259.5,-336.7"/>
<image xlink:href="../../images/foreignKeys.png" width="11px" height="12px" preserveAspectRatio="xMinYMin meet" x="264.5" y="-353.7"/>
<text text-anchor="start" x="279.5" y="-343.8" font-family="Helvetica,sans-Serif" font-size="11.00" fill="#000000">aos_quotese81e_quotes_ida</text>
<polygon fill="none" stroke="#000000" points="446.5,-336.7 446.5,-358.7 512.5,-358.7 512.5,-336.7 446.5,-336.7"/>
<text text-anchor="start" x="449.5" y="-344.4" font-family="Helvetica,sans-Serif" font-size="11.00" fill="#000000">varchar[36]</text>
<polygon fill="#ffffff" stroke="transparent" points="259.5,-314.7 259.5,-336.7 446.5,-336.7 446.5,-314.7 259.5,-314.7"/>
<polygon fill="none" stroke="#000000" points="259.5,-314.7 259.5,-336.7 446.5,-336.7 446.5,-314.7 259.5,-314.7"/>
<image xlink:href="../../images/foreignKeys.png" width="11px" height="12px" preserveAspectRatio="xMinYMin meet" x="264.5" y="-331.7"/>
<text text-anchor="start" x="279.5" y="-321.8" font-family="Helvetica,sans-Serif" font-size="11.00" fill="#000000">aos_quotes4dc0ntracts_idb</text>
<polygon fill="none" stroke="#000000" points="446.5,-314.7 446.5,-336.7 512.5,-336.7 512.5,-314.7 446.5,-314.7"/>
<text text-anchor="start" x="449.5" y="-322.4" font-family="Helvetica,sans-Serif" font-size="11.00" fill="#000000">varchar[36]</text>
<polygon fill="#ffffff" stroke="transparent" points="259.5,-295.7 259.5,-314.7 357.5,-314.7 357.5,-295.7 259.5,-295.7"/>
<polygon fill="none" stroke="#000000" points="259.5,-295.7 259.5,-314.7 357.5,-314.7 357.5,-295.7 259.5,-295.7"/>
<text text-anchor="start" x="262.5" y="-301.8" font-family="Helvetica,sans-Serif" font-size="11.00" fill="#000000">&lt; 2</text>
<polygon fill="#ffffff" stroke="transparent" points="357.5,-295.7 357.5,-314.7 446.5,-314.7 446.5,-295.7 357.5,-295.7"/>
<polygon fill="none" stroke="#000000" points="357.5,-295.7 357.5,-314.7 446.5,-314.7 446.5,-295.7 357.5,-295.7"/>
<text text-anchor="start" x="437.3862" y="-301.8" font-family="Helvetica,sans-Serif" font-size="11.00" fill="#000000"> &#160;</text>
<polygon fill="#ffffff" stroke="transparent" points="446.5,-295.7 446.5,-314.7 512.5,-314.7 512.5,-295.7 446.5,-295.7"/>
<polygon fill="none" stroke="#000000" points="446.5,-295.7 446.5,-314.7 512.5,-314.7 512.5,-295.7 446.5,-295.7"/>
<text text-anchor="start" x="493.9053" y="-301.8" font-family="Helvetica,sans-Serif" font-size="11.00" fill="#000000">0 &gt;</text>
<polygon fill="none" stroke="#000000" stroke-width="2" points="258,-294.7 258,-448.7 513,-448.7 513,-294.7 258,-294.7"/>
</a>
</g>
</g>
<!-- aos_contracts -->
<g id="node2" class="node">
<title>aos_contracts</title>
<g id="a_node2"><a xlink:href="../../tables/aos_contracts.html" xlink:title="aos_contracts" target="_top">
<polygon fill="#ffffff" stroke="transparent" points="11,-38.2 11,-253.2 205,-253.2 205,-38.2 11,-38.2"/>
<polygon fill="#f5f5f5" stroke="transparent" points="11,-229.7 11,-252.7 205,-252.7 205,-229.7 11,-229.7"/>
<polygon fill="none" stroke="#000000" points="11,-229.7 11,-252.7 205,-252.7 205,-229.7 11,-229.7"/>
<text text-anchor="start" x="16" y="-238.3" font-family="Helvetica,sans-Serif" font-weight="bold" font-size="11.00" fill="#000000">aos_contracts</text>
<text text-anchor="start" x="170.0437" y="-237.8" font-family="Helvetica,sans-Serif" font-size="11.00" fill="#000000">[table]</text>
<polygon fill="none" stroke="#000000" points="11,-207.7 11,-229.7 205,-229.7 205,-207.7 11,-207.7"/>
<image xlink:href="../../images/primaryKeys.png" width="11px" height="12px" preserveAspectRatio="xMinYMin meet" x="16" y="-224.7"/>
<text text-anchor="start" x="31" y="-214.8" font-family="Helvetica,sans-Serif" font-size="11.00" fill="#000000">id</text>
<polygon fill="#c0c0c0" stroke="transparent" points="11,-185.7 11,-207.7 205,-207.7 205,-185.7 11,-185.7"/>
<polygon fill="none" stroke="#000000" points="11,-185.7 11,-207.7 205,-207.7 205,-185.7 11,-185.7"/>
<image xlink:href="../../images/foreignKeys.png" width="11px" height="12px" preserveAspectRatio="xMinYMin meet" x="16" y="-202.7"/>
<text text-anchor="start" x="31" y="-192.8" font-family="Helvetica,sans-Serif" font-size="11.00" fill="#000000">modified_user_id</text>
<polygon fill="#c0c0c0" stroke="transparent" points="11,-163.7 11,-185.7 205,-185.7 205,-163.7 11,-163.7"/>
<polygon fill="none" stroke="#000000" points="11,-163.7 11,-185.7 205,-185.7 205,-163.7 11,-163.7"/>
<image xlink:href="../../images/foreignKeys.png" width="11px" height="12px" preserveAspectRatio="xMinYMin meet" x="16" y="-180.7"/>
<text text-anchor="start" x="31" y="-170.8" font-family="Helvetica,sans-Serif" font-size="11.00" fill="#000000">created_by</text>
<polygon fill="#c0c0c0" stroke="transparent" points="11,-141.7 11,-163.7 205,-163.7 205,-141.7 11,-141.7"/>
<polygon fill="none" stroke="#000000" points="11,-141.7 11,-163.7 205,-163.7 205,-141.7 11,-141.7"/>
<image xlink:href="../../images/foreignKeys.png" width="11px" height="12px" preserveAspectRatio="xMinYMin meet" x="16" y="-158.7"/>
<text text-anchor="start" x="31" y="-148.8" font-family="Helvetica,sans-Serif" font-size="11.00" fill="#000000">assigned_user_id</text>
<polygon fill="none" stroke="#000000" points="11,-119.7 11,-141.7 205,-141.7 205,-119.7 11,-119.7"/>
<image xlink:href="../../images/foreignKeys.png" width="11px" height="12px" preserveAspectRatio="xMinYMin meet" x="16" y="-136.7"/>
<text text-anchor="start" x="31" y="-126.8" font-family="Helvetica,sans-Serif" font-size="11.00" fill="#000000">contract_account_id</text>
<polygon fill="none" stroke="#000000" points="11,-97.7 11,-119.7 205,-119.7 205,-97.7 11,-97.7"/>
<image xlink:href="../../images/foreignKeys.png" width="11px" height="12px" preserveAspectRatio="xMinYMin meet" x="16" y="-114.7"/>
<text text-anchor="start" x="31" y="-104.8" font-family="Helvetica,sans-Serif" font-size="11.00" fill="#000000">opportunity_id</text>
<polygon fill="none" stroke="#000000" points="11,-75.7 11,-97.7 205,-97.7 205,-75.7 11,-75.7"/>
<image xlink:href="../../images/foreignKeys.png" width="11px" height="12px" preserveAspectRatio="xMinYMin meet" x="16" y="-92.7"/>
<text text-anchor="start" x="31" y="-82.8" font-family="Helvetica,sans-Serif" font-size="11.00" fill="#000000">contact_id</text>
<polygon fill="none" stroke="#000000" points="11,-56.7 11,-75.7 205,-75.7 205,-56.7 11,-56.7"/>
<text text-anchor="start" x="14" y="-62.8" font-family="Helvetica,sans-Serif" font-size="11.00" fill="#000000">...</text>
<polygon fill="#ffffff" stroke="transparent" points="11,-37.7 11,-56.7 99,-56.7 99,-37.7 11,-37.7"/>
<polygon fill="none" stroke="#000000" points="11,-37.7 11,-56.7 99,-56.7 99,-37.7 11,-37.7"/>
<text text-anchor="start" x="14" y="-43.8" font-family="Helvetica,sans-Serif" font-size="11.00" fill="#000000">&lt; 6</text>
<polygon fill="#ffffff" stroke="transparent" points="99,-37.7 99,-56.7 144,-56.7 144,-37.7 99,-37.7"/>
<polygon fill="none" stroke="#000000" points="99,-37.7 99,-56.7 144,-56.7 144,-37.7 99,-37.7"/>
<text text-anchor="start" x="134.8862" y="-43.8" font-family="Helvetica,sans-Serif" font-size="11.00" fill="#000000"> &#160;</text>
<polygon fill="#ffffff" stroke="transparent" points="144,-37.7 144,-56.7 205,-56.7 205,-37.7 144,-37.7"/>
<polygon fill="none" stroke="#000000" points="144,-37.7 144,-56.7 205,-56.7 205,-37.7 144,-37.7"/>
<text text-anchor="start" x="180.2904" y="-43.8" font-family="Helvetica,sans-Serif" font-size="11.00" fill="#000000">11 &gt;</text>
</a>
</g>
</g>
<!-- aos_quotes_os_contracts_c&#45;&gt;aos_contracts -->
<g id="edge1" class="edge">
<title>aos_quotes_os_contracts_c:w&#45;&gt;aos_contracts:e</title>
<path fill="none" stroke="#000000" d="M245.502,-322.1399C216.2947,-303.5738 252.5317,-218.7 205,-218.7"/>
<polygon fill="#000000" stroke="#000000" points="251.7468,-323.7281 258.6126,-329.1889 255.6234,-324.7141 259.5,-325.7 259.5,-325.7 259.5,-325.7 255.6234,-324.7141 260.3874,-322.2111 251.7468,-323.7281 251.7468,-323.7281"/>
<ellipse fill="none" stroke="#000000" cx="248.6455" cy="-322.9393" rx="3.2" ry="3.2"/>
</g>
<!-- aos_quotes -->
<g id="node3" class="node">
<title>aos_quotes</title>
<g id="a_node3"><a xlink:href="../../tables/aos_quotes.html" xlink:title="aos_quotes" target="_top">
<polygon fill="#ffffff" stroke="transparent" points="8,-274.2 8,-489.2 208,-489.2 208,-274.2 8,-274.2"/>
<polygon fill="#f5f5f5" stroke="transparent" points="8,-465.7 8,-488.7 208,-488.7 208,-465.7 8,-465.7"/>
<polygon fill="none" stroke="#000000" points="8,-465.7 8,-488.7 208,-488.7 208,-465.7 8,-465.7"/>
<text text-anchor="start" x="13" y="-474.3" font-family="Helvetica,sans-Serif" font-weight="bold" font-size="11.00" fill="#000000">aos_quotes</text>
<text text-anchor="start" x="173.0437" y="-473.8" font-family="Helvetica,sans-Serif" font-size="11.00" fill="#000000">[table]</text>
<polygon fill="none" stroke="#000000" points="8,-443.7 8,-465.7 208,-465.7 208,-443.7 8,-443.7"/>
<image xlink:href="../../images/primaryKeys.png" width="11px" height="12px" preserveAspectRatio="xMinYMin meet" x="13" y="-460.7"/>
<text text-anchor="start" x="28" y="-450.8" font-family="Helvetica,sans-Serif" font-size="11.00" fill="#000000">id</text>
<polygon fill="#c0c0c0" stroke="transparent" points="8,-421.7 8,-443.7 208,-443.7 208,-421.7 8,-421.7"/>
<polygon fill="none" stroke="#000000" points="8,-421.7 8,-443.7 208,-443.7 208,-421.7 8,-421.7"/>
<image xlink:href="../../images/foreignKeys.png" width="11px" height="12px" preserveAspectRatio="xMinYMin meet" x="13" y="-438.7"/>
<text text-anchor="start" x="28" y="-428.8" font-family="Helvetica,sans-Serif" font-size="11.00" fill="#000000">modified_user_id</text>
<polygon fill="#c0c0c0" stroke="transparent" points="8,-399.7 8,-421.7 208,-421.7 208,-399.7 8,-399.7"/>
<polygon fill="none" stroke="#000000" points="8,-399.7 8,-421.7 208,-421.7 208,-399.7 8,-399.7"/>
<image xlink:href="../../images/foreignKeys.png" width="11px" height="12px" preserveAspectRatio="xMinYMin meet" x="13" y="-416.7"/>
<text text-anchor="start" x="28" y="-406.8" font-family="Helvetica,sans-Serif" font-size="11.00" fill="#000000">created_by</text>
<polygon fill="#c0c0c0" stroke="transparent" points="8,-377.7 8,-399.7 208,-399.7 208,-377.7 8,-377.7"/>
<polygon fill="none" stroke="#000000" points="8,-377.7 8,-399.7 208,-399.7 208,-377.7 8,-377.7"/>
<image xlink:href="../../images/foreignKeys.png" width="11px" height="12px" preserveAspectRatio="xMinYMin meet" x="13" y="-394.7"/>
<text text-anchor="start" x="28" y="-384.8" font-family="Helvetica,sans-Serif" font-size="11.00" fill="#000000">assigned_user_id</text>
<polygon fill="none" stroke="#000000" points="8,-355.7 8,-377.7 208,-377.7 208,-355.7 8,-355.7"/>
<image xlink:href="../../images/foreignKeys.png" width="11px" height="12px" preserveAspectRatio="xMinYMin meet" x="13" y="-372.7"/>
<text text-anchor="start" x="28" y="-362.8" font-family="Helvetica,sans-Serif" font-size="11.00" fill="#000000">billing_account_id</text>
<polygon fill="none" stroke="#000000" points="8,-333.7 8,-355.7 208,-355.7 208,-333.7 8,-333.7"/>
<image xlink:href="../../images/foreignKeys.png" width="11px" height="12px" preserveAspectRatio="xMinYMin meet" x="13" y="-350.7"/>
<text text-anchor="start" x="28" y="-340.8" font-family="Helvetica,sans-Serif" font-size="11.00" fill="#000000">billing_contact_id</text>
<polygon fill="none" stroke="#000000" points="8,-311.7 8,-333.7 208,-333.7 208,-311.7 8,-311.7"/>
<image xlink:href="../../images/foreignKeys.png" width="11px" height="12px" preserveAspectRatio="xMinYMin meet" x="13" y="-328.7"/>
<text text-anchor="start" x="28" y="-318.8" font-family="Helvetica,sans-Serif" font-size="11.00" fill="#000000">opportunity_id</text>
<polygon fill="none" stroke="#000000" points="8,-292.7 8,-311.7 208,-311.7 208,-292.7 8,-292.7"/>
<text text-anchor="start" x="11" y="-298.8" font-family="Helvetica,sans-Serif" font-size="11.00" fill="#000000">...</text>
<polygon fill="#ffffff" stroke="transparent" points="8,-273.7 8,-292.7 102,-292.7 102,-273.7 8,-273.7"/>
<polygon fill="none" stroke="#000000" points="8,-273.7 8,-292.7 102,-292.7 102,-273.7 8,-273.7"/>
<text text-anchor="start" x="11" y="-279.8" font-family="Helvetica,sans-Serif" font-size="11.00" fill="#000000">&lt; 6</text>
<polygon fill="#ffffff" stroke="transparent" points="102,-273.7 102,-292.7 150,-292.7 150,-273.7 102,-273.7"/>
<polygon fill="none" stroke="#000000" points="102,-273.7 102,-292.7 150,-292.7 150,-273.7 102,-273.7"/>
<text text-anchor="start" x="140.8862" y="-279.8" font-family="Helvetica,sans-Serif" font-size="11.00" fill="#000000"> &#160;</text>
<polygon fill="#ffffff" stroke="transparent" points="150,-273.7 150,-292.7 208,-292.7 208,-273.7 150,-273.7"/>
<polygon fill="none" stroke="#000000" points="150,-273.7 150,-292.7 208,-292.7 208,-273.7 150,-273.7"/>
<text text-anchor="start" x="189.4053" y="-279.8" font-family="Helvetica,sans-Serif" font-size="11.00" fill="#000000">7 &gt;</text>
</a>
</g>
</g>
<!-- aos_quotes_os_contracts_c&#45;&gt;aos_quotes -->
<g id="edge2" class="edge">
<title>aos_quotes_os_contracts_c:w&#45;&gt;aos_quotes:e</title>
<path fill="none" stroke="#000000" d="M245.3662,-351.5082C217.5986,-370.5691 254.7985,-454.7 208,-454.7"/>
<polygon fill="#000000" stroke="#000000" points="251.7755,-349.7813 260.4366,-351.176 255.6377,-348.7407 259.5,-347.7 259.5,-347.7 259.5,-347.7 255.6377,-348.7407 258.5634,-344.224 251.7755,-349.7813 251.7755,-349.7813"/>
<ellipse fill="none" stroke="#000000" cx="248.6857" cy="-350.6139" rx="3.2" ry="3.2"/>
</g>
</g>
</svg>
