<?xml version="1.0" encoding="UTF-8" standalone="no"?>
<!DOCTYPE svg PUBLIC "-//W3C//DTD SVG 1.1//EN"
 "http://www.w3.org/Graphics/SVG/1.1/DTD/svg11.dtd">
<!-- Generated by graphviz version 2.40.1 (20161225.0304)
 -->
<!-- Title: oneDegreeRelationshipsDiagram Pages: 1 -->
<svg width="827pt" height="983pt"
 viewBox="0.00 0.00 827.00 983.20" xmlns="http://www.w3.org/2000/svg" xmlns:xlink="http://www.w3.org/1999/xlink">
<g id="graph0" class="graph" transform="scale(1 1) rotate(0) translate(4 979.2)">
<title>oneDegreeRelationshipsDiagram</title>
<polygon fill="#ffffff" stroke="transparent" points="-4,4 -4,-979.2 823,-979.2 823,4 -4,4"/>
<text text-anchor="middle" x="72.4936" y="-7.3" font-family="Helvetica,sans-Serif" font-size="11.00" fill="#000000">Generated by SchemaSpy</text>
<!-- aos_line_item_groups -->
<g id="node1" class="node">
<title>aos_line_item_groups</title>
<g id="a_node1"><a xlink:href="../../tables/aos_line_item_groups.html" xlink:title="aos_line_item_groups" target="_top">
<polygon fill="#ffffff" stroke="transparent" points="257,-192.7 257,-788.7 532,-788.7 532,-192.7 257,-192.7"/>
<polygon fill="#f5f5f5" stroke="transparent" points="259.5,-763.7 259.5,-786.7 530.5,-786.7 530.5,-763.7 259.5,-763.7"/>
<polygon fill="none" stroke="#000000" points="259.5,-763.7 259.5,-786.7 530.5,-786.7 530.5,-763.7 259.5,-763.7"/>
<text text-anchor="start" x="264.5" y="-772.3" font-family="Helvetica,sans-Serif" font-weight="bold" font-size="11.00" fill="#000000">aos_line_item_groups</text>
<text text-anchor="start" x="495.5437" y="-771.8" font-family="Helvetica,sans-Serif" font-size="11.00" fill="#000000">[table]</text>
<polygon fill="none" stroke="#000000" points="259.5,-741.7 259.5,-763.7 459.5,-763.7 459.5,-741.7 259.5,-741.7"/>
<image xlink:href="../../images/primaryKeys.png" width="11px" height="12px" preserveAspectRatio="xMinYMin meet" x="264.5" y="-758.7"/>
<text text-anchor="start" x="279.5" y="-748.8" font-family="Helvetica,sans-Serif" font-size="11.00" fill="#000000">id</text>
<polygon fill="none" stroke="#000000" points="459.5,-741.7 459.5,-763.7 530.5,-763.7 530.5,-741.7 459.5,-741.7"/>
<text text-anchor="start" x="462.5" y="-749.4" font-family="Helvetica,sans-Serif" font-size="11.00" fill="#000000">char[36]</text>
<polygon fill="none" stroke="#000000" points="259.5,-719.7 259.5,-741.7 459.5,-741.7 459.5,-719.7 259.5,-719.7"/>
<text text-anchor="start" x="279.5" y="-726.8" font-family="Helvetica,sans-Serif" font-size="11.00" fill="#000000">name</text>
<polygon fill="none" stroke="#000000" points="459.5,-719.7 459.5,-741.7 530.5,-741.7 530.5,-719.7 459.5,-719.7"/>
<text text-anchor="start" x="462.5" y="-727.4" font-family="Helvetica,sans-Serif" font-size="11.00" fill="#000000">varchar[255]</text>
<polygon fill="none" stroke="#000000" points="259.5,-697.7 259.5,-719.7 459.5,-719.7 459.5,-697.7 259.5,-697.7"/>
<text text-anchor="start" x="279.5" y="-704.8" font-family="Helvetica,sans-Serif" font-size="11.00" fill="#000000">date_entered</text>
<polygon fill="none" stroke="#000000" points="459.5,-697.7 459.5,-719.7 530.5,-719.7 530.5,-697.7 459.5,-697.7"/>
<text text-anchor="start" x="462.5" y="-705.4" font-family="Helvetica,sans-Serif" font-size="11.00" fill="#000000">datetime[19]</text>
<polygon fill="none" stroke="#000000" points="259.5,-675.7 259.5,-697.7 459.5,-697.7 459.5,-675.7 259.5,-675.7"/>
<text text-anchor="start" x="279.5" y="-682.8" font-family="Helvetica,sans-Serif" font-size="11.00" fill="#000000">date_modified</text>
<polygon fill="none" stroke="#000000" points="459.5,-675.7 459.5,-697.7 530.5,-697.7 530.5,-675.7 459.5,-675.7"/>
<text text-anchor="start" x="462.5" y="-683.4" font-family="Helvetica,sans-Serif" font-size="11.00" fill="#000000">datetime[19]</text>
<polygon fill="#c0c0c0" stroke="transparent" points="259.5,-653.7 259.5,-675.7 459.5,-675.7 459.5,-653.7 259.5,-653.7"/>
<polygon fill="none" stroke="#000000" points="259.5,-653.7 259.5,-675.7 459.5,-675.7 459.5,-653.7 259.5,-653.7"/>
<image xlink:href="../../images/foreignKeys.png" width="11px" height="12px" preserveAspectRatio="xMinYMin meet" x="264.5" y="-670.7"/>
<text text-anchor="start" x="279.5" y="-660.8" font-family="Helvetica,sans-Serif" font-size="11.00" fill="#000000">modified_user_id</text>
<polygon fill="none" stroke="#000000" points="459.5,-653.7 459.5,-675.7 530.5,-675.7 530.5,-653.7 459.5,-653.7"/>
<text text-anchor="start" x="462.5" y="-661.4" font-family="Helvetica,sans-Serif" font-size="11.00" fill="#000000">char[36]</text>
<polygon fill="#c0c0c0" stroke="transparent" points="259.5,-631.7 259.5,-653.7 459.5,-653.7 459.5,-631.7 259.5,-631.7"/>
<polygon fill="none" stroke="#000000" points="259.5,-631.7 259.5,-653.7 459.5,-653.7 459.5,-631.7 259.5,-631.7"/>
<image xlink:href="../../images/foreignKeys.png" width="11px" height="12px" preserveAspectRatio="xMinYMin meet" x="264.5" y="-648.7"/>
<text text-anchor="start" x="279.5" y="-638.8" font-family="Helvetica,sans-Serif" font-size="11.00" fill="#000000">created_by</text>
<polygon fill="none" stroke="#000000" points="459.5,-631.7 459.5,-653.7 530.5,-653.7 530.5,-631.7 459.5,-631.7"/>
<text text-anchor="start" x="462.5" y="-639.4" font-family="Helvetica,sans-Serif" font-size="11.00" fill="#000000">char[36]</text>
<polygon fill="none" stroke="#000000" points="259.5,-609.7 259.5,-631.7 459.5,-631.7 459.5,-609.7 259.5,-609.7"/>
<text text-anchor="start" x="279.5" y="-616.8" font-family="Helvetica,sans-Serif" font-size="11.00" fill="#000000">description</text>
<polygon fill="none" stroke="#000000" points="459.5,-609.7 459.5,-631.7 530.5,-631.7 530.5,-609.7 459.5,-609.7"/>
<text text-anchor="start" x="462.5" y="-617.4" font-family="Helvetica,sans-Serif" font-size="11.00" fill="#000000">text[65535]</text>
<polygon fill="none" stroke="#000000" points="259.5,-587.7 259.5,-609.7 459.5,-609.7 459.5,-587.7 259.5,-587.7"/>
<text text-anchor="start" x="279.5" y="-594.8" font-family="Helvetica,sans-Serif" font-size="11.00" fill="#000000">deleted</text>
<polygon fill="none" stroke="#000000" points="459.5,-587.7 459.5,-609.7 530.5,-609.7 530.5,-587.7 459.5,-587.7"/>
<text text-anchor="start" x="462.5" y="-595.4" font-family="Helvetica,sans-Serif" font-size="11.00" fill="#000000">boolean[3]</text>
<polygon fill="#c0c0c0" stroke="transparent" points="259.5,-565.7 259.5,-587.7 459.5,-587.7 459.5,-565.7 259.5,-565.7"/>
<polygon fill="none" stroke="#000000" points="259.5,-565.7 259.5,-587.7 459.5,-587.7 459.5,-565.7 259.5,-565.7"/>
<image xlink:href="../../images/foreignKeys.png" width="11px" height="12px" preserveAspectRatio="xMinYMin meet" x="264.5" y="-582.7"/>
<text text-anchor="start" x="279.5" y="-572.8" font-family="Helvetica,sans-Serif" font-size="11.00" fill="#000000">assigned_user_id</text>
<polygon fill="none" stroke="#000000" points="459.5,-565.7 459.5,-587.7 530.5,-587.7 530.5,-565.7 459.5,-565.7"/>
<text text-anchor="start" x="462.5" y="-573.4" font-family="Helvetica,sans-Serif" font-size="11.00" fill="#000000">char[36]</text>
<polygon fill="none" stroke="#000000" points="259.5,-543.7 259.5,-565.7 459.5,-565.7 459.5,-543.7 259.5,-543.7"/>
<text text-anchor="start" x="279.5" y="-550.8" font-family="Helvetica,sans-Serif" font-size="11.00" fill="#000000">total_amt</text>
<polygon fill="none" stroke="#000000" points="459.5,-543.7 459.5,-565.7 530.5,-565.7 530.5,-543.7 459.5,-543.7"/>
<text text-anchor="start" x="462.2981" y="-551.4" font-family="Helvetica,sans-Serif" font-size="11.00" fill="#000000">decimal[26,6]</text>
<polygon fill="none" stroke="#000000" points="259.5,-521.7 259.5,-543.7 459.5,-543.7 459.5,-521.7 259.5,-521.7"/>
<text text-anchor="start" x="279.5" y="-528.8" font-family="Helvetica,sans-Serif" font-size="11.00" fill="#000000">total_amt_usdollar</text>
<polygon fill="none" stroke="#000000" points="459.5,-521.7 459.5,-543.7 530.5,-543.7 530.5,-521.7 459.5,-521.7"/>
<text text-anchor="start" x="462.2981" y="-529.4" font-family="Helvetica,sans-Serif" font-size="11.00" fill="#000000">decimal[26,6]</text>
<polygon fill="none" stroke="#000000" points="259.5,-499.7 259.5,-521.7 459.5,-521.7 459.5,-499.7 259.5,-499.7"/>
<text text-anchor="start" x="279.5" y="-506.8" font-family="Helvetica,sans-Serif" font-size="11.00" fill="#000000">discount_amount</text>
<polygon fill="none" stroke="#000000" points="459.5,-499.7 459.5,-521.7 530.5,-521.7 530.5,-499.7 459.5,-499.7"/>
<text text-anchor="start" x="462.2981" y="-507.4" font-family="Helvetica,sans-Serif" font-size="11.00" fill="#000000">decimal[26,6]</text>
<polygon fill="none" stroke="#000000" points="259.5,-477.7 259.5,-499.7 459.5,-499.7 459.5,-477.7 259.5,-477.7"/>
<text text-anchor="start" x="279.5" y="-484.8" font-family="Helvetica,sans-Serif" font-size="11.00" fill="#000000">discount_amount_usdollar</text>
<polygon fill="none" stroke="#000000" points="459.5,-477.7 459.5,-499.7 530.5,-499.7 530.5,-477.7 459.5,-477.7"/>
<text text-anchor="start" x="462.2981" y="-485.4" font-family="Helvetica,sans-Serif" font-size="11.00" fill="#000000">decimal[26,6]</text>
<polygon fill="none" stroke="#000000" points="259.5,-455.7 259.5,-477.7 459.5,-477.7 459.5,-455.7 259.5,-455.7"/>
<text text-anchor="start" x="279.5" y="-462.8" font-family="Helvetica,sans-Serif" font-size="11.00" fill="#000000">subtotal_amount</text>
<polygon fill="none" stroke="#000000" points="459.5,-455.7 459.5,-477.7 530.5,-477.7 530.5,-455.7 459.5,-455.7"/>
<text text-anchor="start" x="462.2981" y="-463.4" font-family="Helvetica,sans-Serif" font-size="11.00" fill="#000000">decimal[26,6]</text>
<polygon fill="none" stroke="#000000" points="259.5,-433.7 259.5,-455.7 459.5,-455.7 459.5,-433.7 259.5,-433.7"/>
<text text-anchor="start" x="279.5" y="-440.8" font-family="Helvetica,sans-Serif" font-size="11.00" fill="#000000">subtotal_amount_usdollar</text>
<polygon fill="none" stroke="#000000" points="459.5,-433.7 459.5,-455.7 530.5,-455.7 530.5,-433.7 459.5,-433.7"/>
<text text-anchor="start" x="462.2981" y="-441.4" font-family="Helvetica,sans-Serif" font-size="11.00" fill="#000000">decimal[26,6]</text>
<polygon fill="none" stroke="#000000" points="259.5,-411.7 259.5,-433.7 459.5,-433.7 459.5,-411.7 259.5,-411.7"/>
<text text-anchor="start" x="279.5" y="-418.8" font-family="Helvetica,sans-Serif" font-size="11.00" fill="#000000">tax_amount</text>
<polygon fill="none" stroke="#000000" points="459.5,-411.7 459.5,-433.7 530.5,-433.7 530.5,-411.7 459.5,-411.7"/>
<text text-anchor="start" x="462.2981" y="-419.4" font-family="Helvetica,sans-Serif" font-size="11.00" fill="#000000">decimal[26,6]</text>
<polygon fill="none" stroke="#000000" points="259.5,-389.7 259.5,-411.7 459.5,-411.7 459.5,-389.7 259.5,-389.7"/>
<text text-anchor="start" x="279.5" y="-396.8" font-family="Helvetica,sans-Serif" font-size="11.00" fill="#000000">tax_amount_usdollar</text>
<polygon fill="none" stroke="#000000" points="459.5,-389.7 459.5,-411.7 530.5,-411.7 530.5,-389.7 459.5,-389.7"/>
<text text-anchor="start" x="462.2981" y="-397.4" font-family="Helvetica,sans-Serif" font-size="11.00" fill="#000000">decimal[26,6]</text>
<polygon fill="none" stroke="#000000" points="259.5,-367.7 259.5,-389.7 459.5,-389.7 459.5,-367.7 259.5,-367.7"/>
<text text-anchor="start" x="279.5" y="-374.8" font-family="Helvetica,sans-Serif" font-size="11.00" fill="#000000">subtotal_tax_amount</text>
<polygon fill="none" stroke="#000000" points="459.5,-367.7 459.5,-389.7 530.5,-389.7 530.5,-367.7 459.5,-367.7"/>
<text text-anchor="start" x="462.2981" y="-375.4" font-family="Helvetica,sans-Serif" font-size="11.00" fill="#000000">decimal[26,6]</text>
<polygon fill="none" stroke="#000000" points="259.5,-345.7 259.5,-367.7 459.5,-367.7 459.5,-345.7 259.5,-345.7"/>
<text text-anchor="start" x="279.5" y="-352.8" font-family="Helvetica,sans-Serif" font-size="11.00" fill="#000000">subtotal_tax_amount_usdollar</text>
<polygon fill="none" stroke="#000000" points="459.5,-345.7 459.5,-367.7 530.5,-367.7 530.5,-345.7 459.5,-345.7"/>
<text text-anchor="start" x="462.2981" y="-353.4" font-family="Helvetica,sans-Serif" font-size="11.00" fill="#000000">decimal[26,6]</text>
<polygon fill="none" stroke="#000000" points="259.5,-323.7 259.5,-345.7 459.5,-345.7 459.5,-323.7 259.5,-323.7"/>
<text text-anchor="start" x="279.5" y="-330.8" font-family="Helvetica,sans-Serif" font-size="11.00" fill="#000000">total_amount</text>
<polygon fill="none" stroke="#000000" points="459.5,-323.7 459.5,-345.7 530.5,-345.7 530.5,-323.7 459.5,-323.7"/>
<text text-anchor="start" x="462.2981" y="-331.4" font-family="Helvetica,sans-Serif" font-size="11.00" fill="#000000">decimal[26,6]</text>
<polygon fill="none" stroke="#000000" points="259.5,-301.7 259.5,-323.7 459.5,-323.7 459.5,-301.7 259.5,-301.7"/>
<text text-anchor="start" x="279.5" y="-308.8" font-family="Helvetica,sans-Serif" font-size="11.00" fill="#000000">total_amount_usdollar</text>
<polygon fill="none" stroke="#000000" points="459.5,-301.7 459.5,-323.7 530.5,-323.7 530.5,-301.7 459.5,-301.7"/>
<text text-anchor="start" x="462.2981" y="-309.4" font-family="Helvetica,sans-Serif" font-size="11.00" fill="#000000">decimal[26,6]</text>
<polygon fill="none" stroke="#000000" points="259.5,-279.7 259.5,-301.7 459.5,-301.7 459.5,-279.7 259.5,-279.7"/>
<text text-anchor="start" x="279.5" y="-286.8" font-family="Helvetica,sans-Serif" font-size="11.00" fill="#000000">parent_type</text>
<polygon fill="none" stroke="#000000" points="459.5,-279.7 459.5,-301.7 530.5,-301.7 530.5,-279.7 459.5,-279.7"/>
<text text-anchor="start" x="462.5" y="-287.4" font-family="Helvetica,sans-Serif" font-size="11.00" fill="#000000">varchar[100]</text>
<polygon fill="none" stroke="#000000" points="259.5,-257.7 259.5,-279.7 459.5,-279.7 459.5,-257.7 259.5,-257.7"/>
<image xlink:href="../../images/foreignKeys.png" width="11px" height="12px" preserveAspectRatio="xMinYMin meet" x="264.5" y="-274.7"/>
<text text-anchor="start" x="279.5" y="-264.8" font-family="Helvetica,sans-Serif" font-size="11.00" fill="#000000">parent_id</text>
<polygon fill="none" stroke="#000000" points="459.5,-257.7 459.5,-279.7 530.5,-279.7 530.5,-257.7 459.5,-257.7"/>
<text text-anchor="start" x="462.5" y="-265.4" font-family="Helvetica,sans-Serif" font-size="11.00" fill="#000000">char[36]</text>
<polygon fill="none" stroke="#000000" points="259.5,-235.7 259.5,-257.7 459.5,-257.7 459.5,-235.7 259.5,-235.7"/>
<text text-anchor="start" x="279.5" y="-242.8" font-family="Helvetica,sans-Serif" font-size="11.00" fill="#000000">number</text>
<polygon fill="none" stroke="#000000" points="459.5,-235.7 459.5,-257.7 530.5,-257.7 530.5,-235.7 459.5,-235.7"/>
<text text-anchor="start" x="462.5" y="-243.4" font-family="Helvetica,sans-Serif" font-size="11.00" fill="#000000">int[10]</text>
<polygon fill="none" stroke="#000000" points="259.5,-213.7 259.5,-235.7 459.5,-235.7 459.5,-213.7 259.5,-213.7"/>
<text text-anchor="start" x="279.5" y="-220.8" font-family="Helvetica,sans-Serif" font-size="11.00" fill="#000000">currency_id</text>
<polygon fill="none" stroke="#000000" points="459.5,-213.7 459.5,-235.7 530.5,-235.7 530.5,-213.7 459.5,-213.7"/>
<text text-anchor="start" x="462.5" y="-221.4" font-family="Helvetica,sans-Serif" font-size="11.00" fill="#000000">char[36]</text>
<polygon fill="#ffffff" stroke="transparent" points="259.5,-194.7 259.5,-213.7 363.5,-213.7 363.5,-194.7 259.5,-194.7"/>
<polygon fill="none" stroke="#000000" points="259.5,-194.7 259.5,-213.7 363.5,-213.7 363.5,-194.7 259.5,-194.7"/>
<text text-anchor="start" x="262.5" y="-200.8" font-family="Helvetica,sans-Serif" font-size="11.00" fill="#000000">&lt; 6</text>
<polygon fill="#ffffff" stroke="transparent" points="363.5,-194.7 363.5,-213.7 459.5,-213.7 459.5,-194.7 363.5,-194.7"/>
<polygon fill="none" stroke="#000000" points="363.5,-194.7 363.5,-213.7 459.5,-213.7 459.5,-194.7 363.5,-194.7"/>
<text text-anchor="start" x="450.3862" y="-200.8" font-family="Helvetica,sans-Serif" font-size="11.00" fill="#000000"> &#160;</text>
<polygon fill="#ffffff" stroke="transparent" points="459.5,-194.7 459.5,-213.7 530.5,-213.7 530.5,-194.7 459.5,-194.7"/>
<polygon fill="none" stroke="#000000" points="459.5,-194.7 459.5,-213.7 530.5,-213.7 530.5,-194.7 459.5,-194.7"/>
<text text-anchor="start" x="511.9053" y="-200.8" font-family="Helvetica,sans-Serif" font-size="11.00" fill="#000000">2 &gt;</text>
<polygon fill="none" stroke="#000000" stroke-width="2" points="258,-193.7 258,-787.7 531,-787.7 531,-193.7 258,-193.7"/>
</a>
</g>
</g>
<!-- aos_contracts -->
<g id="node2" class="node">
<title>aos_contracts</title>
<g id="a_node2"><a xlink:href="../../tables/aos_contracts.html" xlink:title="aos_contracts" target="_top">
<polygon fill="#ffffff" stroke="transparent" points="11,-578.2 11,-793.2 205,-793.2 205,-578.2 11,-578.2"/>
<polygon fill="#f5f5f5" stroke="transparent" points="11,-769.7 11,-792.7 205,-792.7 205,-769.7 11,-769.7"/>
<polygon fill="none" stroke="#000000" points="11,-769.7 11,-792.7 205,-792.7 205,-769.7 11,-769.7"/>
<text text-anchor="start" x="16" y="-778.3" font-family="Helvetica,sans-Serif" font-weight="bold" font-size="11.00" fill="#000000">aos_contracts</text>
<text text-anchor="start" x="170.0437" y="-777.8" font-family="Helvetica,sans-Serif" font-size="11.00" fill="#000000">[table]</text>
<polygon fill="none" stroke="#000000" points="11,-747.7 11,-769.7 205,-769.7 205,-747.7 11,-747.7"/>
<image xlink:href="../../images/primaryKeys.png" width="11px" height="12px" preserveAspectRatio="xMinYMin meet" x="16" y="-764.7"/>
<text text-anchor="start" x="31" y="-754.8" font-family="Helvetica,sans-Serif" font-size="11.00" fill="#000000">id</text>
<polygon fill="#c0c0c0" stroke="transparent" points="11,-725.7 11,-747.7 205,-747.7 205,-725.7 11,-725.7"/>
<polygon fill="none" stroke="#000000" points="11,-725.7 11,-747.7 205,-747.7 205,-725.7 11,-725.7"/>
<image xlink:href="../../images/foreignKeys.png" width="11px" height="12px" preserveAspectRatio="xMinYMin meet" x="16" y="-742.7"/>
<text text-anchor="start" x="31" y="-732.8" font-family="Helvetica,sans-Serif" font-size="11.00" fill="#000000">modified_user_id</text>
<polygon fill="#c0c0c0" stroke="transparent" points="11,-703.7 11,-725.7 205,-725.7 205,-703.7 11,-703.7"/>
<polygon fill="none" stroke="#000000" points="11,-703.7 11,-725.7 205,-725.7 205,-703.7 11,-703.7"/>
<image xlink:href="../../images/foreignKeys.png" width="11px" height="12px" preserveAspectRatio="xMinYMin meet" x="16" y="-720.7"/>
<text text-anchor="start" x="31" y="-710.8" font-family="Helvetica,sans-Serif" font-size="11.00" fill="#000000">created_by</text>
<polygon fill="#c0c0c0" stroke="transparent" points="11,-681.7 11,-703.7 205,-703.7 205,-681.7 11,-681.7"/>
<polygon fill="none" stroke="#000000" points="11,-681.7 11,-703.7 205,-703.7 205,-681.7 11,-681.7"/>
<image xlink:href="../../images/foreignKeys.png" width="11px" height="12px" preserveAspectRatio="xMinYMin meet" x="16" y="-698.7"/>
<text text-anchor="start" x="31" y="-688.8" font-family="Helvetica,sans-Serif" font-size="11.00" fill="#000000">assigned_user_id</text>
<polygon fill="none" stroke="#000000" points="11,-659.7 11,-681.7 205,-681.7 205,-659.7 11,-659.7"/>
<image xlink:href="../../images/foreignKeys.png" width="11px" height="12px" preserveAspectRatio="xMinYMin meet" x="16" y="-676.7"/>
<text text-anchor="start" x="31" y="-666.8" font-family="Helvetica,sans-Serif" font-size="11.00" fill="#000000">contract_account_id</text>
<polygon fill="none" stroke="#000000" points="11,-637.7 11,-659.7 205,-659.7 205,-637.7 11,-637.7"/>
<image xlink:href="../../images/foreignKeys.png" width="11px" height="12px" preserveAspectRatio="xMinYMin meet" x="16" y="-654.7"/>
<text text-anchor="start" x="31" y="-644.8" font-family="Helvetica,sans-Serif" font-size="11.00" fill="#000000">opportunity_id</text>
<polygon fill="none" stroke="#000000" points="11,-615.7 11,-637.7 205,-637.7 205,-615.7 11,-615.7"/>
<image xlink:href="../../images/foreignKeys.png" width="11px" height="12px" preserveAspectRatio="xMinYMin meet" x="16" y="-632.7"/>
<text text-anchor="start" x="31" y="-622.8" font-family="Helvetica,sans-Serif" font-size="11.00" fill="#000000">contact_id</text>
<polygon fill="none" stroke="#000000" points="11,-596.7 11,-615.7 205,-615.7 205,-596.7 11,-596.7"/>
<text text-anchor="start" x="14" y="-602.8" font-family="Helvetica,sans-Serif" font-size="11.00" fill="#000000">...</text>
<polygon fill="#ffffff" stroke="transparent" points="11,-577.7 11,-596.7 99,-596.7 99,-577.7 11,-577.7"/>
<polygon fill="none" stroke="#000000" points="11,-577.7 11,-596.7 99,-596.7 99,-577.7 11,-577.7"/>
<text text-anchor="start" x="14" y="-583.8" font-family="Helvetica,sans-Serif" font-size="11.00" fill="#000000">&lt; 6</text>
<polygon fill="#ffffff" stroke="transparent" points="99,-577.7 99,-596.7 144,-596.7 144,-577.7 99,-577.7"/>
<polygon fill="none" stroke="#000000" points="99,-577.7 99,-596.7 144,-596.7 144,-577.7 99,-577.7"/>
<text text-anchor="start" x="134.8862" y="-583.8" font-family="Helvetica,sans-Serif" font-size="11.00" fill="#000000"> &#160;</text>
<polygon fill="#ffffff" stroke="transparent" points="144,-577.7 144,-596.7 205,-596.7 205,-577.7 144,-577.7"/>
<polygon fill="none" stroke="#000000" points="144,-577.7 144,-596.7 205,-596.7 205,-577.7 144,-577.7"/>
<text text-anchor="start" x="180.2904" y="-583.8" font-family="Helvetica,sans-Serif" font-size="11.00" fill="#000000">11 &gt;</text>
</a>
</g>
</g>
<!-- aos_line_item_groups&#45;&gt;aos_contracts -->
<g id="edge1" class="edge">
<title>aos_line_item_groups:w&#45;&gt;aos_contracts:e</title>
<path fill="none" stroke="#000000" d="M245.3484,-272.0907C165.3622,-315.3833 309.2107,-758.7 205,-758.7"/>
<polygon fill="#000000" stroke="#000000" points="251.7202,-270.5641 260.3388,-272.2009 255.6101,-269.632 259.5,-268.7 259.5,-268.7 259.5,-268.7 255.6101,-269.632 258.6612,-265.1991 251.7202,-270.5641 251.7202,-270.5641"/>
<ellipse fill="none" stroke="#000000" cx="248.6083" cy="-271.3097" rx="3.2" ry="3.2"/>
</g>
<!-- aos_invoices -->
<g id="node3" class="node">
<title>aos_invoices</title>
<g id="a_node3"><a xlink:href="../../tables/aos_invoices.html" xlink:title="aos_invoices" target="_top">
<polygon fill="#ffffff" stroke="transparent" points="8,-334.2 8,-527.2 208,-527.2 208,-334.2 8,-334.2"/>
<polygon fill="#f5f5f5" stroke="transparent" points="8,-503.7 8,-526.7 208,-526.7 208,-503.7 8,-503.7"/>
<polygon fill="none" stroke="#000000" points="8,-503.7 8,-526.7 208,-526.7 208,-503.7 8,-503.7"/>
<text text-anchor="start" x="13" y="-512.3" font-family="Helvetica,sans-Serif" font-weight="bold" font-size="11.00" fill="#000000">aos_invoices</text>
<text text-anchor="start" x="173.0437" y="-511.8" font-family="Helvetica,sans-Serif" font-size="11.00" fill="#000000">[table]</text>
<polygon fill="none" stroke="#000000" points="8,-481.7 8,-503.7 208,-503.7 208,-481.7 8,-481.7"/>
<image xlink:href="../../images/primaryKeys.png" width="11px" height="12px" preserveAspectRatio="xMinYMin meet" x="13" y="-498.7"/>
<text text-anchor="start" x="28" y="-488.8" font-family="Helvetica,sans-Serif" font-size="11.00" fill="#000000">id</text>
<polygon fill="#c0c0c0" stroke="transparent" points="8,-459.7 8,-481.7 208,-481.7 208,-459.7 8,-459.7"/>
<polygon fill="none" stroke="#000000" points="8,-459.7 8,-481.7 208,-481.7 208,-459.7 8,-459.7"/>
<image xlink:href="../../images/foreignKeys.png" width="11px" height="12px" preserveAspectRatio="xMinYMin meet" x="13" y="-476.7"/>
<text text-anchor="start" x="28" y="-466.8" font-family="Helvetica,sans-Serif" font-size="11.00" fill="#000000">modified_user_id</text>
<polygon fill="#c0c0c0" stroke="transparent" points="8,-437.7 8,-459.7 208,-459.7 208,-437.7 8,-437.7"/>
<polygon fill="none" stroke="#000000" points="8,-437.7 8,-459.7 208,-459.7 208,-437.7 8,-437.7"/>
<image xlink:href="../../images/foreignKeys.png" width="11px" height="12px" preserveAspectRatio="xMinYMin meet" x="13" y="-454.7"/>
<text text-anchor="start" x="28" y="-444.8" font-family="Helvetica,sans-Serif" font-size="11.00" fill="#000000">created_by</text>
<polygon fill="#c0c0c0" stroke="transparent" points="8,-415.7 8,-437.7 208,-437.7 208,-415.7 8,-415.7"/>
<polygon fill="none" stroke="#000000" points="8,-415.7 8,-437.7 208,-437.7 208,-415.7 8,-415.7"/>
<image xlink:href="../../images/foreignKeys.png" width="11px" height="12px" preserveAspectRatio="xMinYMin meet" x="13" y="-432.7"/>
<text text-anchor="start" x="28" y="-422.8" font-family="Helvetica,sans-Serif" font-size="11.00" fill="#000000">assigned_user_id</text>
<polygon fill="none" stroke="#000000" points="8,-393.7 8,-415.7 208,-415.7 208,-393.7 8,-393.7"/>
<image xlink:href="../../images/foreignKeys.png" width="11px" height="12px" preserveAspectRatio="xMinYMin meet" x="13" y="-410.7"/>
<text text-anchor="start" x="28" y="-400.8" font-family="Helvetica,sans-Serif" font-size="11.00" fill="#000000">billing_account_id</text>
<polygon fill="none" stroke="#000000" points="8,-371.7 8,-393.7 208,-393.7 208,-371.7 8,-371.7"/>
<image xlink:href="../../images/foreignKeys.png" width="11px" height="12px" preserveAspectRatio="xMinYMin meet" x="13" y="-388.7"/>
<text text-anchor="start" x="28" y="-378.8" font-family="Helvetica,sans-Serif" font-size="11.00" fill="#000000">billing_contact_id</text>
<polygon fill="none" stroke="#000000" points="8,-352.7 8,-371.7 208,-371.7 208,-352.7 8,-352.7"/>
<text text-anchor="start" x="11" y="-358.8" font-family="Helvetica,sans-Serif" font-size="11.00" fill="#000000">...</text>
<polygon fill="#ffffff" stroke="transparent" points="8,-333.7 8,-352.7 102,-352.7 102,-333.7 8,-333.7"/>
<polygon fill="none" stroke="#000000" points="8,-333.7 8,-352.7 102,-352.7 102,-333.7 8,-333.7"/>
<text text-anchor="start" x="11" y="-339.8" font-family="Helvetica,sans-Serif" font-size="11.00" fill="#000000">&lt; 5</text>
<polygon fill="#ffffff" stroke="transparent" points="102,-333.7 102,-352.7 150,-352.7 150,-333.7 102,-333.7"/>
<polygon fill="none" stroke="#000000" points="102,-333.7 102,-352.7 150,-352.7 150,-333.7 102,-333.7"/>
<text text-anchor="start" x="140.8862" y="-339.8" font-family="Helvetica,sans-Serif" font-size="11.00" fill="#000000"> &#160;</text>
<polygon fill="#ffffff" stroke="transparent" points="150,-333.7 150,-352.7 208,-352.7 208,-333.7 150,-333.7"/>
<polygon fill="none" stroke="#000000" points="150,-333.7 150,-352.7 208,-352.7 208,-333.7 150,-333.7"/>
<text text-anchor="start" x="189.4053" y="-339.8" font-family="Helvetica,sans-Serif" font-size="11.00" fill="#000000">5 &gt;</text>
</a>
</g>
</g>
<!-- aos_line_item_groups&#45;&gt;aos_invoices -->
<g id="edge2" class="edge">
<title>aos_line_item_groups:w&#45;&gt;aos_invoices:e</title>
<path fill="none" stroke="#000000" d="M244.9447,-270.6365C173.2977,-292.5301 304.5664,-492.7 208,-492.7"/>
<polygon fill="#000000" stroke="#000000" points="251.5699,-269.7551 259.9748,-272.2686 255.5349,-269.2275 259.5,-268.7 259.5,-268.7 259.5,-268.7 255.5349,-269.2275 259.0252,-265.1314 251.5699,-269.7551 251.5699,-269.7551"/>
<ellipse fill="none" stroke="#000000" cx="248.3978" cy="-270.1771" rx="3.2" ry="3.2"/>
</g>
<!-- aos_quotes -->
<g id="node4" class="node">
<title>aos_quotes</title>
<g id="a_node4"><a xlink:href="../../tables/aos_quotes.html" xlink:title="aos_quotes" target="_top">
<polygon fill="#ffffff" stroke="transparent" points="8,-38.2 8,-253.2 208,-253.2 208,-38.2 8,-38.2"/>
<polygon fill="#f5f5f5" stroke="transparent" points="8,-229.7 8,-252.7 208,-252.7 208,-229.7 8,-229.7"/>
<polygon fill="none" stroke="#000000" points="8,-229.7 8,-252.7 208,-252.7 208,-229.7 8,-229.7"/>
<text text-anchor="start" x="13" y="-238.3" font-family="Helvetica,sans-Serif" font-weight="bold" font-size="11.00" fill="#000000">aos_quotes</text>
<text text-anchor="start" x="173.0437" y="-237.8" font-family="Helvetica,sans-Serif" font-size="11.00" fill="#000000">[table]</text>
<polygon fill="none" stroke="#000000" points="8,-207.7 8,-229.7 208,-229.7 208,-207.7 8,-207.7"/>
<image xlink:href="../../images/primaryKeys.png" width="11px" height="12px" preserveAspectRatio="xMinYMin meet" x="13" y="-224.7"/>
<text text-anchor="start" x="28" y="-214.8" font-family="Helvetica,sans-Serif" font-size="11.00" fill="#000000">id</text>
<polygon fill="#c0c0c0" stroke="transparent" points="8,-185.7 8,-207.7 208,-207.7 208,-185.7 8,-185.7"/>
<polygon fill="none" stroke="#000000" points="8,-185.7 8,-207.7 208,-207.7 208,-185.7 8,-185.7"/>
<image xlink:href="../../images/foreignKeys.png" width="11px" height="12px" preserveAspectRatio="xMinYMin meet" x="13" y="-202.7"/>
<text text-anchor="start" x="28" y="-192.8" font-family="Helvetica,sans-Serif" font-size="11.00" fill="#000000">modified_user_id</text>
<polygon fill="#c0c0c0" stroke="transparent" points="8,-163.7 8,-185.7 208,-185.7 208,-163.7 8,-163.7"/>
<polygon fill="none" stroke="#000000" points="8,-163.7 8,-185.7 208,-185.7 208,-163.7 8,-163.7"/>
<image xlink:href="../../images/foreignKeys.png" width="11px" height="12px" preserveAspectRatio="xMinYMin meet" x="13" y="-180.7"/>
<text text-anchor="start" x="28" y="-170.8" font-family="Helvetica,sans-Serif" font-size="11.00" fill="#000000">created_by</text>
<polygon fill="#c0c0c0" stroke="transparent" points="8,-141.7 8,-163.7 208,-163.7 208,-141.7 8,-141.7"/>
<polygon fill="none" stroke="#000000" points="8,-141.7 8,-163.7 208,-163.7 208,-141.7 8,-141.7"/>
<image xlink:href="../../images/foreignKeys.png" width="11px" height="12px" preserveAspectRatio="xMinYMin meet" x="13" y="-158.7"/>
<text text-anchor="start" x="28" y="-148.8" font-family="Helvetica,sans-Serif" font-size="11.00" fill="#000000">assigned_user_id</text>
<polygon fill="none" stroke="#000000" points="8,-119.7 8,-141.7 208,-141.7 208,-119.7 8,-119.7"/>
<image xlink:href="../../images/foreignKeys.png" width="11px" height="12px" preserveAspectRatio="xMinYMin meet" x="13" y="-136.7"/>
<text text-anchor="start" x="28" y="-126.8" font-family="Helvetica,sans-Serif" font-size="11.00" fill="#000000">billing_account_id</text>
<polygon fill="none" stroke="#000000" points="8,-97.7 8,-119.7 208,-119.7 208,-97.7 8,-97.7"/>
<image xlink:href="../../images/foreignKeys.png" width="11px" height="12px" preserveAspectRatio="xMinYMin meet" x="13" y="-114.7"/>
<text text-anchor="start" x="28" y="-104.8" font-family="Helvetica,sans-Serif" font-size="11.00" fill="#000000">billing_contact_id</text>
<polygon fill="none" stroke="#000000" points="8,-75.7 8,-97.7 208,-97.7 208,-75.7 8,-75.7"/>
<image xlink:href="../../images/foreignKeys.png" width="11px" height="12px" preserveAspectRatio="xMinYMin meet" x="13" y="-92.7"/>
<text text-anchor="start" x="28" y="-82.8" font-family="Helvetica,sans-Serif" font-size="11.00" fill="#000000">opportunity_id</text>
<polygon fill="none" stroke="#000000" points="8,-56.7 8,-75.7 208,-75.7 208,-56.7 8,-56.7"/>
<text text-anchor="start" x="11" y="-62.8" font-family="Helvetica,sans-Serif" font-size="11.00" fill="#000000">...</text>
<polygon fill="#ffffff" stroke="transparent" points="8,-37.7 8,-56.7 102,-56.7 102,-37.7 8,-37.7"/>
<polygon fill="none" stroke="#000000" points="8,-37.7 8,-56.7 102,-56.7 102,-37.7 8,-37.7"/>
<text text-anchor="start" x="11" y="-43.8" font-family="Helvetica,sans-Serif" font-size="11.00" fill="#000000">&lt; 6</text>
<polygon fill="#ffffff" stroke="transparent" points="102,-37.7 102,-56.7 150,-56.7 150,-37.7 102,-37.7"/>
<polygon fill="none" stroke="#000000" points="102,-37.7 102,-56.7 150,-56.7 150,-37.7 102,-37.7"/>
<text text-anchor="start" x="140.8862" y="-43.8" font-family="Helvetica,sans-Serif" font-size="11.00" fill="#000000"> &#160;</text>
<polygon fill="#ffffff" stroke="transparent" points="150,-37.7 150,-56.7 208,-56.7 208,-37.7 150,-37.7"/>
<polygon fill="none" stroke="#000000" points="150,-37.7 150,-56.7 208,-56.7 208,-37.7 150,-37.7"/>
<text text-anchor="start" x="189.4053" y="-43.8" font-family="Helvetica,sans-Serif" font-size="11.00" fill="#000000">7 &gt;</text>
</a>
</g>
</g>
<!-- aos_line_item_groups&#45;&gt;aos_quotes -->
<g id="edge3" class="edge">
<title>aos_line_item_groups:w&#45;&gt;aos_quotes:e</title>
<path fill="none" stroke="#000000" d="M245.6347,-264.0857C230.6579,-251.7078 233.9203,-218.7 208,-218.7"/>
<polygon fill="#000000" stroke="#000000" points="251.9093,-266.1738 258.3632,-272.1158 255.7046,-267.4369 259.5,-268.7 259.5,-268.7 259.5,-268.7 255.7046,-267.4369 260.6368,-265.2842 251.9093,-266.1738 251.9093,-266.1738"/>
<ellipse fill="none" stroke="#000000" cx="248.873" cy="-265.1634" rx="3.2" ry="3.2"/>
</g>
<!-- aos_products_quotes -->
<g id="node5" class="node">
<title>aos_products_quotes</title>
<g id="a_node5"><a xlink:href="../../tables/aos_products_quotes.html" xlink:title="aos_products_quotes" target="_top">
<polygon fill="#ffffff" stroke="transparent" points="581,-712.2 581,-971.2 811,-971.2 811,-712.2 581,-712.2"/>
<polygon fill="#f5f5f5" stroke="transparent" points="581,-947.7 581,-970.7 811,-970.7 811,-947.7 581,-947.7"/>
<polygon fill="none" stroke="#000000" points="581,-947.7 581,-970.7 811,-970.7 811,-947.7 581,-947.7"/>
<text text-anchor="start" x="586" y="-956.3" font-family="Helvetica,sans-Serif" font-weight="bold" font-size="11.00" fill="#000000">aos_products_quotes</text>
<text text-anchor="start" x="776.0437" y="-955.8" font-family="Helvetica,sans-Serif" font-size="11.00" fill="#000000">[table]</text>
<polygon fill="none" stroke="#000000" points="581,-925.7 581,-947.7 811,-947.7 811,-925.7 581,-925.7"/>
<image xlink:href="../../images/primaryKeys.png" width="11px" height="12px" preserveAspectRatio="xMinYMin meet" x="586" y="-942.7"/>
<text text-anchor="start" x="601" y="-932.8" font-family="Helvetica,sans-Serif" font-size="11.00" fill="#000000">id</text>
<polygon fill="#c0c0c0" stroke="transparent" points="581,-903.7 581,-925.7 811,-925.7 811,-903.7 581,-903.7"/>
<polygon fill="none" stroke="#000000" points="581,-903.7 581,-925.7 811,-925.7 811,-903.7 581,-903.7"/>
<image xlink:href="../../images/foreignKeys.png" width="11px" height="12px" preserveAspectRatio="xMinYMin meet" x="586" y="-920.7"/>
<text text-anchor="start" x="601" y="-910.8" font-family="Helvetica,sans-Serif" font-size="11.00" fill="#000000">modified_user_id</text>
<polygon fill="#c0c0c0" stroke="transparent" points="581,-881.7 581,-903.7 811,-903.7 811,-881.7 581,-881.7"/>
<polygon fill="none" stroke="#000000" points="581,-881.7 581,-903.7 811,-903.7 811,-881.7 581,-881.7"/>
<image xlink:href="../../images/foreignKeys.png" width="11px" height="12px" preserveAspectRatio="xMinYMin meet" x="586" y="-898.7"/>
<text text-anchor="start" x="601" y="-888.8" font-family="Helvetica,sans-Serif" font-size="11.00" fill="#000000">created_by</text>
<polygon fill="#ffffff" stroke="transparent" points="581,-859.7 581,-881.7 811,-881.7 811,-859.7 581,-859.7"/>
<polygon fill="none" stroke="#000000" points="581,-859.7 581,-881.7 811,-881.7 811,-859.7 581,-859.7"/>
<text text-anchor="start" x="601" y="-866.8" font-family="Helvetica,sans-Serif" font-size="11.00" fill="#000000">deleted</text>
<polygon fill="#c0c0c0" stroke="transparent" points="581,-837.7 581,-859.7 811,-859.7 811,-837.7 581,-837.7"/>
<polygon fill="none" stroke="#000000" points="581,-837.7 581,-859.7 811,-859.7 811,-837.7 581,-837.7"/>
<image xlink:href="../../images/foreignKeys.png" width="11px" height="12px" preserveAspectRatio="xMinYMin meet" x="586" y="-854.7"/>
<text text-anchor="start" x="601" y="-844.8" font-family="Helvetica,sans-Serif" font-size="11.00" fill="#000000">assigned_user_id</text>
<polygon fill="#ffffff" stroke="transparent" points="581,-815.7 581,-837.7 811,-837.7 811,-815.7 581,-815.7"/>
<polygon fill="none" stroke="#000000" points="581,-815.7 581,-837.7 811,-837.7 811,-815.7 581,-815.7"/>
<text text-anchor="start" x="601" y="-822.8" font-family="Helvetica,sans-Serif" font-size="11.00" fill="#000000">parent_type</text>
<polygon fill="#ffffff" stroke="transparent" points="581,-793.7 581,-815.7 811,-815.7 811,-793.7 581,-793.7"/>
<polygon fill="none" stroke="#000000" points="581,-793.7 581,-815.7 811,-815.7 811,-793.7 581,-793.7"/>
<image xlink:href="../../images/foreignKeys.png" width="11px" height="12px" preserveAspectRatio="xMinYMin meet" x="586" y="-810.7"/>
<text text-anchor="start" x="601" y="-800.8" font-family="Helvetica,sans-Serif" font-size="11.00" fill="#000000">parent_id</text>
<polygon fill="none" stroke="#000000" points="581,-771.7 581,-793.7 811,-793.7 811,-771.7 581,-771.7"/>
<image xlink:href="../../images/foreignKeys.png" width="11px" height="12px" preserveAspectRatio="xMinYMin meet" x="586" y="-788.7"/>
<text text-anchor="start" x="601" y="-778.8" font-family="Helvetica,sans-Serif" font-size="11.00" fill="#000000">product_id</text>
<polygon fill="none" stroke="#000000" points="581,-749.7 581,-771.7 811,-771.7 811,-749.7 581,-749.7"/>
<image xlink:href="../../images/foreignKeys.png" width="11px" height="12px" preserveAspectRatio="xMinYMin meet" x="586" y="-766.7"/>
<text text-anchor="start" x="601" y="-756.8" font-family="Helvetica,sans-Serif" font-size="11.00" fill="#000000">group_id</text>
<polygon fill="none" stroke="#000000" points="581,-730.7 581,-749.7 811,-749.7 811,-730.7 581,-730.7"/>
<text text-anchor="start" x="584" y="-736.8" font-family="Helvetica,sans-Serif" font-size="11.00" fill="#000000">...</text>
<polygon fill="#ffffff" stroke="transparent" points="581,-711.7 581,-730.7 690,-730.7 690,-711.7 581,-711.7"/>
<polygon fill="none" stroke="#000000" points="581,-711.7 581,-730.7 690,-730.7 690,-711.7 581,-711.7"/>
<text text-anchor="start" x="584" y="-717.8" font-family="Helvetica,sans-Serif" font-size="11.00" fill="#000000">&lt; 8</text>
<polygon fill="#ffffff" stroke="transparent" points="690,-711.7 690,-730.7 746,-730.7 746,-711.7 690,-711.7"/>
<polygon fill="none" stroke="#000000" points="690,-711.7 690,-730.7 746,-730.7 746,-711.7 690,-711.7"/>
<text text-anchor="start" x="736.8862" y="-717.8" font-family="Helvetica,sans-Serif" font-size="11.00" fill="#000000"> &#160;</text>
<polygon fill="#ffffff" stroke="transparent" points="746,-711.7 746,-730.7 811,-730.7 811,-711.7 746,-711.7"/>
<polygon fill="none" stroke="#000000" points="746,-711.7 746,-730.7 811,-730.7 811,-711.7 746,-711.7"/>
<text text-anchor="start" x="792.4053" y="-717.8" font-family="Helvetica,sans-Serif" font-size="11.00" fill="#000000">1 &gt;</text>
</a>
</g>
</g>
<!-- aos_products_quotes&#45;&gt;aos_line_item_groups -->
<g id="edge4" class="edge">
<title>aos_products_quotes:w&#45;&gt;aos_line_item_groups:e</title>
<path fill="none" stroke="#000000" d="M566.3425,-759.379C554.4964,-757.1067 547.3657,-752.7 530.5,-752.7"/>
<polygon fill="#000000" stroke="#000000" points="573.0323,-759.9818 580.6768,-764.2855 577.0161,-760.3409 581,-760.7 581,-760.7 581,-760.7 577.0161,-760.3409 581.3232,-757.1145 573.0323,-759.9818 573.0323,-759.9818"/>
<ellipse fill="none" stroke="#000000" cx="569.8452" cy="-759.6946" rx="3.2" ry="3.2"/>
</g>
<!-- aos_products_quotes&#45;&gt;aos_contracts -->
<g id="edge5" class="edge">
<title>aos_products_quotes:w&#45;&gt;aos_contracts:e</title>
<path fill="none" stroke="#000000" d="M566.8779,-807.9033C558.4529,-812.266 553.5424,-819.8582 540,-822.7 413.4236,-849.2615 363.4629,-882.911 249,-822.7 218.4506,-806.6301 239.5182,-758.7 205,-758.7"/>
<polygon fill="#000000" stroke="#000000" points="573.1982,-806.4697 581.7964,-808.2108 577.0991,-805.5849 581,-804.7 581,-804.7 581,-804.7 577.0991,-805.5849 580.2036,-801.1892 573.1982,-806.4697 573.1982,-806.4697"/>
<ellipse fill="none" stroke="#000000" cx="570.0775" cy="-807.1776" rx="3.2" ry="3.2"/>
</g>
<!-- aos_products_quotes&#45;&gt;aos_invoices -->
<g id="edge6" class="edge">
<title>aos_products_quotes:w&#45;&gt;aos_invoices:e</title>
<path fill="none" stroke="#000000" d="M566.496,-805.1396C483.546,-809.6139 300.8677,-845.7956 249,-799.7 197.5529,-753.9782 276.8279,-492.7 208,-492.7"/>
<polygon fill="#000000" stroke="#000000" points="573.0037,-804.9424 581.1091,-808.2983 577.0018,-804.8212 581,-804.7 581,-804.7 581,-804.7 577.0018,-804.8212 580.8909,-801.1017 573.0037,-804.9424 573.0037,-804.9424"/>
<ellipse fill="none" stroke="#000000" cx="569.8051" cy="-805.0394" rx="3.2" ry="3.2"/>
</g>
<!-- aos_products_quotes&#45;&gt;aos_quotes -->
<g id="edge7" class="edge">
<title>aos_products_quotes:w&#45;&gt;aos_quotes:e</title>
<path fill="none" stroke="#000000" d="M568.7647,-796.9835C521.8244,-728.4749 587.1768,-225.8741 540,-181.7 445.5925,-93.3013 369.717,-135.2833 249,-181.7 226.09,-190.5091 232.5452,-218.7 208,-218.7"/>
<polygon fill="#000000" stroke="#000000" points="574.2333,-800.4324 579.0796,-807.745 577.6167,-802.5662 581,-804.7 581,-804.7 581,-804.7 577.6167,-802.5662 582.9204,-801.655 574.2333,-800.4324 574.2333,-800.4324"/>
<ellipse fill="none" stroke="#000000" cx="571.5267" cy="-798.7253" rx="3.2" ry="3.2"/>
</g>
</g>
</svg>
