<?xml version="1.0" encoding="UTF-8" standalone="no"?>
<!DOCTYPE svg PUBLIC "-//W3C//DTD SVG 1.1//EN"
 "http://www.w3.org/Graphics/SVG/1.1/DTD/svg11.dtd">
<!-- Generated by graphviz version 2.40.1 (20161225.0304)
 -->
<!-- Title: oneDegreeRelationshipsDiagram Pages: 1 -->
<svg width="484pt" height="501pt"
 viewBox="0.00 0.00 484.00 501.20" xmlns="http://www.w3.org/2000/svg" xmlns:xlink="http://www.w3.org/1999/xlink">
<g id="graph0" class="graph" transform="scale(1 1) rotate(0) translate(4 497.2)">
<title>oneDegreeRelationshipsDiagram</title>
<polygon fill="#ffffff" stroke="transparent" points="-4,4 -4,-497.2 480,-497.2 480,4 -4,4"/>
<text text-anchor="middle" x="72.4936" y="-7.3" font-family="Helvetica,sans-Serif" font-size="11.00" fill="#000000">Generated by SchemaSpy</text>
<!-- documents_accounts -->
<g id="node1" class="node">
<title>documents_accounts</title>
<g id="a_node1"><a xlink:href="../../tables/documents_accounts.html" xlink:title="documents_accounts" target="_top">
<polygon fill="#ffffff" stroke="transparent" points="252,-304.7 252,-460.7 468,-460.7 468,-304.7 252,-304.7"/>
<polygon fill="#f5f5f5" stroke="transparent" points="254,-435.7 254,-458.7 466,-458.7 466,-435.7 254,-435.7"/>
<polygon fill="none" stroke="#000000" points="254,-435.7 254,-458.7 466,-458.7 466,-435.7 254,-435.7"/>
<text text-anchor="start" x="259" y="-444.3" font-family="Helvetica,sans-Serif" font-weight="bold" font-size="11.00" fill="#000000">documents_accounts</text>
<text text-anchor="start" x="431.0437" y="-443.8" font-family="Helvetica,sans-Serif" font-size="11.00" fill="#000000">[table]</text>
<polygon fill="none" stroke="#000000" points="254,-413.7 254,-435.7 400,-435.7 400,-413.7 254,-413.7"/>
<image xlink:href="../../images/primaryKeys.png" width="11px" height="12px" preserveAspectRatio="xMinYMin meet" x="259" y="-430.7"/>
<text text-anchor="start" x="274" y="-420.8" font-family="Helvetica,sans-Serif" font-size="11.00" fill="#000000">id</text>
<polygon fill="none" stroke="#000000" points="400,-413.7 400,-435.7 466,-435.7 466,-413.7 400,-413.7"/>
<text text-anchor="start" x="403" y="-421.4" font-family="Helvetica,sans-Serif" font-size="11.00" fill="#000000">varchar[36]</text>
<polygon fill="none" stroke="#000000" points="254,-391.7 254,-413.7 400,-413.7 400,-391.7 254,-391.7"/>
<text text-anchor="start" x="274" y="-398.8" font-family="Helvetica,sans-Serif" font-size="11.00" fill="#000000">date_modified</text>
<polygon fill="none" stroke="#000000" points="400,-391.7 400,-413.7 466,-413.7 466,-391.7 400,-391.7"/>
<text text-anchor="start" x="402.7401" y="-399.4" font-family="Helvetica,sans-Serif" font-size="11.00" fill="#000000">datetime[19]</text>
<polygon fill="none" stroke="#000000" points="254,-369.7 254,-391.7 400,-391.7 400,-369.7 254,-369.7"/>
<text text-anchor="start" x="274" y="-376.8" font-family="Helvetica,sans-Serif" font-size="11.00" fill="#000000">deleted</text>
<polygon fill="none" stroke="#000000" points="400,-369.7 400,-391.7 466,-391.7 466,-369.7 400,-369.7"/>
<text text-anchor="start" x="403" y="-377.4" font-family="Helvetica,sans-Serif" font-size="11.00" fill="#000000">boolean[3]</text>
<polygon fill="#ffffff" stroke="transparent" points="254,-347.7 254,-369.7 400,-369.7 400,-347.7 254,-347.7"/>
<polygon fill="none" stroke="#000000" points="254,-347.7 254,-369.7 400,-369.7 400,-347.7 254,-347.7"/>
<image xlink:href="../../images/foreignKeys.png" width="11px" height="12px" preserveAspectRatio="xMinYMin meet" x="259" y="-364.7"/>
<text text-anchor="start" x="274" y="-354.8" font-family="Helvetica,sans-Serif" font-size="11.00" fill="#000000">document_id</text>
<polygon fill="none" stroke="#000000" points="400,-347.7 400,-369.7 466,-369.7 466,-347.7 400,-347.7"/>
<text text-anchor="start" x="403" y="-355.4" font-family="Helvetica,sans-Serif" font-size="11.00" fill="#000000">varchar[36]</text>
<polygon fill="#ffffff" stroke="transparent" points="254,-325.7 254,-347.7 400,-347.7 400,-325.7 254,-325.7"/>
<polygon fill="none" stroke="#000000" points="254,-325.7 254,-347.7 400,-347.7 400,-325.7 254,-325.7"/>
<image xlink:href="../../images/foreignKeys.png" width="11px" height="12px" preserveAspectRatio="xMinYMin meet" x="259" y="-342.7"/>
<text text-anchor="start" x="274" y="-332.8" font-family="Helvetica,sans-Serif" font-size="11.00" fill="#000000">account_id</text>
<polygon fill="none" stroke="#000000" points="400,-325.7 400,-347.7 466,-347.7 466,-325.7 400,-325.7"/>
<text text-anchor="start" x="403" y="-333.4" font-family="Helvetica,sans-Serif" font-size="11.00" fill="#000000">varchar[36]</text>
<polygon fill="#ffffff" stroke="transparent" points="254,-306.7 254,-325.7 331,-325.7 331,-306.7 254,-306.7"/>
<polygon fill="none" stroke="#000000" points="254,-306.7 254,-325.7 331,-325.7 331,-306.7 254,-306.7"/>
<text text-anchor="start" x="257" y="-312.8" font-family="Helvetica,sans-Serif" font-size="11.00" fill="#000000">&lt; 2</text>
<polygon fill="#ffffff" stroke="transparent" points="331,-306.7 331,-325.7 400,-325.7 400,-306.7 331,-306.7"/>
<polygon fill="none" stroke="#000000" points="331,-306.7 331,-325.7 400,-325.7 400,-306.7 331,-306.7"/>
<text text-anchor="start" x="390.8862" y="-312.8" font-family="Helvetica,sans-Serif" font-size="11.00" fill="#000000"> &#160;</text>
<polygon fill="#ffffff" stroke="transparent" points="400,-306.7 400,-325.7 466,-325.7 466,-306.7 400,-306.7"/>
<polygon fill="none" stroke="#000000" points="400,-306.7 400,-325.7 466,-325.7 466,-306.7 400,-306.7"/>
<text text-anchor="start" x="447.4053" y="-312.8" font-family="Helvetica,sans-Serif" font-size="11.00" fill="#000000">0 &gt;</text>
<polygon fill="none" stroke="#000000" stroke-width="2" points="253,-305.7 253,-459.7 467,-459.7 467,-305.7 253,-305.7"/>
</a>
</g>
</g>
<!-- accounts -->
<g id="node2" class="node">
<title>accounts</title>
<g id="a_node2"><a xlink:href="../../tables/accounts.html" xlink:title="accounts" target="_top">
<polygon fill="#ffffff" stroke="transparent" points="8,-38.2 8,-275.2 203,-275.2 203,-38.2 8,-38.2"/>
<polygon fill="#f5f5f5" stroke="transparent" points="8.5,-251.7 8.5,-274.7 203.5,-274.7 203.5,-251.7 8.5,-251.7"/>
<polygon fill="none" stroke="#000000" points="8.5,-251.7 8.5,-274.7 203.5,-274.7 203.5,-251.7 8.5,-251.7"/>
<text text-anchor="start" x="13.5" y="-260.3" font-family="Helvetica,sans-Serif" font-weight="bold" font-size="11.00" fill="#000000">accounts</text>
<text text-anchor="start" x="168.5437" y="-259.8" font-family="Helvetica,sans-Serif" font-size="11.00" fill="#000000">[table]</text>
<polygon fill="none" stroke="#000000" points="8.5,-229.7 8.5,-251.7 203.5,-251.7 203.5,-229.7 8.5,-229.7"/>
<image xlink:href="../../images/primaryKeys.png" width="11px" height="12px" preserveAspectRatio="xMinYMin meet" x="13.5" y="-246.7"/>
<text text-anchor="start" x="28.5" y="-236.8" font-family="Helvetica,sans-Serif" font-size="11.00" fill="#000000">id</text>
<polygon fill="#ffffff" stroke="transparent" points="8.5,-207.7 8.5,-229.7 203.5,-229.7 203.5,-207.7 8.5,-207.7"/>
<polygon fill="none" stroke="#000000" points="8.5,-207.7 8.5,-229.7 203.5,-229.7 203.5,-207.7 8.5,-207.7"/>
<text text-anchor="start" x="28.5" y="-214.8" font-family="Helvetica,sans-Serif" font-size="11.00" fill="#000000">name</text>
<polygon fill="#c0c0c0" stroke="transparent" points="8.5,-185.7 8.5,-207.7 203.5,-207.7 203.5,-185.7 8.5,-185.7"/>
<polygon fill="none" stroke="#000000" points="8.5,-185.7 8.5,-207.7 203.5,-207.7 203.5,-185.7 8.5,-185.7"/>
<image xlink:href="../../images/foreignKeys.png" width="11px" height="12px" preserveAspectRatio="xMinYMin meet" x="13.5" y="-202.7"/>
<text text-anchor="start" x="28.5" y="-192.8" font-family="Helvetica,sans-Serif" font-size="11.00" fill="#000000">modified_user_id</text>
<polygon fill="#c0c0c0" stroke="transparent" points="8.5,-163.7 8.5,-185.7 203.5,-185.7 203.5,-163.7 8.5,-163.7"/>
<polygon fill="none" stroke="#000000" points="8.5,-163.7 8.5,-185.7 203.5,-185.7 203.5,-163.7 8.5,-163.7"/>
<image xlink:href="../../images/foreignKeys.png" width="11px" height="12px" preserveAspectRatio="xMinYMin meet" x="13.5" y="-180.7"/>
<text text-anchor="start" x="28.5" y="-170.8" font-family="Helvetica,sans-Serif" font-size="11.00" fill="#000000">created_by</text>
<polygon fill="#ffffff" stroke="transparent" points="8.5,-141.7 8.5,-163.7 203.5,-163.7 203.5,-141.7 8.5,-141.7"/>
<polygon fill="none" stroke="#000000" points="8.5,-141.7 8.5,-163.7 203.5,-163.7 203.5,-141.7 8.5,-141.7"/>
<text text-anchor="start" x="28.5" y="-148.8" font-family="Helvetica,sans-Serif" font-size="11.00" fill="#000000">deleted</text>
<polygon fill="#c0c0c0" stroke="transparent" points="8.5,-119.7 8.5,-141.7 203.5,-141.7 203.5,-119.7 8.5,-119.7"/>
<polygon fill="none" stroke="#000000" points="8.5,-119.7 8.5,-141.7 203.5,-141.7 203.5,-119.7 8.5,-119.7"/>
<image xlink:href="../../images/foreignKeys.png" width="11px" height="12px" preserveAspectRatio="xMinYMin meet" x="13.5" y="-136.7"/>
<text text-anchor="start" x="28.5" y="-126.8" font-family="Helvetica,sans-Serif" font-size="11.00" fill="#000000">assigned_user_id</text>
<polygon fill="#ffffff" stroke="transparent" points="8.5,-97.7 8.5,-119.7 203.5,-119.7 203.5,-97.7 8.5,-97.7"/>
<polygon fill="none" stroke="#000000" points="8.5,-97.7 8.5,-119.7 203.5,-119.7 203.5,-97.7 8.5,-97.7"/>
<image xlink:href="../../images/foreignKeys.png" width="11px" height="12px" preserveAspectRatio="xMinYMin meet" x="13.5" y="-114.7"/>
<text text-anchor="start" x="28.5" y="-104.8" font-family="Helvetica,sans-Serif" font-size="11.00" fill="#000000">parent_id</text>
<polygon fill="none" stroke="#000000" points="8.5,-75.7 8.5,-97.7 203.5,-97.7 203.5,-75.7 8.5,-75.7"/>
<image xlink:href="../../images/foreignKeys.png" width="11px" height="12px" preserveAspectRatio="xMinYMin meet" x="13.5" y="-92.7"/>
<text text-anchor="start" x="28.5" y="-82.8" font-family="Helvetica,sans-Serif" font-size="11.00" fill="#000000">campaign_id</text>
<polygon fill="none" stroke="#000000" points="8.5,-56.7 8.5,-75.7 203.5,-75.7 203.5,-56.7 8.5,-56.7"/>
<text text-anchor="start" x="11.5" y="-62.8" font-family="Helvetica,sans-Serif" font-size="11.00" fill="#000000">...</text>
<polygon fill="#ffffff" stroke="transparent" points="8.5,-37.7 8.5,-56.7 96.5,-56.7 96.5,-37.7 8.5,-37.7"/>
<polygon fill="none" stroke="#000000" points="8.5,-37.7 8.5,-56.7 96.5,-56.7 96.5,-37.7 8.5,-37.7"/>
<text text-anchor="start" x="11.5" y="-43.8" font-family="Helvetica,sans-Serif" font-size="11.00" fill="#000000">&lt; 6</text>
<polygon fill="#ffffff" stroke="transparent" points="96.5,-37.7 96.5,-56.7 142.5,-56.7 142.5,-37.7 96.5,-37.7"/>
<polygon fill="none" stroke="#000000" points="96.5,-37.7 96.5,-56.7 142.5,-56.7 142.5,-37.7 96.5,-37.7"/>
<text text-anchor="start" x="133.3862" y="-43.8" font-family="Helvetica,sans-Serif" font-size="11.00" fill="#000000"> &#160;</text>
<polygon fill="#ffffff" stroke="transparent" points="142.5,-37.7 142.5,-56.7 203.5,-56.7 203.5,-37.7 142.5,-37.7"/>
<polygon fill="none" stroke="#000000" points="142.5,-37.7 142.5,-56.7 203.5,-56.7 203.5,-37.7 142.5,-37.7"/>
<text text-anchor="start" x="178.7904" y="-43.8" font-family="Helvetica,sans-Serif" font-size="11.00" fill="#000000">24 &gt;</text>
</a>
</g>
</g>
<!-- documents_accounts&#45;&gt;accounts -->
<g id="edge1" class="edge">
<title>documents_accounts:w&#45;&gt;accounts:e</title>
<path fill="none" stroke="#000000" d="M239.9659,-332.575C215.7993,-314.2 245.6837,-240.7 203.5,-240.7"/>
<polygon fill="#000000" stroke="#000000" points="246.3247,-334.444 252.9848,-340.1539 250.1623,-335.572 254,-336.7 254,-336.7 254,-336.7 250.1623,-335.572 255.0152,-333.2461 246.3247,-334.444 246.3247,-334.444"/>
<ellipse fill="none" stroke="#000000" cx="243.2545" cy="-333.5416" rx="3.2" ry="3.2"/>
</g>
<!-- documents -->
<g id="node3" class="node">
<title>documents</title>
<g id="a_node3"><a xlink:href="../../tables/documents.html" xlink:title="documents" target="_top">
<polygon fill="#ffffff" stroke="transparent" points="30.5,-296.2 30.5,-489.2 180.5,-489.2 180.5,-296.2 30.5,-296.2"/>
<polygon fill="#f5f5f5" stroke="transparent" points="30.5,-465.7 30.5,-488.7 180.5,-488.7 180.5,-465.7 30.5,-465.7"/>
<polygon fill="none" stroke="#000000" points="30.5,-465.7 30.5,-488.7 180.5,-488.7 180.5,-465.7 30.5,-465.7"/>
<text text-anchor="start" x="35.5" y="-474.3" font-family="Helvetica,sans-Serif" font-weight="bold" font-size="11.00" fill="#000000">documents</text>
<text text-anchor="start" x="145.5437" y="-473.8" font-family="Helvetica,sans-Serif" font-size="11.00" fill="#000000">[table]</text>
<polygon fill="none" stroke="#000000" points="30.5,-443.7 30.5,-465.7 180.5,-465.7 180.5,-443.7 30.5,-443.7"/>
<image xlink:href="../../images/primaryKeys.png" width="11px" height="12px" preserveAspectRatio="xMinYMin meet" x="35.5" y="-460.7"/>
<text text-anchor="start" x="50.5" y="-450.8" font-family="Helvetica,sans-Serif" font-size="11.00" fill="#000000">id</text>
<polygon fill="#c0c0c0" stroke="transparent" points="30.5,-421.7 30.5,-443.7 180.5,-443.7 180.5,-421.7 30.5,-421.7"/>
<polygon fill="none" stroke="#000000" points="30.5,-421.7 30.5,-443.7 180.5,-443.7 180.5,-421.7 30.5,-421.7"/>
<image xlink:href="../../images/foreignKeys.png" width="11px" height="12px" preserveAspectRatio="xMinYMin meet" x="35.5" y="-438.7"/>
<text text-anchor="start" x="50.5" y="-428.8" font-family="Helvetica,sans-Serif" font-size="11.00" fill="#000000">modified_user_id</text>
<polygon fill="#c0c0c0" stroke="transparent" points="30.5,-399.7 30.5,-421.7 180.5,-421.7 180.5,-399.7 30.5,-399.7"/>
<polygon fill="none" stroke="#000000" points="30.5,-399.7 30.5,-421.7 180.5,-421.7 180.5,-399.7 30.5,-399.7"/>
<image xlink:href="../../images/foreignKeys.png" width="11px" height="12px" preserveAspectRatio="xMinYMin meet" x="35.5" y="-416.7"/>
<text text-anchor="start" x="50.5" y="-406.8" font-family="Helvetica,sans-Serif" font-size="11.00" fill="#000000">created_by</text>
<polygon fill="#c0c0c0" stroke="transparent" points="30.5,-377.7 30.5,-399.7 180.5,-399.7 180.5,-377.7 30.5,-377.7"/>
<polygon fill="none" stroke="#000000" points="30.5,-377.7 30.5,-399.7 180.5,-399.7 180.5,-377.7 30.5,-377.7"/>
<image xlink:href="../../images/foreignKeys.png" width="11px" height="12px" preserveAspectRatio="xMinYMin meet" x="35.5" y="-394.7"/>
<text text-anchor="start" x="50.5" y="-384.8" font-family="Helvetica,sans-Serif" font-size="11.00" fill="#000000">assigned_user_id</text>
<polygon fill="#ffffff" stroke="transparent" points="30.5,-355.7 30.5,-377.7 180.5,-377.7 180.5,-355.7 30.5,-355.7"/>
<polygon fill="none" stroke="#000000" points="30.5,-355.7 30.5,-377.7 180.5,-377.7 180.5,-355.7 30.5,-355.7"/>
<text text-anchor="start" x="50.5" y="-362.8" font-family="Helvetica,sans-Serif" font-size="11.00" fill="#000000">category_id</text>
<polygon fill="#ffffff" stroke="transparent" points="30.5,-333.7 30.5,-355.7 180.5,-355.7 180.5,-333.7 30.5,-333.7"/>
<polygon fill="none" stroke="#000000" points="30.5,-333.7 30.5,-355.7 180.5,-355.7 180.5,-333.7 30.5,-333.7"/>
<text text-anchor="start" x="50.5" y="-340.8" font-family="Helvetica,sans-Serif" font-size="11.00" fill="#000000">subcategory_id</text>
<polygon fill="none" stroke="#000000" points="30.5,-314.7 30.5,-333.7 180.5,-333.7 180.5,-314.7 30.5,-314.7"/>
<text text-anchor="start" x="33.5" y="-320.8" font-family="Helvetica,sans-Serif" font-size="11.00" fill="#000000">...</text>
<polygon fill="#ffffff" stroke="transparent" points="30.5,-295.7 30.5,-314.7 99.5,-314.7 99.5,-295.7 30.5,-295.7"/>
<polygon fill="none" stroke="#000000" points="30.5,-295.7 30.5,-314.7 99.5,-314.7 99.5,-295.7 30.5,-295.7"/>
<text text-anchor="start" x="33.5" y="-301.8" font-family="Helvetica,sans-Serif" font-size="11.00" fill="#000000">&lt; 3</text>
<polygon fill="#ffffff" stroke="transparent" points="99.5,-295.7 99.5,-314.7 135.5,-314.7 135.5,-295.7 99.5,-295.7"/>
<polygon fill="none" stroke="#000000" points="99.5,-295.7 99.5,-314.7 135.5,-314.7 135.5,-295.7 99.5,-295.7"/>
<text text-anchor="start" x="126.3862" y="-301.8" font-family="Helvetica,sans-Serif" font-size="11.00" fill="#000000"> &#160;</text>
<polygon fill="#ffffff" stroke="transparent" points="135.5,-295.7 135.5,-314.7 180.5,-314.7 180.5,-295.7 135.5,-295.7"/>
<polygon fill="none" stroke="#000000" points="135.5,-295.7 135.5,-314.7 180.5,-314.7 180.5,-295.7 135.5,-295.7"/>
<text text-anchor="start" x="161.9053" y="-301.8" font-family="Helvetica,sans-Serif" font-size="11.00" fill="#000000">9 &gt;</text>
</a>
</g>
</g>
<!-- documents_accounts&#45;&gt;documents -->
<g id="edge2" class="edge">
<title>documents_accounts:w&#45;&gt;documents:e</title>
<path fill="none" stroke="#000000" d="M239.7187,-361.6784C206.4543,-377.8821 228.5685,-454.7 180.5,-454.7"/>
<polygon fill="#000000" stroke="#000000" points="246.1685,-360.3333 254.735,-362.2242 250.0842,-359.5167 254,-358.7 254,-358.7 254,-358.7 250.0842,-359.5167 253.265,-355.1758 246.1685,-360.3333 246.1685,-360.3333"/>
<ellipse fill="none" stroke="#000000" cx="243.0359" cy="-360.9866" rx="3.2" ry="3.2"/>
</g>
</g>
</svg>
