<?xml version="1.0" encoding="UTF-8" standalone="no"?>
<!DOCTYPE svg PUBLIC "-//W3C//DTD SVG 1.1//EN"
 "http://www.w3.org/Graphics/SVG/1.1/DTD/svg11.dtd">
<!-- Generated by graphviz version 2.40.1 (20161225.0304)
 -->
<!-- Title: twoDegreesRelationshipsDiagram Pages: 1 -->
<svg width="554pt" height="1061pt"
 viewBox="0.00 0.00 554.00 1061.20" xmlns="http://www.w3.org/2000/svg" xmlns:xlink="http://www.w3.org/1999/xlink">
<g id="graph0" class="graph" transform="scale(1 1) rotate(0) translate(4 1057.2)">
<title>twoDegreesRelationshipsDiagram</title>
<polygon fill="#ffffff" stroke="transparent" points="-4,4 -4,-1057.2 550,-1057.2 550,4 -4,4"/>
<text text-anchor="middle" x="72.4936" y="-7.3" font-family="Helvetica,sans-Serif" font-size="11.00" fill="#000000">Generated by SchemaSpy</text>
<!-- aos_contracts_documents -->
<g id="node1" class="node">
<title>aos_contracts_documents</title>
<g id="a_node1"><a xlink:href="../../tables/aos_contracts_documents.html" xlink:title="aos_contracts_documents" target="_top">
<polygon fill="#ffffff" stroke="transparent" points="336.5,-988.2 336.5,-1049.2 528.5,-1049.2 528.5,-988.2 336.5,-988.2"/>
<polygon fill="#f5f5f5" stroke="transparent" points="336.5,-1025.7 336.5,-1048.7 528.5,-1048.7 528.5,-1025.7 336.5,-1025.7"/>
<polygon fill="none" stroke="#000000" points="336.5,-1025.7 336.5,-1048.7 528.5,-1048.7 528.5,-1025.7 336.5,-1025.7"/>
<text text-anchor="start" x="341.5" y="-1034.3" font-family="Helvetica,sans-Serif" font-weight="bold" font-size="11.00" fill="#000000">aos_contracts_documents</text>
<text text-anchor="start" x="494.0219" y="-1033.8" font-family="Helvetica,sans-Serif" font-size="11.00" fill="#000000">[table]</text>
<polygon fill="none" stroke="#000000" points="336.5,-1006.7 336.5,-1025.7 528.5,-1025.7 528.5,-1006.7 336.5,-1006.7"/>
<text text-anchor="start" x="339.5" y="-1012.8" font-family="Helvetica,sans-Serif" font-size="11.00" fill="#000000">...</text>
<polygon fill="#ffffff" stroke="transparent" points="336.5,-987.7 336.5,-1006.7 430.5,-1006.7 430.5,-987.7 336.5,-987.7"/>
<polygon fill="none" stroke="#000000" points="336.5,-987.7 336.5,-1006.7 430.5,-1006.7 430.5,-987.7 336.5,-987.7"/>
<text text-anchor="start" x="339.5" y="-993.8" font-family="Helvetica,sans-Serif" font-size="11.00" fill="#000000">&lt; 2</text>
<polygon fill="#ffffff" stroke="transparent" points="430.5,-987.7 430.5,-1006.7 479.5,-1006.7 479.5,-987.7 430.5,-987.7"/>
<polygon fill="none" stroke="#000000" points="430.5,-987.7 430.5,-1006.7 479.5,-1006.7 479.5,-987.7 430.5,-987.7"/>
<text text-anchor="start" x="470.3862" y="-993.8" font-family="Helvetica,sans-Serif" font-size="11.00" fill="#000000"> &#160;</text>
<polygon fill="#ffffff" stroke="transparent" points="479.5,-987.7 479.5,-1006.7 528.5,-1006.7 528.5,-987.7 479.5,-987.7"/>
<polygon fill="none" stroke="#000000" points="479.5,-987.7 479.5,-1006.7 528.5,-1006.7 528.5,-987.7 479.5,-987.7"/>
<text text-anchor="start" x="519.3862" y="-993.8" font-family="Helvetica,sans-Serif" font-size="11.00" fill="#000000"> &#160;</text>
</a>
</g>
</g>
<!-- documents -->
<g id="node2" class="node">
<title>documents</title>
<g id="a_node2"><a xlink:href="../../tables/documents.html" xlink:title="documents" target="_top">
<polygon fill="#ffffff" stroke="transparent" points="128,-235.2 128,-428.2 278,-428.2 278,-235.2 128,-235.2"/>
<polygon fill="#f5f5f5" stroke="transparent" points="128,-404.7 128,-427.7 278,-427.7 278,-404.7 128,-404.7"/>
<polygon fill="none" stroke="#000000" points="128,-404.7 128,-427.7 278,-427.7 278,-404.7 128,-404.7"/>
<text text-anchor="start" x="133" y="-413.3" font-family="Helvetica,sans-Serif" font-weight="bold" font-size="11.00" fill="#000000">documents</text>
<text text-anchor="start" x="243.0437" y="-412.8" font-family="Helvetica,sans-Serif" font-size="11.00" fill="#000000">[table]</text>
<polygon fill="none" stroke="#000000" points="128,-382.7 128,-404.7 278,-404.7 278,-382.7 128,-382.7"/>
<image xlink:href="../../images/primaryKeys.png" width="11px" height="12px" preserveAspectRatio="xMinYMin meet" x="133" y="-399.7"/>
<text text-anchor="start" x="148" y="-389.8" font-family="Helvetica,sans-Serif" font-size="11.00" fill="#000000">id</text>
<polygon fill="#c0c0c0" stroke="transparent" points="128,-360.7 128,-382.7 278,-382.7 278,-360.7 128,-360.7"/>
<polygon fill="none" stroke="#000000" points="128,-360.7 128,-382.7 278,-382.7 278,-360.7 128,-360.7"/>
<image xlink:href="../../images/foreignKeys.png" width="11px" height="12px" preserveAspectRatio="xMinYMin meet" x="133" y="-377.7"/>
<text text-anchor="start" x="148" y="-367.8" font-family="Helvetica,sans-Serif" font-size="11.00" fill="#000000">modified_user_id</text>
<polygon fill="#c0c0c0" stroke="transparent" points="128,-338.7 128,-360.7 278,-360.7 278,-338.7 128,-338.7"/>
<polygon fill="none" stroke="#000000" points="128,-338.7 128,-360.7 278,-360.7 278,-338.7 128,-338.7"/>
<image xlink:href="../../images/foreignKeys.png" width="11px" height="12px" preserveAspectRatio="xMinYMin meet" x="133" y="-355.7"/>
<text text-anchor="start" x="148" y="-345.8" font-family="Helvetica,sans-Serif" font-size="11.00" fill="#000000">created_by</text>
<polygon fill="#c0c0c0" stroke="transparent" points="128,-316.7 128,-338.7 278,-338.7 278,-316.7 128,-316.7"/>
<polygon fill="none" stroke="#000000" points="128,-316.7 128,-338.7 278,-338.7 278,-316.7 128,-316.7"/>
<image xlink:href="../../images/foreignKeys.png" width="11px" height="12px" preserveAspectRatio="xMinYMin meet" x="133" y="-333.7"/>
<text text-anchor="start" x="148" y="-323.8" font-family="Helvetica,sans-Serif" font-size="11.00" fill="#000000">assigned_user_id</text>
<polygon fill="#ffffff" stroke="transparent" points="128,-294.7 128,-316.7 278,-316.7 278,-294.7 128,-294.7"/>
<polygon fill="none" stroke="#000000" points="128,-294.7 128,-316.7 278,-316.7 278,-294.7 128,-294.7"/>
<text text-anchor="start" x="148" y="-301.8" font-family="Helvetica,sans-Serif" font-size="11.00" fill="#000000">category_id</text>
<polygon fill="#ffffff" stroke="transparent" points="128,-272.7 128,-294.7 278,-294.7 278,-272.7 128,-272.7"/>
<polygon fill="none" stroke="#000000" points="128,-272.7 128,-294.7 278,-294.7 278,-272.7 128,-272.7"/>
<text text-anchor="start" x="148" y="-279.8" font-family="Helvetica,sans-Serif" font-size="11.00" fill="#000000">subcategory_id</text>
<polygon fill="none" stroke="#000000" points="128,-253.7 128,-272.7 278,-272.7 278,-253.7 128,-253.7"/>
<text text-anchor="start" x="131" y="-259.8" font-family="Helvetica,sans-Serif" font-size="11.00" fill="#000000">...</text>
<polygon fill="#ffffff" stroke="transparent" points="128,-234.7 128,-253.7 197,-253.7 197,-234.7 128,-234.7"/>
<polygon fill="none" stroke="#000000" points="128,-234.7 128,-253.7 197,-253.7 197,-234.7 128,-234.7"/>
<text text-anchor="start" x="131" y="-240.8" font-family="Helvetica,sans-Serif" font-size="11.00" fill="#000000">&lt; 3</text>
<polygon fill="#ffffff" stroke="transparent" points="197,-234.7 197,-253.7 233,-253.7 233,-234.7 197,-234.7"/>
<polygon fill="none" stroke="#000000" points="197,-234.7 197,-253.7 233,-253.7 233,-234.7 197,-234.7"/>
<text text-anchor="start" x="223.8862" y="-240.8" font-family="Helvetica,sans-Serif" font-size="11.00" fill="#000000"> &#160;</text>
<polygon fill="#ffffff" stroke="transparent" points="233,-234.7 233,-253.7 278,-253.7 278,-234.7 233,-234.7"/>
<polygon fill="none" stroke="#000000" points="233,-234.7 233,-253.7 278,-253.7 278,-234.7 233,-234.7"/>
<text text-anchor="start" x="259.4053" y="-240.8" font-family="Helvetica,sans-Serif" font-size="11.00" fill="#000000">9 &gt;</text>
</a>
</g>
</g>
<!-- aos_contracts_documents&#45;&gt;documents -->
<g id="edge1" class="edge">
<title>aos_contracts_documents:w&#45;&gt;documents:e</title>
<path fill="none" stroke="#000000" d="M324.2679,-1007.3776C277.367,-933.5675 342.6709,-393.7 278,-393.7"/>
<polygon fill="#000000" stroke="#000000" points="329.8857,-1011.1998 334.4749,-1018.6764 333.1929,-1013.4499 336.5,-1015.7 336.5,-1015.7 336.5,-1015.7 333.1929,-1013.4499 338.5251,-1012.7236 329.8857,-1011.1998 329.8857,-1011.1998"/>
<ellipse fill="none" stroke="#000000" cx="327.24" cy="-1009.3997" rx="3.2" ry="3.2"/>
</g>
<!-- users -->
<g id="node4" class="node">
<title>users</title>
<g id="a_node4"><a xlink:href="../../tables/users.html" xlink:title="users" target="_top">
<polygon fill="#ffffff" stroke="transparent" points="8,-322.2 8,-383.2 79,-383.2 79,-322.2 8,-322.2"/>
<polygon fill="#f5f5f5" stroke="transparent" points="8.5,-359.7 8.5,-382.7 79.5,-382.7 79.5,-359.7 8.5,-359.7"/>
<polygon fill="none" stroke="#000000" points="8.5,-359.7 8.5,-382.7 79.5,-382.7 79.5,-359.7 8.5,-359.7"/>
<text text-anchor="start" x="13.5" y="-368.3" font-family="Helvetica,sans-Serif" font-weight="bold" font-size="11.00" fill="#000000">users</text>
<text text-anchor="start" x="45.0219" y="-367.8" font-family="Helvetica,sans-Serif" font-size="11.00" fill="#000000">[table]</text>
<polygon fill="none" stroke="#000000" points="8.5,-340.7 8.5,-359.7 79.5,-359.7 79.5,-340.7 8.5,-340.7"/>
<text text-anchor="start" x="11.5" y="-346.8" font-family="Helvetica,sans-Serif" font-size="11.00" fill="#000000">...</text>
<polygon fill="#ffffff" stroke="transparent" points="8.5,-321.7 8.5,-340.7 31.5,-340.7 31.5,-321.7 8.5,-321.7"/>
<polygon fill="none" stroke="#000000" points="8.5,-321.7 8.5,-340.7 31.5,-340.7 31.5,-321.7 8.5,-321.7"/>
<text text-anchor="start" x="11.5" y="-327.8" font-family="Helvetica,sans-Serif" font-size="11.00" fill="#000000">&lt; 2</text>
<polygon fill="#ffffff" stroke="transparent" points="31.5,-321.7 31.5,-340.7 44.5,-340.7 44.5,-321.7 31.5,-321.7"/>
<polygon fill="none" stroke="#000000" points="31.5,-321.7 31.5,-340.7 44.5,-340.7 44.5,-321.7 31.5,-321.7"/>
<text text-anchor="start" x="35.3862" y="-327.8" font-family="Helvetica,sans-Serif" font-size="11.00" fill="#000000"> &#160;</text>
<polygon fill="#ffffff" stroke="transparent" points="44.5,-321.7 44.5,-340.7 79.5,-340.7 79.5,-321.7 44.5,-321.7"/>
<polygon fill="none" stroke="#000000" points="44.5,-321.7 44.5,-340.7 79.5,-340.7 79.5,-321.7 44.5,-321.7"/>
<text text-anchor="start" x="48.6755" y="-327.8" font-family="Helvetica,sans-Serif" font-size="11.00" fill="#000000">228 &gt;</text>
</a>
</g>
</g>
<!-- documents&#45;&gt;users -->
<g id="edge3" class="edge">
<title>documents:w&#45;&gt;users:e</title>
<path fill="none" stroke="#000000" d="M113.7648,-331.1375C102.3432,-337.325 97.2522,-349.7 79.5,-349.7"/>
<polygon fill="#000000" stroke="#000000" points="120.2235,-329.5779 128.8451,-331.1994 124.1118,-328.6389 128,-327.7 128,-327.7 128,-327.7 124.1118,-328.6389 127.1549,-324.2006 120.2235,-329.5779 120.2235,-329.5779"/>
<ellipse fill="none" stroke="#000000" cx="117.1129" cy="-330.3291" rx="3.2" ry="3.2"/>
</g>
<!-- documents&#45;&gt;users -->
<g id="edge4" class="edge">
<title>documents:w&#45;&gt;users:e</title>
<path fill="none" stroke="#000000" d="M113.2829,-349.7C102.2886,-349.7 95.1615,-349.7 79.5,-349.7"/>
<polygon fill="#000000" stroke="#000000" points="120,-349.7001 128,-353.3 124,-349.7 128,-349.7 128,-349.7 128,-349.7 124,-349.7 128,-346.1 120,-349.7001 120,-349.7001"/>
<ellipse fill="none" stroke="#000000" cx="116.8" cy="-349.7001" rx="3.2" ry="3.2"/>
</g>
<!-- documents&#45;&gt;users -->
<g id="edge5" class="edge">
<title>documents:w&#45;&gt;users:e</title>
<path fill="none" stroke="#000000" d="M113.7648,-368.2625C102.3432,-362.075 97.2522,-349.7 79.5,-349.7"/>
<polygon fill="#000000" stroke="#000000" points="120.2235,-369.8221 127.1549,-375.1994 124.1118,-370.7611 128,-371.7 128,-371.7 128,-371.7 124.1118,-370.7611 128.8451,-368.2006 120.2235,-369.8221 120.2235,-369.8221"/>
<ellipse fill="none" stroke="#000000" cx="117.1129" cy="-369.0709" rx="3.2" ry="3.2"/>
</g>
<!-- document_revisions -->
<g id="node3" class="node">
<title>document_revisions</title>
<g id="a_node3"><a xlink:href="../../tables/document_revisions.html" xlink:title="document_revisions" target="_top">
<polygon fill="#ffffff" stroke="transparent" points="327,-612.7 327,-966.7 538,-966.7 538,-612.7 327,-612.7"/>
<polygon fill="#f5f5f5" stroke="transparent" points="329.5,-941.7 329.5,-964.7 536.5,-964.7 536.5,-941.7 329.5,-941.7"/>
<polygon fill="none" stroke="#000000" points="329.5,-941.7 329.5,-964.7 536.5,-964.7 536.5,-941.7 329.5,-941.7"/>
<text text-anchor="start" x="334.5" y="-950.3" font-family="Helvetica,sans-Serif" font-weight="bold" font-size="11.00" fill="#000000">document_revisions</text>
<text text-anchor="start" x="501.5437" y="-949.8" font-family="Helvetica,sans-Serif" font-size="11.00" fill="#000000">[table]</text>
<polygon fill="none" stroke="#000000" points="329.5,-919.7 329.5,-941.7 469.5,-941.7 469.5,-919.7 329.5,-919.7"/>
<image xlink:href="../../images/primaryKeys.png" width="11px" height="12px" preserveAspectRatio="xMinYMin meet" x="334.5" y="-936.7"/>
<text text-anchor="start" x="349.5" y="-926.8" font-family="Helvetica,sans-Serif" font-size="11.00" fill="#000000">id</text>
<polygon fill="none" stroke="#000000" points="469.5,-919.7 469.5,-941.7 536.5,-941.7 536.5,-919.7 469.5,-919.7"/>
<text text-anchor="start" x="472.5" y="-927.4" font-family="Helvetica,sans-Serif" font-size="11.00" fill="#000000">varchar[36]</text>
<polygon fill="none" stroke="#000000" points="329.5,-897.7 329.5,-919.7 469.5,-919.7 469.5,-897.7 329.5,-897.7"/>
<text text-anchor="start" x="349.5" y="-904.8" font-family="Helvetica,sans-Serif" font-size="11.00" fill="#000000">change_log</text>
<polygon fill="none" stroke="#000000" points="469.5,-897.7 469.5,-919.7 536.5,-919.7 536.5,-897.7 469.5,-897.7"/>
<text text-anchor="start" x="472.4365" y="-905.4" font-family="Helvetica,sans-Serif" font-size="11.00" fill="#000000">varchar[255]</text>
<polygon fill="none" stroke="#000000" points="329.5,-875.7 329.5,-897.7 469.5,-897.7 469.5,-875.7 329.5,-875.7"/>
<image xlink:href="../../images/foreignKeys.png" width="11px" height="12px" preserveAspectRatio="xMinYMin meet" x="334.5" y="-892.7"/>
<text text-anchor="start" x="349.5" y="-882.8" font-family="Helvetica,sans-Serif" font-size="11.00" fill="#000000">document_id</text>
<polygon fill="none" stroke="#000000" points="469.5,-875.7 469.5,-897.7 536.5,-897.7 536.5,-875.7 469.5,-875.7"/>
<text text-anchor="start" x="472.5" y="-883.4" font-family="Helvetica,sans-Serif" font-size="11.00" fill="#000000">varchar[36]</text>
<polygon fill="none" stroke="#000000" points="329.5,-853.7 329.5,-875.7 469.5,-875.7 469.5,-853.7 329.5,-853.7"/>
<text text-anchor="start" x="349.5" y="-860.8" font-family="Helvetica,sans-Serif" font-size="11.00" fill="#000000">doc_id</text>
<polygon fill="none" stroke="#000000" points="469.5,-853.7 469.5,-875.7 536.5,-875.7 536.5,-853.7 469.5,-853.7"/>
<text text-anchor="start" x="472.4365" y="-861.4" font-family="Helvetica,sans-Serif" font-size="11.00" fill="#000000">varchar[100]</text>
<polygon fill="none" stroke="#000000" points="329.5,-831.7 329.5,-853.7 469.5,-853.7 469.5,-831.7 329.5,-831.7"/>
<text text-anchor="start" x="349.5" y="-838.8" font-family="Helvetica,sans-Serif" font-size="11.00" fill="#000000">doc_type</text>
<polygon fill="none" stroke="#000000" points="469.5,-831.7 469.5,-853.7 536.5,-853.7 536.5,-831.7 469.5,-831.7"/>
<text text-anchor="start" x="472.4365" y="-839.4" font-family="Helvetica,sans-Serif" font-size="11.00" fill="#000000">varchar[100]</text>
<polygon fill="none" stroke="#000000" points="329.5,-809.7 329.5,-831.7 469.5,-831.7 469.5,-809.7 329.5,-809.7"/>
<text text-anchor="start" x="349.5" y="-816.8" font-family="Helvetica,sans-Serif" font-size="11.00" fill="#000000">doc_url</text>
<polygon fill="none" stroke="#000000" points="469.5,-809.7 469.5,-831.7 536.5,-831.7 536.5,-809.7 469.5,-809.7"/>
<text text-anchor="start" x="472.4365" y="-817.4" font-family="Helvetica,sans-Serif" font-size="11.00" fill="#000000">varchar[255]</text>
<polygon fill="none" stroke="#000000" points="329.5,-787.7 329.5,-809.7 469.5,-809.7 469.5,-787.7 329.5,-787.7"/>
<text text-anchor="start" x="349.5" y="-794.8" font-family="Helvetica,sans-Serif" font-size="11.00" fill="#000000">date_entered</text>
<polygon fill="none" stroke="#000000" points="469.5,-787.7 469.5,-809.7 536.5,-809.7 536.5,-787.7 469.5,-787.7"/>
<text text-anchor="start" x="472.5" y="-795.4" font-family="Helvetica,sans-Serif" font-size="11.00" fill="#000000">datetime[19]</text>
<polygon fill="#c0c0c0" stroke="transparent" points="329.5,-765.7 329.5,-787.7 469.5,-787.7 469.5,-765.7 329.5,-765.7"/>
<polygon fill="none" stroke="#000000" points="329.5,-765.7 329.5,-787.7 469.5,-787.7 469.5,-765.7 329.5,-765.7"/>
<image xlink:href="../../images/foreignKeys.png" width="11px" height="12px" preserveAspectRatio="xMinYMin meet" x="334.5" y="-782.7"/>
<text text-anchor="start" x="349.5" y="-772.8" font-family="Helvetica,sans-Serif" font-size="11.00" fill="#000000">created_by</text>
<polygon fill="none" stroke="#000000" points="469.5,-765.7 469.5,-787.7 536.5,-787.7 536.5,-765.7 469.5,-765.7"/>
<text text-anchor="start" x="472.5" y="-773.4" font-family="Helvetica,sans-Serif" font-size="11.00" fill="#000000">char[36]</text>
<polygon fill="none" stroke="#000000" points="329.5,-743.7 329.5,-765.7 469.5,-765.7 469.5,-743.7 329.5,-743.7"/>
<text text-anchor="start" x="349.5" y="-750.8" font-family="Helvetica,sans-Serif" font-size="11.00" fill="#000000">filename</text>
<polygon fill="none" stroke="#000000" points="469.5,-743.7 469.5,-765.7 536.5,-765.7 536.5,-743.7 469.5,-743.7"/>
<text text-anchor="start" x="472.4365" y="-751.4" font-family="Helvetica,sans-Serif" font-size="11.00" fill="#000000">varchar[255]</text>
<polygon fill="none" stroke="#000000" points="329.5,-721.7 329.5,-743.7 469.5,-743.7 469.5,-721.7 329.5,-721.7"/>
<text text-anchor="start" x="349.5" y="-728.8" font-family="Helvetica,sans-Serif" font-size="11.00" fill="#000000">file_ext</text>
<polygon fill="none" stroke="#000000" points="469.5,-721.7 469.5,-743.7 536.5,-743.7 536.5,-721.7 469.5,-721.7"/>
<text text-anchor="start" x="472.4365" y="-729.4" font-family="Helvetica,sans-Serif" font-size="11.00" fill="#000000">varchar[100]</text>
<polygon fill="#ffffff" stroke="transparent" points="329.5,-699.7 329.5,-721.7 469.5,-721.7 469.5,-699.7 329.5,-699.7"/>
<polygon fill="none" stroke="#000000" points="329.5,-699.7 329.5,-721.7 469.5,-721.7 469.5,-699.7 329.5,-699.7"/>
<text text-anchor="start" x="349.5" y="-706.8" font-family="Helvetica,sans-Serif" font-size="11.00" fill="#000000">file_mime_type</text>
<polygon fill="none" stroke="#000000" points="469.5,-699.7 469.5,-721.7 536.5,-721.7 536.5,-699.7 469.5,-699.7"/>
<text text-anchor="start" x="472.4365" y="-707.4" font-family="Helvetica,sans-Serif" font-size="11.00" fill="#000000">varchar[100]</text>
<polygon fill="none" stroke="#000000" points="329.5,-677.7 329.5,-699.7 469.5,-699.7 469.5,-677.7 329.5,-677.7"/>
<text text-anchor="start" x="349.5" y="-684.8" font-family="Helvetica,sans-Serif" font-size="11.00" fill="#000000">revision</text>
<polygon fill="none" stroke="#000000" points="469.5,-677.7 469.5,-699.7 536.5,-699.7 536.5,-677.7 469.5,-677.7"/>
<text text-anchor="start" x="472.4365" y="-685.4" font-family="Helvetica,sans-Serif" font-size="11.00" fill="#000000">varchar[100]</text>
<polygon fill="none" stroke="#000000" points="329.5,-655.7 329.5,-677.7 469.5,-677.7 469.5,-655.7 329.5,-655.7"/>
<text text-anchor="start" x="349.5" y="-662.8" font-family="Helvetica,sans-Serif" font-size="11.00" fill="#000000">deleted</text>
<polygon fill="none" stroke="#000000" points="469.5,-655.7 469.5,-677.7 536.5,-677.7 536.5,-655.7 469.5,-655.7"/>
<text text-anchor="start" x="472.5" y="-663.4" font-family="Helvetica,sans-Serif" font-size="11.00" fill="#000000">boolean[3]</text>
<polygon fill="none" stroke="#000000" points="329.5,-633.7 329.5,-655.7 469.5,-655.7 469.5,-633.7 329.5,-633.7"/>
<text text-anchor="start" x="349.5" y="-640.8" font-family="Helvetica,sans-Serif" font-size="11.00" fill="#000000">date_modified</text>
<polygon fill="none" stroke="#000000" points="469.5,-633.7 469.5,-655.7 536.5,-655.7 536.5,-633.7 469.5,-633.7"/>
<text text-anchor="start" x="472.5" y="-641.4" font-family="Helvetica,sans-Serif" font-size="11.00" fill="#000000">datetime[19]</text>
<polygon fill="#ffffff" stroke="transparent" points="329.5,-614.7 329.5,-633.7 403.5,-633.7 403.5,-614.7 329.5,-614.7"/>
<polygon fill="none" stroke="#000000" points="329.5,-614.7 329.5,-633.7 403.5,-633.7 403.5,-614.7 329.5,-614.7"/>
<text text-anchor="start" x="332.5" y="-620.8" font-family="Helvetica,sans-Serif" font-size="11.00" fill="#000000">&lt; 2</text>
<polygon fill="#ffffff" stroke="transparent" points="403.5,-614.7 403.5,-633.7 469.5,-633.7 469.5,-614.7 403.5,-614.7"/>
<polygon fill="none" stroke="#000000" points="403.5,-614.7 403.5,-633.7 469.5,-633.7 469.5,-614.7 403.5,-614.7"/>
<text text-anchor="start" x="460.3862" y="-620.8" font-family="Helvetica,sans-Serif" font-size="11.00" fill="#000000"> &#160;</text>
<polygon fill="#ffffff" stroke="transparent" points="469.5,-614.7 469.5,-633.7 536.5,-633.7 536.5,-614.7 469.5,-614.7"/>
<polygon fill="none" stroke="#000000" points="469.5,-614.7 469.5,-633.7 536.5,-633.7 536.5,-614.7 469.5,-614.7"/>
<text text-anchor="start" x="517.9053" y="-620.8" font-family="Helvetica,sans-Serif" font-size="11.00" fill="#000000">0 &gt;</text>
<polygon fill="none" stroke="#000000" stroke-width="2" points="328,-613.7 328,-965.7 537,-965.7 537,-613.7 328,-613.7"/>
</a>
</g>
</g>
<!-- document_revisions&#45;&gt;documents -->
<g id="edge2" class="edge">
<title>document_revisions:w&#45;&gt;documents:e</title>
<path fill="none" stroke="#000000" d="M315.2948,-883.2886C235.1679,-839.7309 382.7732,-393.7 278,-393.7"/>
<polygon fill="#000000" stroke="#000000" points="321.7212,-884.8318 328.6593,-890.2005 325.6106,-885.7659 329.5,-886.7 329.5,-886.7 329.5,-886.7 325.6106,-885.7659 330.3407,-883.1995 321.7212,-884.8318 321.7212,-884.8318"/>
<ellipse fill="none" stroke="#000000" cx="318.6096" cy="-884.0846" rx="3.2" ry="3.2"/>
</g>
<!-- documents_accounts -->
<g id="node5" class="node">
<title>documents_accounts</title>
<g id="a_node5"><a xlink:href="../../tables/documents_accounts.html" xlink:title="documents_accounts" target="_top">
<polygon fill="#ffffff" stroke="transparent" points="350.5,-530.2 350.5,-591.2 514.5,-591.2 514.5,-530.2 350.5,-530.2"/>
<polygon fill="#f5f5f5" stroke="transparent" points="350.5,-567.7 350.5,-590.7 514.5,-590.7 514.5,-567.7 350.5,-567.7"/>
<polygon fill="none" stroke="#000000" points="350.5,-567.7 350.5,-590.7 514.5,-590.7 514.5,-567.7 350.5,-567.7"/>
<text text-anchor="start" x="355.5" y="-576.3" font-family="Helvetica,sans-Serif" font-weight="bold" font-size="11.00" fill="#000000">documents_accounts</text>
<text text-anchor="start" x="480.0219" y="-575.8" font-family="Helvetica,sans-Serif" font-size="11.00" fill="#000000">[table]</text>
<polygon fill="none" stroke="#000000" points="350.5,-548.7 350.5,-567.7 514.5,-567.7 514.5,-548.7 350.5,-548.7"/>
<text text-anchor="start" x="353.5" y="-554.8" font-family="Helvetica,sans-Serif" font-size="11.00" fill="#000000">...</text>
<polygon fill="#ffffff" stroke="transparent" points="350.5,-529.7 350.5,-548.7 430.5,-548.7 430.5,-529.7 350.5,-529.7"/>
<polygon fill="none" stroke="#000000" points="350.5,-529.7 350.5,-548.7 430.5,-548.7 430.5,-529.7 350.5,-529.7"/>
<text text-anchor="start" x="353.5" y="-535.8" font-family="Helvetica,sans-Serif" font-size="11.00" fill="#000000">&lt; 2</text>
<polygon fill="#ffffff" stroke="transparent" points="430.5,-529.7 430.5,-548.7 472.5,-548.7 472.5,-529.7 430.5,-529.7"/>
<polygon fill="none" stroke="#000000" points="430.5,-529.7 430.5,-548.7 472.5,-548.7 472.5,-529.7 430.5,-529.7"/>
<text text-anchor="start" x="463.3862" y="-535.8" font-family="Helvetica,sans-Serif" font-size="11.00" fill="#000000"> &#160;</text>
<polygon fill="#ffffff" stroke="transparent" points="472.5,-529.7 472.5,-548.7 514.5,-548.7 514.5,-529.7 472.5,-529.7"/>
<polygon fill="none" stroke="#000000" points="472.5,-529.7 472.5,-548.7 514.5,-548.7 514.5,-529.7 472.5,-529.7"/>
<text text-anchor="start" x="505.3862" y="-535.8" font-family="Helvetica,sans-Serif" font-size="11.00" fill="#000000"> &#160;</text>
</a>
</g>
</g>
<!-- documents_accounts&#45;&gt;documents -->
<g id="edge6" class="edge">
<title>documents_accounts:w&#45;&gt;documents:e</title>
<path fill="none" stroke="#000000" d="M336.0445,-555.3816C282.2014,-535.4483 352.0901,-393.7 278,-393.7"/>
<polygon fill="#000000" stroke="#000000" points="342.6009,-556.4331 349.9299,-561.2546 346.5505,-557.0666 350.5,-557.7 350.5,-557.7 350.5,-557.7 346.5505,-557.0666 351.0701,-554.1454 342.6009,-556.4331 342.6009,-556.4331"/>
<ellipse fill="none" stroke="#000000" cx="339.4413" cy="-555.9264" rx="3.2" ry="3.2"/>
</g>
<!-- documents_bugs -->
<g id="node6" class="node">
<title>documents_bugs</title>
<g id="a_node6"><a xlink:href="../../tables/documents_bugs.html" xlink:title="documents_bugs" target="_top">
<polygon fill="#ffffff" stroke="transparent" points="363,-448.2 363,-509.2 502,-509.2 502,-448.2 363,-448.2"/>
<polygon fill="#f5f5f5" stroke="transparent" points="363.5,-485.7 363.5,-508.7 502.5,-508.7 502.5,-485.7 363.5,-485.7"/>
<polygon fill="none" stroke="#000000" points="363.5,-485.7 363.5,-508.7 502.5,-508.7 502.5,-485.7 363.5,-485.7"/>
<text text-anchor="start" x="368.5" y="-494.3" font-family="Helvetica,sans-Serif" font-weight="bold" font-size="11.00" fill="#000000">documents_bugs</text>
<text text-anchor="start" x="468.0219" y="-493.8" font-family="Helvetica,sans-Serif" font-size="11.00" fill="#000000">[table]</text>
<polygon fill="none" stroke="#000000" points="363.5,-466.7 363.5,-485.7 502.5,-485.7 502.5,-466.7 363.5,-466.7"/>
<text text-anchor="start" x="366.5" y="-472.8" font-family="Helvetica,sans-Serif" font-size="11.00" fill="#000000">...</text>
<polygon fill="#ffffff" stroke="transparent" points="363.5,-447.7 363.5,-466.7 431.5,-466.7 431.5,-447.7 363.5,-447.7"/>
<polygon fill="none" stroke="#000000" points="363.5,-447.7 363.5,-466.7 431.5,-466.7 431.5,-447.7 363.5,-447.7"/>
<text text-anchor="start" x="366.5" y="-453.8" font-family="Helvetica,sans-Serif" font-size="11.00" fill="#000000">&lt; 2</text>
<polygon fill="#ffffff" stroke="transparent" points="431.5,-447.7 431.5,-466.7 466.5,-466.7 466.5,-447.7 431.5,-447.7"/>
<polygon fill="none" stroke="#000000" points="431.5,-447.7 431.5,-466.7 466.5,-466.7 466.5,-447.7 431.5,-447.7"/>
<text text-anchor="start" x="457.3862" y="-453.8" font-family="Helvetica,sans-Serif" font-size="11.00" fill="#000000"> &#160;</text>
<polygon fill="#ffffff" stroke="transparent" points="466.5,-447.7 466.5,-466.7 502.5,-466.7 502.5,-447.7 466.5,-447.7"/>
<polygon fill="none" stroke="#000000" points="466.5,-447.7 466.5,-466.7 502.5,-466.7 502.5,-447.7 466.5,-447.7"/>
<text text-anchor="start" x="493.3862" y="-453.8" font-family="Helvetica,sans-Serif" font-size="11.00" fill="#000000"> &#160;</text>
</a>
</g>
</g>
<!-- documents_bugs&#45;&gt;documents -->
<g id="edge7" class="edge">
<title>documents_bugs:w&#45;&gt;documents:e</title>
<path fill="none" stroke="#000000" d="M349.3452,-472.8745C336.6455,-466.7357 333.5285,-451.612 319,-437.7 299.6942,-419.2134 304.7296,-393.7 278,-393.7"/>
<polygon fill="#000000" stroke="#000000" points="355.6548,-474.1339 362.7953,-479.2304 359.5774,-474.917 363.5,-475.7 363.5,-475.7 363.5,-475.7 359.5774,-474.917 364.2047,-472.1696 355.6548,-474.1339 355.6548,-474.1339"/>
<ellipse fill="none" stroke="#000000" cx="352.5167" cy="-473.5075" rx="3.2" ry="3.2"/>
</g>
<!-- documents_cases -->
<g id="node7" class="node">
<title>documents_cases</title>
<g id="a_node7"><a xlink:href="../../tables/documents_cases.html" xlink:title="documents_cases" target="_top">
<polygon fill="#ffffff" stroke="transparent" points="361,-366.2 361,-427.2 504,-427.2 504,-366.2 361,-366.2"/>
<polygon fill="#f5f5f5" stroke="transparent" points="361.5,-403.7 361.5,-426.7 504.5,-426.7 504.5,-403.7 361.5,-403.7"/>
<polygon fill="none" stroke="#000000" points="361.5,-403.7 361.5,-426.7 504.5,-426.7 504.5,-403.7 361.5,-403.7"/>
<text text-anchor="start" x="366.5" y="-412.3" font-family="Helvetica,sans-Serif" font-weight="bold" font-size="11.00" fill="#000000">documents_cases</text>
<text text-anchor="start" x="470.0219" y="-411.8" font-family="Helvetica,sans-Serif" font-size="11.00" fill="#000000">[table]</text>
<polygon fill="none" stroke="#000000" points="361.5,-384.7 361.5,-403.7 504.5,-403.7 504.5,-384.7 361.5,-384.7"/>
<text text-anchor="start" x="364.5" y="-390.8" font-family="Helvetica,sans-Serif" font-size="11.00" fill="#000000">...</text>
<polygon fill="#ffffff" stroke="transparent" points="361.5,-365.7 361.5,-384.7 431.5,-384.7 431.5,-365.7 361.5,-365.7"/>
<polygon fill="none" stroke="#000000" points="361.5,-365.7 361.5,-384.7 431.5,-384.7 431.5,-365.7 361.5,-365.7"/>
<text text-anchor="start" x="364.5" y="-371.8" font-family="Helvetica,sans-Serif" font-size="11.00" fill="#000000">&lt; 2</text>
<polygon fill="#ffffff" stroke="transparent" points="431.5,-365.7 431.5,-384.7 467.5,-384.7 467.5,-365.7 431.5,-365.7"/>
<polygon fill="none" stroke="#000000" points="431.5,-365.7 431.5,-384.7 467.5,-384.7 467.5,-365.7 431.5,-365.7"/>
<text text-anchor="start" x="458.3862" y="-371.8" font-family="Helvetica,sans-Serif" font-size="11.00" fill="#000000"> &#160;</text>
<polygon fill="#ffffff" stroke="transparent" points="467.5,-365.7 467.5,-384.7 504.5,-384.7 504.5,-365.7 467.5,-365.7"/>
<polygon fill="none" stroke="#000000" points="467.5,-365.7 467.5,-384.7 504.5,-384.7 504.5,-365.7 467.5,-365.7"/>
<text text-anchor="start" x="495.3862" y="-371.8" font-family="Helvetica,sans-Serif" font-size="11.00" fill="#000000"> &#160;</text>
</a>
</g>
</g>
<!-- documents_cases&#45;&gt;documents -->
<g id="edge8" class="edge">
<title>documents_cases:w&#45;&gt;documents:e</title>
<path fill="none" stroke="#000000" d="M346.985,-393.7C321.1256,-393.7 309.7474,-393.7 278,-393.7"/>
<polygon fill="#000000" stroke="#000000" points="353.5,-393.7001 361.5,-397.3 357.5,-393.7 361.5,-393.7 361.5,-393.7 361.5,-393.7 357.5,-393.7 361.5,-390.1 353.5,-393.7001 353.5,-393.7001"/>
<ellipse fill="none" stroke="#000000" cx="350.3" cy="-393.7001" rx="3.2" ry="3.2"/>
</g>
<!-- documents_contacts -->
<g id="node8" class="node">
<title>documents_contacts</title>
<g id="a_node8"><a xlink:href="../../tables/documents_contacts.html" xlink:title="documents_contacts" target="_top">
<polygon fill="#ffffff" stroke="transparent" points="352.5,-284.2 352.5,-345.2 512.5,-345.2 512.5,-284.2 352.5,-284.2"/>
<polygon fill="#f5f5f5" stroke="transparent" points="352.5,-321.7 352.5,-344.7 512.5,-344.7 512.5,-321.7 352.5,-321.7"/>
<polygon fill="none" stroke="#000000" points="352.5,-321.7 352.5,-344.7 512.5,-344.7 512.5,-321.7 352.5,-321.7"/>
<text text-anchor="start" x="357.5" y="-330.3" font-family="Helvetica,sans-Serif" font-weight="bold" font-size="11.00" fill="#000000">documents_contacts</text>
<text text-anchor="start" x="478.0219" y="-329.8" font-family="Helvetica,sans-Serif" font-size="11.00" fill="#000000">[table]</text>
<polygon fill="none" stroke="#000000" points="352.5,-302.7 352.5,-321.7 512.5,-321.7 512.5,-302.7 352.5,-302.7"/>
<text text-anchor="start" x="355.5" y="-308.8" font-family="Helvetica,sans-Serif" font-size="11.00" fill="#000000">...</text>
<polygon fill="#ffffff" stroke="transparent" points="352.5,-283.7 352.5,-302.7 430.5,-302.7 430.5,-283.7 352.5,-283.7"/>
<polygon fill="none" stroke="#000000" points="352.5,-283.7 352.5,-302.7 430.5,-302.7 430.5,-283.7 352.5,-283.7"/>
<text text-anchor="start" x="355.5" y="-289.8" font-family="Helvetica,sans-Serif" font-size="11.00" fill="#000000">&lt; 2</text>
<polygon fill="#ffffff" stroke="transparent" points="430.5,-283.7 430.5,-302.7 471.5,-302.7 471.5,-283.7 430.5,-283.7"/>
<polygon fill="none" stroke="#000000" points="430.5,-283.7 430.5,-302.7 471.5,-302.7 471.5,-283.7 430.5,-283.7"/>
<text text-anchor="start" x="462.3862" y="-289.8" font-family="Helvetica,sans-Serif" font-size="11.00" fill="#000000"> &#160;</text>
<polygon fill="#ffffff" stroke="transparent" points="471.5,-283.7 471.5,-302.7 512.5,-302.7 512.5,-283.7 471.5,-283.7"/>
<polygon fill="none" stroke="#000000" points="471.5,-283.7 471.5,-302.7 512.5,-302.7 512.5,-283.7 471.5,-283.7"/>
<text text-anchor="start" x="503.3862" y="-289.8" font-family="Helvetica,sans-Serif" font-size="11.00" fill="#000000"> &#160;</text>
</a>
</g>
</g>
<!-- documents_contacts&#45;&gt;documents -->
<g id="edge9" class="edge">
<title>documents_contacts:w&#45;&gt;documents:e</title>
<path fill="none" stroke="#000000" d="M338.3721,-314.6184C307.7536,-329.2258 321.6617,-393.7 278,-393.7"/>
<polygon fill="#000000" stroke="#000000" points="344.6654,-313.3184 353.2283,-315.2256 348.5827,-312.5092 352.5,-311.7 352.5,-311.7 352.5,-311.7 348.5827,-312.5092 351.7717,-308.1744 344.6654,-313.3184 344.6654,-313.3184"/>
<ellipse fill="none" stroke="#000000" cx="341.5316" cy="-313.9658" rx="3.2" ry="3.2"/>
</g>
<!-- documents_opportunities -->
<g id="node9" class="node">
<title>documents_opportunities</title>
<g id="a_node9"><a xlink:href="../../tables/documents_opportunities.html" xlink:title="documents_opportunities" target="_top">
<polygon fill="#ffffff" stroke="transparent" points="337,-202.2 337,-263.2 528,-263.2 528,-202.2 337,-202.2"/>
<polygon fill="#f5f5f5" stroke="transparent" points="337.5,-239.7 337.5,-262.7 528.5,-262.7 528.5,-239.7 337.5,-239.7"/>
<polygon fill="none" stroke="#000000" points="337.5,-239.7 337.5,-262.7 528.5,-262.7 528.5,-239.7 337.5,-239.7"/>
<text text-anchor="start" x="342.5" y="-248.3" font-family="Helvetica,sans-Serif" font-weight="bold" font-size="11.00" fill="#000000">documents_opportunities</text>
<text text-anchor="start" x="494.0219" y="-247.8" font-family="Helvetica,sans-Serif" font-size="11.00" fill="#000000">[table]</text>
<polygon fill="none" stroke="#000000" points="337.5,-220.7 337.5,-239.7 528.5,-239.7 528.5,-220.7 337.5,-220.7"/>
<text text-anchor="start" x="340.5" y="-226.8" font-family="Helvetica,sans-Serif" font-size="11.00" fill="#000000">...</text>
<polygon fill="#ffffff" stroke="transparent" points="337.5,-201.7 337.5,-220.7 431.5,-220.7 431.5,-201.7 337.5,-201.7"/>
<polygon fill="none" stroke="#000000" points="337.5,-201.7 337.5,-220.7 431.5,-220.7 431.5,-201.7 337.5,-201.7"/>
<text text-anchor="start" x="340.5" y="-207.8" font-family="Helvetica,sans-Serif" font-size="11.00" fill="#000000">&lt; 2</text>
<polygon fill="#ffffff" stroke="transparent" points="431.5,-201.7 431.5,-220.7 479.5,-220.7 479.5,-201.7 431.5,-201.7"/>
<polygon fill="none" stroke="#000000" points="431.5,-201.7 431.5,-220.7 479.5,-220.7 479.5,-201.7 431.5,-201.7"/>
<text text-anchor="start" x="470.3862" y="-207.8" font-family="Helvetica,sans-Serif" font-size="11.00" fill="#000000"> &#160;</text>
<polygon fill="#ffffff" stroke="transparent" points="479.5,-201.7 479.5,-220.7 528.5,-220.7 528.5,-201.7 479.5,-201.7"/>
<polygon fill="none" stroke="#000000" points="479.5,-201.7 479.5,-220.7 528.5,-220.7 528.5,-201.7 479.5,-201.7"/>
<text text-anchor="start" x="519.3862" y="-207.8" font-family="Helvetica,sans-Serif" font-size="11.00" fill="#000000"> &#160;</text>
</a>
</g>
</g>
<!-- documents_opportunities&#45;&gt;documents -->
<g id="edge10" class="edge">
<title>documents_opportunities:w&#45;&gt;documents:e</title>
<path fill="none" stroke="#000000" d="M323.2716,-232.1456C272.8719,-252.5467 349.9344,-393.7 278,-393.7"/>
<polygon fill="#000000" stroke="#000000" points="329.6156,-231.0552 338.1098,-233.248 333.5578,-230.3776 337.5,-229.7 337.5,-229.7 337.5,-229.7 333.5578,-230.3776 336.8902,-226.152 329.6156,-231.0552 329.6156,-231.0552"/>
<ellipse fill="none" stroke="#000000" cx="326.4619" cy="-231.5973" rx="3.2" ry="3.2"/>
</g>
<!-- linked_documents -->
<g id="node10" class="node">
<title>linked_documents</title>
<g id="a_node10"><a xlink:href="../../tables/linked_documents.html" xlink:title="linked_documents" target="_top">
<polygon fill="#ffffff" stroke="transparent" points="359,-120.2 359,-181.2 506,-181.2 506,-120.2 359,-120.2"/>
<polygon fill="#f5f5f5" stroke="transparent" points="359.5,-157.7 359.5,-180.7 506.5,-180.7 506.5,-157.7 359.5,-157.7"/>
<polygon fill="none" stroke="#000000" points="359.5,-157.7 359.5,-180.7 506.5,-180.7 506.5,-157.7 359.5,-157.7"/>
<text text-anchor="start" x="364.5" y="-166.3" font-family="Helvetica,sans-Serif" font-weight="bold" font-size="11.00" fill="#000000">linked_documents</text>
<text text-anchor="start" x="472.0219" y="-165.8" font-family="Helvetica,sans-Serif" font-size="11.00" fill="#000000">[table]</text>
<polygon fill="none" stroke="#000000" points="359.5,-138.7 359.5,-157.7 506.5,-157.7 506.5,-138.7 359.5,-138.7"/>
<text text-anchor="start" x="362.5" y="-144.8" font-family="Helvetica,sans-Serif" font-size="11.00" fill="#000000">...</text>
<polygon fill="#ffffff" stroke="transparent" points="359.5,-119.7 359.5,-138.7 431.5,-138.7 431.5,-119.7 359.5,-119.7"/>
<polygon fill="none" stroke="#000000" points="359.5,-119.7 359.5,-138.7 431.5,-138.7 431.5,-119.7 359.5,-119.7"/>
<text text-anchor="start" x="362.5" y="-125.8" font-family="Helvetica,sans-Serif" font-size="11.00" fill="#000000">&lt; 2</text>
<polygon fill="#ffffff" stroke="transparent" points="431.5,-119.7 431.5,-138.7 468.5,-138.7 468.5,-119.7 431.5,-119.7"/>
<polygon fill="none" stroke="#000000" points="431.5,-119.7 431.5,-138.7 468.5,-138.7 468.5,-119.7 431.5,-119.7"/>
<text text-anchor="start" x="459.3862" y="-125.8" font-family="Helvetica,sans-Serif" font-size="11.00" fill="#000000"> &#160;</text>
<polygon fill="#ffffff" stroke="transparent" points="468.5,-119.7 468.5,-138.7 506.5,-138.7 506.5,-119.7 468.5,-119.7"/>
<polygon fill="none" stroke="#000000" points="468.5,-119.7 468.5,-138.7 506.5,-138.7 506.5,-119.7 468.5,-119.7"/>
<text text-anchor="start" x="497.3862" y="-125.8" font-family="Helvetica,sans-Serif" font-size="11.00" fill="#000000"> &#160;</text>
</a>
</g>
</g>
<!-- linked_documents&#45;&gt;documents -->
<g id="edge11" class="edge">
<title>linked_documents:w&#45;&gt;documents:e</title>
<path fill="none" stroke="#000000" d="M345.2437,-150.4405C331.6284,-156.7539 328.4433,-173.2071 319,-191.7 298.1691,-232.4934 323.8042,-393.7 278,-393.7"/>
<polygon fill="#000000" stroke="#000000" points="351.6438,-149.2102 360.1796,-151.2353 355.5719,-148.4551 359.5,-147.7 359.5,-147.7 359.5,-147.7 355.5719,-148.4551 358.8204,-144.1647 351.6438,-149.2102 351.6438,-149.2102"/>
<ellipse fill="none" stroke="#000000" cx="348.5014" cy="-149.8143" rx="3.2" ry="3.2"/>
</g>
<!-- securitygroups_records -->
<g id="node11" class="node">
<title>securitygroups_records</title>
<g id="a_node11"><a xlink:href="../../tables/securitygroups_records.html" xlink:title="securitygroups_records" target="_top">
<polygon fill="#ffffff" stroke="transparent" points="343.5,-38.2 343.5,-99.2 521.5,-99.2 521.5,-38.2 343.5,-38.2"/>
<polygon fill="#f5f5f5" stroke="transparent" points="343.5,-75.7 343.5,-98.7 521.5,-98.7 521.5,-75.7 343.5,-75.7"/>
<polygon fill="none" stroke="#000000" points="343.5,-75.7 343.5,-98.7 521.5,-98.7 521.5,-75.7 343.5,-75.7"/>
<text text-anchor="start" x="348.5" y="-84.3" font-family="Helvetica,sans-Serif" font-weight="bold" font-size="11.00" fill="#000000">securitygroups_records</text>
<text text-anchor="start" x="487.0219" y="-83.8" font-family="Helvetica,sans-Serif" font-size="11.00" fill="#000000">[table]</text>
<polygon fill="none" stroke="#000000" points="343.5,-56.7 343.5,-75.7 521.5,-75.7 521.5,-56.7 343.5,-56.7"/>
<text text-anchor="start" x="346.5" y="-62.8" font-family="Helvetica,sans-Serif" font-size="11.00" fill="#000000">...</text>
<polygon fill="#ffffff" stroke="transparent" points="343.5,-37.7 343.5,-56.7 433.5,-56.7 433.5,-37.7 343.5,-37.7"/>
<polygon fill="none" stroke="#000000" points="343.5,-37.7 343.5,-56.7 433.5,-56.7 433.5,-37.7 343.5,-37.7"/>
<text text-anchor="start" x="346.5" y="-43.8" font-family="Helvetica,sans-Serif" font-size="11.00" fill="#000000">&lt; 46</text>
<polygon fill="#ffffff" stroke="transparent" points="433.5,-37.7 433.5,-56.7 477.5,-56.7 477.5,-37.7 433.5,-37.7"/>
<polygon fill="none" stroke="#000000" points="433.5,-37.7 433.5,-56.7 477.5,-56.7 477.5,-37.7 433.5,-37.7"/>
<text text-anchor="start" x="468.3862" y="-43.8" font-family="Helvetica,sans-Serif" font-size="11.00" fill="#000000"> &#160;</text>
<polygon fill="#ffffff" stroke="transparent" points="477.5,-37.7 477.5,-56.7 521.5,-56.7 521.5,-37.7 477.5,-37.7"/>
<polygon fill="none" stroke="#000000" points="477.5,-37.7 477.5,-56.7 521.5,-56.7 521.5,-37.7 477.5,-37.7"/>
<text text-anchor="start" x="512.3862" y="-43.8" font-family="Helvetica,sans-Serif" font-size="11.00" fill="#000000"> &#160;</text>
</a>
</g>
</g>
<!-- securitygroups_records&#45;&gt;documents -->
<g id="edge12" class="edge">
<title>securitygroups_records:w&#45;&gt;documents:e</title>
<path fill="none" stroke="#000000" d="M329.7343,-70.5912C280.3682,-111.3933 346.9567,-393.7 278,-393.7"/>
<polygon fill="#000000" stroke="#000000" points="335.9617,-68.3785 344.7053,-69.0922 339.7309,-67.0393 343.5,-65.7 343.5,-65.7 343.5,-65.7 339.7309,-67.0393 342.2947,-62.3078 335.9617,-68.3785 335.9617,-68.3785"/>
<ellipse fill="none" stroke="#000000" cx="332.9464" cy="-69.4499" rx="3.2" ry="3.2"/>
</g>
</g>
</svg>
