<?xml version="1.0" encoding="UTF-8" standalone="no"?>
<!DOCTYPE svg PUBLIC "-//W3C//DTD SVG 1.1//EN"
 "http://www.w3.org/Graphics/SVG/1.1/DTD/svg11.dtd">
<!-- Generated by graphviz version 2.40.1 (20161225.0304)
 -->
<!-- Title: oneDegreeRelationshipsDiagram Pages: 1 -->
<svg width="466pt" height="501pt"
 viewBox="0.00 0.00 466.00 501.20" xmlns="http://www.w3.org/2000/svg" xmlns:xlink="http://www.w3.org/1999/xlink">
<g id="graph0" class="graph" transform="scale(1 1) rotate(0) translate(4 497.2)">
<title>oneDegreeRelationshipsDiagram</title>
<polygon fill="#ffffff" stroke="transparent" points="-4,4 -4,-497.2 462,-497.2 462,4 -4,4"/>
<text text-anchor="middle" x="72.4936" y="-7.3" font-family="Helvetica,sans-Serif" font-size="11.00" fill="#000000">Generated by SchemaSpy</text>
<!-- documents_opportunities -->
<g id="node1" class="node">
<title>documents_opportunities</title>
<g id="a_node1"><a xlink:href="../../tables/documents_opportunities.html" xlink:title="documents_opportunities" target="_top">
<polygon fill="#ffffff" stroke="transparent" points="207,-304.7 207,-460.7 450,-460.7 450,-304.7 207,-304.7"/>
<polygon fill="#f5f5f5" stroke="transparent" points="209.5,-435.7 209.5,-458.7 448.5,-458.7 448.5,-435.7 209.5,-435.7"/>
<polygon fill="none" stroke="#000000" points="209.5,-435.7 209.5,-458.7 448.5,-458.7 448.5,-435.7 209.5,-435.7"/>
<text text-anchor="start" x="214.5" y="-444.3" font-family="Helvetica,sans-Serif" font-weight="bold" font-size="11.00" fill="#000000">documents_opportunities</text>
<text text-anchor="start" x="413.5437" y="-443.8" font-family="Helvetica,sans-Serif" font-size="11.00" fill="#000000">[table]</text>
<polygon fill="none" stroke="#000000" points="209.5,-413.7 209.5,-435.7 382.5,-435.7 382.5,-413.7 209.5,-413.7"/>
<image xlink:href="../../images/primaryKeys.png" width="11px" height="12px" preserveAspectRatio="xMinYMin meet" x="214.5" y="-430.7"/>
<text text-anchor="start" x="229.5" y="-420.8" font-family="Helvetica,sans-Serif" font-size="11.00" fill="#000000">id</text>
<polygon fill="none" stroke="#000000" points="382.5,-413.7 382.5,-435.7 448.5,-435.7 448.5,-413.7 382.5,-413.7"/>
<text text-anchor="start" x="385.5" y="-421.4" font-family="Helvetica,sans-Serif" font-size="11.00" fill="#000000">varchar[36]</text>
<polygon fill="none" stroke="#000000" points="209.5,-391.7 209.5,-413.7 382.5,-413.7 382.5,-391.7 209.5,-391.7"/>
<text text-anchor="start" x="229.5" y="-398.8" font-family="Helvetica,sans-Serif" font-size="11.00" fill="#000000">date_modified</text>
<polygon fill="none" stroke="#000000" points="382.5,-391.7 382.5,-413.7 448.5,-413.7 448.5,-391.7 382.5,-391.7"/>
<text text-anchor="start" x="385.2401" y="-399.4" font-family="Helvetica,sans-Serif" font-size="11.00" fill="#000000">datetime[19]</text>
<polygon fill="none" stroke="#000000" points="209.5,-369.7 209.5,-391.7 382.5,-391.7 382.5,-369.7 209.5,-369.7"/>
<text text-anchor="start" x="229.5" y="-376.8" font-family="Helvetica,sans-Serif" font-size="11.00" fill="#000000">deleted</text>
<polygon fill="none" stroke="#000000" points="382.5,-369.7 382.5,-391.7 448.5,-391.7 448.5,-369.7 382.5,-369.7"/>
<text text-anchor="start" x="385.5" y="-377.4" font-family="Helvetica,sans-Serif" font-size="11.00" fill="#000000">boolean[3]</text>
<polygon fill="#ffffff" stroke="transparent" points="209.5,-347.7 209.5,-369.7 382.5,-369.7 382.5,-347.7 209.5,-347.7"/>
<polygon fill="none" stroke="#000000" points="209.5,-347.7 209.5,-369.7 382.5,-369.7 382.5,-347.7 209.5,-347.7"/>
<image xlink:href="../../images/foreignKeys.png" width="11px" height="12px" preserveAspectRatio="xMinYMin meet" x="214.5" y="-364.7"/>
<text text-anchor="start" x="229.5" y="-354.8" font-family="Helvetica,sans-Serif" font-size="11.00" fill="#000000">document_id</text>
<polygon fill="none" stroke="#000000" points="382.5,-347.7 382.5,-369.7 448.5,-369.7 448.5,-347.7 382.5,-347.7"/>
<text text-anchor="start" x="385.5" y="-355.4" font-family="Helvetica,sans-Serif" font-size="11.00" fill="#000000">varchar[36]</text>
<polygon fill="#ffffff" stroke="transparent" points="209.5,-325.7 209.5,-347.7 382.5,-347.7 382.5,-325.7 209.5,-325.7"/>
<polygon fill="none" stroke="#000000" points="209.5,-325.7 209.5,-347.7 382.5,-347.7 382.5,-325.7 209.5,-325.7"/>
<image xlink:href="../../images/foreignKeys.png" width="11px" height="12px" preserveAspectRatio="xMinYMin meet" x="214.5" y="-342.7"/>
<text text-anchor="start" x="229.5" y="-332.8" font-family="Helvetica,sans-Serif" font-size="11.00" fill="#000000">opportunity_id</text>
<polygon fill="none" stroke="#000000" points="382.5,-325.7 382.5,-347.7 448.5,-347.7 448.5,-325.7 382.5,-325.7"/>
<text text-anchor="start" x="385.5" y="-333.4" font-family="Helvetica,sans-Serif" font-size="11.00" fill="#000000">varchar[36]</text>
<polygon fill="#ffffff" stroke="transparent" points="209.5,-306.7 209.5,-325.7 300.5,-325.7 300.5,-306.7 209.5,-306.7"/>
<polygon fill="none" stroke="#000000" points="209.5,-306.7 209.5,-325.7 300.5,-325.7 300.5,-306.7 209.5,-306.7"/>
<text text-anchor="start" x="212.5" y="-312.8" font-family="Helvetica,sans-Serif" font-size="11.00" fill="#000000">&lt; 2</text>
<polygon fill="#ffffff" stroke="transparent" points="300.5,-306.7 300.5,-325.7 382.5,-325.7 382.5,-306.7 300.5,-306.7"/>
<polygon fill="none" stroke="#000000" points="300.5,-306.7 300.5,-325.7 382.5,-325.7 382.5,-306.7 300.5,-306.7"/>
<text text-anchor="start" x="373.3862" y="-312.8" font-family="Helvetica,sans-Serif" font-size="11.00" fill="#000000"> &#160;</text>
<polygon fill="#ffffff" stroke="transparent" points="382.5,-306.7 382.5,-325.7 448.5,-325.7 448.5,-306.7 382.5,-306.7"/>
<polygon fill="none" stroke="#000000" points="382.5,-306.7 382.5,-325.7 448.5,-325.7 448.5,-306.7 382.5,-306.7"/>
<text text-anchor="start" x="429.9053" y="-312.8" font-family="Helvetica,sans-Serif" font-size="11.00" fill="#000000">0 &gt;</text>
<polygon fill="none" stroke="#000000" stroke-width="2" points="208,-305.7 208,-459.7 449,-459.7 449,-305.7 208,-305.7"/>
</a>
</g>
</g>
<!-- documents -->
<g id="node2" class="node">
<title>documents</title>
<g id="a_node2"><a xlink:href="../../tables/documents.html" xlink:title="documents" target="_top">
<polygon fill="#ffffff" stroke="transparent" points="8,-296.2 8,-489.2 158,-489.2 158,-296.2 8,-296.2"/>
<polygon fill="#f5f5f5" stroke="transparent" points="8,-465.7 8,-488.7 158,-488.7 158,-465.7 8,-465.7"/>
<polygon fill="none" stroke="#000000" points="8,-465.7 8,-488.7 158,-488.7 158,-465.7 8,-465.7"/>
<text text-anchor="start" x="13" y="-474.3" font-family="Helvetica,sans-Serif" font-weight="bold" font-size="11.00" fill="#000000">documents</text>
<text text-anchor="start" x="123.0437" y="-473.8" font-family="Helvetica,sans-Serif" font-size="11.00" fill="#000000">[table]</text>
<polygon fill="none" stroke="#000000" points="8,-443.7 8,-465.7 158,-465.7 158,-443.7 8,-443.7"/>
<image xlink:href="../../images/primaryKeys.png" width="11px" height="12px" preserveAspectRatio="xMinYMin meet" x="13" y="-460.7"/>
<text text-anchor="start" x="28" y="-450.8" font-family="Helvetica,sans-Serif" font-size="11.00" fill="#000000">id</text>
<polygon fill="#c0c0c0" stroke="transparent" points="8,-421.7 8,-443.7 158,-443.7 158,-421.7 8,-421.7"/>
<polygon fill="none" stroke="#000000" points="8,-421.7 8,-443.7 158,-443.7 158,-421.7 8,-421.7"/>
<image xlink:href="../../images/foreignKeys.png" width="11px" height="12px" preserveAspectRatio="xMinYMin meet" x="13" y="-438.7"/>
<text text-anchor="start" x="28" y="-428.8" font-family="Helvetica,sans-Serif" font-size="11.00" fill="#000000">modified_user_id</text>
<polygon fill="#c0c0c0" stroke="transparent" points="8,-399.7 8,-421.7 158,-421.7 158,-399.7 8,-399.7"/>
<polygon fill="none" stroke="#000000" points="8,-399.7 8,-421.7 158,-421.7 158,-399.7 8,-399.7"/>
<image xlink:href="../../images/foreignKeys.png" width="11px" height="12px" preserveAspectRatio="xMinYMin meet" x="13" y="-416.7"/>
<text text-anchor="start" x="28" y="-406.8" font-family="Helvetica,sans-Serif" font-size="11.00" fill="#000000">created_by</text>
<polygon fill="#c0c0c0" stroke="transparent" points="8,-377.7 8,-399.7 158,-399.7 158,-377.7 8,-377.7"/>
<polygon fill="none" stroke="#000000" points="8,-377.7 8,-399.7 158,-399.7 158,-377.7 8,-377.7"/>
<image xlink:href="../../images/foreignKeys.png" width="11px" height="12px" preserveAspectRatio="xMinYMin meet" x="13" y="-394.7"/>
<text text-anchor="start" x="28" y="-384.8" font-family="Helvetica,sans-Serif" font-size="11.00" fill="#000000">assigned_user_id</text>
<polygon fill="#ffffff" stroke="transparent" points="8,-355.7 8,-377.7 158,-377.7 158,-355.7 8,-355.7"/>
<polygon fill="none" stroke="#000000" points="8,-355.7 8,-377.7 158,-377.7 158,-355.7 8,-355.7"/>
<text text-anchor="start" x="28" y="-362.8" font-family="Helvetica,sans-Serif" font-size="11.00" fill="#000000">category_id</text>
<polygon fill="#ffffff" stroke="transparent" points="8,-333.7 8,-355.7 158,-355.7 158,-333.7 8,-333.7"/>
<polygon fill="none" stroke="#000000" points="8,-333.7 8,-355.7 158,-355.7 158,-333.7 8,-333.7"/>
<text text-anchor="start" x="28" y="-340.8" font-family="Helvetica,sans-Serif" font-size="11.00" fill="#000000">subcategory_id</text>
<polygon fill="none" stroke="#000000" points="8,-314.7 8,-333.7 158,-333.7 158,-314.7 8,-314.7"/>
<text text-anchor="start" x="11" y="-320.8" font-family="Helvetica,sans-Serif" font-size="11.00" fill="#000000">...</text>
<polygon fill="#ffffff" stroke="transparent" points="8,-295.7 8,-314.7 77,-314.7 77,-295.7 8,-295.7"/>
<polygon fill="none" stroke="#000000" points="8,-295.7 8,-314.7 77,-314.7 77,-295.7 8,-295.7"/>
<text text-anchor="start" x="11" y="-301.8" font-family="Helvetica,sans-Serif" font-size="11.00" fill="#000000">&lt; 3</text>
<polygon fill="#ffffff" stroke="transparent" points="77,-295.7 77,-314.7 113,-314.7 113,-295.7 77,-295.7"/>
<polygon fill="none" stroke="#000000" points="77,-295.7 77,-314.7 113,-314.7 113,-295.7 77,-295.7"/>
<text text-anchor="start" x="103.8862" y="-301.8" font-family="Helvetica,sans-Serif" font-size="11.00" fill="#000000"> &#160;</text>
<polygon fill="#ffffff" stroke="transparent" points="113,-295.7 113,-314.7 158,-314.7 158,-295.7 113,-295.7"/>
<polygon fill="none" stroke="#000000" points="113,-295.7 113,-314.7 158,-314.7 158,-295.7 113,-295.7"/>
<text text-anchor="start" x="139.4053" y="-301.8" font-family="Helvetica,sans-Serif" font-size="11.00" fill="#000000">9 &gt;</text>
</a>
</g>
</g>
<!-- documents_opportunities&#45;&gt;documents -->
<g id="edge1" class="edge">
<title>documents_opportunities:w&#45;&gt;documents:e</title>
<path fill="none" stroke="#000000" d="M195.3716,-362.825C170.9509,-381.2 200.3661,-454.7 158,-454.7"/>
<polygon fill="#000000" stroke="#000000" points="201.8206,-360.9422 210.509,-362.1557 205.6603,-359.8211 209.5,-358.7 209.5,-358.7 209.5,-358.7 205.6603,-359.8211 208.491,-355.2443 201.8206,-360.9422 201.8206,-360.9422"/>
<ellipse fill="none" stroke="#000000" cx="198.7489" cy="-361.839" rx="3.2" ry="3.2"/>
</g>
<!-- opportunities -->
<g id="node3" class="node">
<title>opportunities</title>
<g id="a_node3"><a xlink:href="../../tables/opportunities.html" xlink:title="opportunities" target="_top">
<polygon fill="#ffffff" stroke="transparent" points="21.5,-38.2 21.5,-275.2 144.5,-275.2 144.5,-38.2 21.5,-38.2"/>
<polygon fill="#f5f5f5" stroke="transparent" points="22,-251.7 22,-274.7 145,-274.7 145,-251.7 22,-251.7"/>
<polygon fill="none" stroke="#000000" points="22,-251.7 22,-274.7 145,-274.7 145,-251.7 22,-251.7"/>
<text text-anchor="start" x="27" y="-260.3" font-family="Helvetica,sans-Serif" font-weight="bold" font-size="11.00" fill="#000000">opportunities</text>
<text text-anchor="start" x="110.0437" y="-259.8" font-family="Helvetica,sans-Serif" font-size="11.00" fill="#000000">[table]</text>
<polygon fill="none" stroke="#000000" points="22,-229.7 22,-251.7 145,-251.7 145,-229.7 22,-229.7"/>
<image xlink:href="../../images/primaryKeys.png" width="11px" height="12px" preserveAspectRatio="xMinYMin meet" x="27" y="-246.7"/>
<text text-anchor="start" x="42" y="-236.8" font-family="Helvetica,sans-Serif" font-size="11.00" fill="#000000">id</text>
<polygon fill="#ffffff" stroke="transparent" points="22,-207.7 22,-229.7 145,-229.7 145,-207.7 22,-207.7"/>
<polygon fill="none" stroke="#000000" points="22,-207.7 22,-229.7 145,-229.7 145,-207.7 22,-207.7"/>
<text text-anchor="start" x="42" y="-214.8" font-family="Helvetica,sans-Serif" font-size="11.00" fill="#000000">name</text>
<polygon fill="#c0c0c0" stroke="transparent" points="22,-185.7 22,-207.7 145,-207.7 145,-185.7 22,-185.7"/>
<polygon fill="none" stroke="#000000" points="22,-185.7 22,-207.7 145,-207.7 145,-185.7 22,-185.7"/>
<image xlink:href="../../images/foreignKeys.png" width="11px" height="12px" preserveAspectRatio="xMinYMin meet" x="27" y="-202.7"/>
<text text-anchor="start" x="42" y="-192.8" font-family="Helvetica,sans-Serif" font-size="11.00" fill="#000000">modified_user_id</text>
<polygon fill="#c0c0c0" stroke="transparent" points="22,-163.7 22,-185.7 145,-185.7 145,-163.7 22,-163.7"/>
<polygon fill="none" stroke="#000000" points="22,-163.7 22,-185.7 145,-185.7 145,-163.7 22,-163.7"/>
<image xlink:href="../../images/foreignKeys.png" width="11px" height="12px" preserveAspectRatio="xMinYMin meet" x="27" y="-180.7"/>
<text text-anchor="start" x="42" y="-170.8" font-family="Helvetica,sans-Serif" font-size="11.00" fill="#000000">created_by</text>
<polygon fill="#ffffff" stroke="transparent" points="22,-141.7 22,-163.7 145,-163.7 145,-141.7 22,-141.7"/>
<polygon fill="none" stroke="#000000" points="22,-141.7 22,-163.7 145,-163.7 145,-141.7 22,-141.7"/>
<text text-anchor="start" x="42" y="-148.8" font-family="Helvetica,sans-Serif" font-size="11.00" fill="#000000">deleted</text>
<polygon fill="#c0c0c0" stroke="transparent" points="22,-119.7 22,-141.7 145,-141.7 145,-119.7 22,-119.7"/>
<polygon fill="none" stroke="#000000" points="22,-119.7 22,-141.7 145,-141.7 145,-119.7 22,-119.7"/>
<image xlink:href="../../images/foreignKeys.png" width="11px" height="12px" preserveAspectRatio="xMinYMin meet" x="27" y="-136.7"/>
<text text-anchor="start" x="42" y="-126.8" font-family="Helvetica,sans-Serif" font-size="11.00" fill="#000000">assigned_user_id</text>
<polygon fill="none" stroke="#000000" points="22,-97.7 22,-119.7 145,-119.7 145,-97.7 22,-97.7"/>
<image xlink:href="../../images/foreignKeys.png" width="11px" height="12px" preserveAspectRatio="xMinYMin meet" x="27" y="-114.7"/>
<text text-anchor="start" x="42" y="-104.8" font-family="Helvetica,sans-Serif" font-size="11.00" fill="#000000">campaign_id</text>
<polygon fill="none" stroke="#000000" points="22,-75.7 22,-97.7 145,-97.7 145,-75.7 22,-75.7"/>
<image xlink:href="../../images/primaryKeys.png" width="11px" height="12px" preserveAspectRatio="xMinYMin meet" x="27" y="-92.7"/>
<text text-anchor="start" x="42" y="-82.8" font-family="Helvetica,sans-Serif" font-size="11.00" fill="#000000">currency_id</text>
<polygon fill="none" stroke="#000000" points="22,-56.7 22,-75.7 145,-75.7 145,-56.7 22,-56.7"/>
<text text-anchor="start" x="25" y="-62.8" font-family="Helvetica,sans-Serif" font-size="11.00" fill="#000000">...</text>
<polygon fill="#ffffff" stroke="transparent" points="22,-37.7 22,-56.7 74,-56.7 74,-37.7 22,-37.7"/>
<polygon fill="none" stroke="#000000" points="22,-37.7 22,-56.7 74,-56.7 74,-37.7 22,-37.7"/>
<text text-anchor="start" x="25" y="-43.8" font-family="Helvetica,sans-Serif" font-size="11.00" fill="#000000">&lt; 6</text>
<polygon fill="#ffffff" stroke="transparent" points="74,-37.7 74,-56.7 102,-56.7 102,-37.7 74,-37.7"/>
<polygon fill="none" stroke="#000000" points="74,-37.7 74,-56.7 102,-56.7 102,-37.7 74,-37.7"/>
<text text-anchor="start" x="92.8862" y="-43.8" font-family="Helvetica,sans-Serif" font-size="11.00" fill="#000000"> &#160;</text>
<polygon fill="#ffffff" stroke="transparent" points="102,-37.7 102,-56.7 145,-56.7 145,-37.7 102,-37.7"/>
<polygon fill="none" stroke="#000000" points="102,-37.7 102,-56.7 145,-56.7 145,-37.7 102,-37.7"/>
<text text-anchor="start" x="120.2904" y="-43.8" font-family="Helvetica,sans-Serif" font-size="11.00" fill="#000000">17 &gt;</text>
</a>
</g>
</g>
<!-- documents_opportunities&#45;&gt;opportunities -->
<g id="edge2" class="edge">
<title>documents_opportunities:w&#45;&gt;opportunities:e</title>
<path fill="none" stroke="#000000" d="M195.2239,-333.2833C165.6248,-316.1819 190.5796,-240.7 145,-240.7"/>
<polygon fill="#000000" stroke="#000000" points="201.7197,-334.8379 208.6621,-340.2011 205.6099,-335.769 209.5,-336.7 209.5,-336.7 209.5,-336.7 205.6099,-335.769 210.3379,-333.1989 201.7197,-334.8379 201.7197,-334.8379"/>
<ellipse fill="none" stroke="#000000" cx="198.6076" cy="-334.0931" rx="3.2" ry="3.2"/>
</g>
</g>
</svg>
