<?xml version="1.0" encoding="UTF-8" standalone="no"?>
<!DOCTYPE svg PUBLIC "-//W3C//DTD SVG 1.1//EN"
 "http://www.w3.org/Graphics/SVG/1.1/DTD/svg11.dtd">
<!-- Generated by graphviz version 2.40.1 (20161225.0304)
 -->
<!-- Title: oneDegreeRelationshipsDiagram Pages: 1 -->
<svg width="688pt" height="644pt"
 viewBox="0.00 0.00 688.00 644.20" xmlns="http://www.w3.org/2000/svg" xmlns:xlink="http://www.w3.org/1999/xlink">
<g id="graph0" class="graph" transform="scale(1 1) rotate(0) translate(4 640.2)">
<title>oneDegreeRelationshipsDiagram</title>
<polygon fill="#ffffff" stroke="transparent" points="-4,4 -4,-640.2 684,-640.2 684,4 -4,4"/>
<text text-anchor="middle" x="72.4936" y="-7.3" font-family="Helvetica,sans-Serif" font-size="11.00" fill="#000000">Generated by SchemaSpy</text>
<!-- email_marketing -->
<g id="node1" class="node">
<title>email_marketing</title>
<g id="a_node1"><a xlink:href="../../tables/email_marketing.html" xlink:title="email_marketing" target="_top">
<polygon fill="#ffffff" stroke="transparent" points="193,-74.7 193,-516.7 398,-516.7 398,-74.7 193,-74.7"/>
<polygon fill="#f5f5f5" stroke="transparent" points="195.5,-491.7 195.5,-514.7 396.5,-514.7 396.5,-491.7 195.5,-491.7"/>
<polygon fill="none" stroke="#000000" points="195.5,-491.7 195.5,-514.7 396.5,-514.7 396.5,-491.7 195.5,-491.7"/>
<text text-anchor="start" x="200.5" y="-500.3" font-family="Helvetica,sans-Serif" font-weight="bold" font-size="11.00" fill="#000000">email_marketing</text>
<text text-anchor="start" x="361.5437" y="-499.8" font-family="Helvetica,sans-Serif" font-size="11.00" fill="#000000">[table]</text>
<polygon fill="none" stroke="#000000" points="195.5,-469.7 195.5,-491.7 329.5,-491.7 329.5,-469.7 195.5,-469.7"/>
<image xlink:href="../../images/primaryKeys.png" width="11px" height="12px" preserveAspectRatio="xMinYMin meet" x="200.5" y="-486.7"/>
<text text-anchor="start" x="215.5" y="-476.8" font-family="Helvetica,sans-Serif" font-size="11.00" fill="#000000">id</text>
<polygon fill="none" stroke="#000000" points="329.5,-469.7 329.5,-491.7 396.5,-491.7 396.5,-469.7 329.5,-469.7"/>
<text text-anchor="start" x="332.5" y="-477.4" font-family="Helvetica,sans-Serif" font-size="11.00" fill="#000000">char[36]</text>
<polygon fill="#ffffff" stroke="transparent" points="195.5,-447.7 195.5,-469.7 329.5,-469.7 329.5,-447.7 195.5,-447.7"/>
<polygon fill="none" stroke="#000000" points="195.5,-447.7 195.5,-469.7 329.5,-469.7 329.5,-447.7 195.5,-447.7"/>
<text text-anchor="start" x="215.5" y="-454.8" font-family="Helvetica,sans-Serif" font-size="11.00" fill="#000000">deleted</text>
<polygon fill="none" stroke="#000000" points="329.5,-447.7 329.5,-469.7 396.5,-469.7 396.5,-447.7 329.5,-447.7"/>
<text text-anchor="start" x="332.5" y="-455.4" font-family="Helvetica,sans-Serif" font-size="11.00" fill="#000000">boolean[3]</text>
<polygon fill="none" stroke="#000000" points="195.5,-425.7 195.5,-447.7 329.5,-447.7 329.5,-425.7 195.5,-425.7"/>
<text text-anchor="start" x="215.5" y="-432.8" font-family="Helvetica,sans-Serif" font-size="11.00" fill="#000000">date_entered</text>
<polygon fill="none" stroke="#000000" points="329.5,-425.7 329.5,-447.7 396.5,-447.7 396.5,-425.7 329.5,-425.7"/>
<text text-anchor="start" x="332.5" y="-433.4" font-family="Helvetica,sans-Serif" font-size="11.00" fill="#000000">datetime[19]</text>
<polygon fill="none" stroke="#000000" points="195.5,-403.7 195.5,-425.7 329.5,-425.7 329.5,-403.7 195.5,-403.7"/>
<text text-anchor="start" x="215.5" y="-410.8" font-family="Helvetica,sans-Serif" font-size="11.00" fill="#000000">date_modified</text>
<polygon fill="none" stroke="#000000" points="329.5,-403.7 329.5,-425.7 396.5,-425.7 396.5,-403.7 329.5,-403.7"/>
<text text-anchor="start" x="332.5" y="-411.4" font-family="Helvetica,sans-Serif" font-size="11.00" fill="#000000">datetime[19]</text>
<polygon fill="none" stroke="#000000" points="195.5,-381.7 195.5,-403.7 329.5,-403.7 329.5,-381.7 195.5,-381.7"/>
<text text-anchor="start" x="215.5" y="-388.8" font-family="Helvetica,sans-Serif" font-size="11.00" fill="#000000">modified_user_id</text>
<polygon fill="none" stroke="#000000" points="329.5,-381.7 329.5,-403.7 396.5,-403.7 396.5,-381.7 329.5,-381.7"/>
<text text-anchor="start" x="332.5" y="-389.4" font-family="Helvetica,sans-Serif" font-size="11.00" fill="#000000">char[36]</text>
<polygon fill="none" stroke="#000000" points="195.5,-359.7 195.5,-381.7 329.5,-381.7 329.5,-359.7 195.5,-359.7"/>
<text text-anchor="start" x="215.5" y="-366.8" font-family="Helvetica,sans-Serif" font-size="11.00" fill="#000000">created_by</text>
<polygon fill="none" stroke="#000000" points="329.5,-359.7 329.5,-381.7 396.5,-381.7 396.5,-359.7 329.5,-359.7"/>
<text text-anchor="start" x="332.5" y="-367.4" font-family="Helvetica,sans-Serif" font-size="11.00" fill="#000000">char[36]</text>
<polygon fill="#ffffff" stroke="transparent" points="195.5,-337.7 195.5,-359.7 329.5,-359.7 329.5,-337.7 195.5,-337.7"/>
<polygon fill="none" stroke="#000000" points="195.5,-337.7 195.5,-359.7 329.5,-359.7 329.5,-337.7 195.5,-337.7"/>
<text text-anchor="start" x="215.5" y="-344.8" font-family="Helvetica,sans-Serif" font-size="11.00" fill="#000000">name</text>
<polygon fill="none" stroke="#000000" points="329.5,-337.7 329.5,-359.7 396.5,-359.7 396.5,-337.7 329.5,-337.7"/>
<text text-anchor="start" x="332.4365" y="-345.4" font-family="Helvetica,sans-Serif" font-size="11.00" fill="#000000">varchar[255]</text>
<polygon fill="none" stroke="#000000" points="195.5,-315.7 195.5,-337.7 329.5,-337.7 329.5,-315.7 195.5,-315.7"/>
<text text-anchor="start" x="215.5" y="-322.8" font-family="Helvetica,sans-Serif" font-size="11.00" fill="#000000">from_name</text>
<polygon fill="none" stroke="#000000" points="329.5,-315.7 329.5,-337.7 396.5,-337.7 396.5,-315.7 329.5,-315.7"/>
<text text-anchor="start" x="332.4365" y="-323.4" font-family="Helvetica,sans-Serif" font-size="11.00" fill="#000000">varchar[100]</text>
<polygon fill="none" stroke="#000000" points="195.5,-293.7 195.5,-315.7 329.5,-315.7 329.5,-293.7 195.5,-293.7"/>
<text text-anchor="start" x="215.5" y="-300.8" font-family="Helvetica,sans-Serif" font-size="11.00" fill="#000000">from_addr</text>
<polygon fill="none" stroke="#000000" points="329.5,-293.7 329.5,-315.7 396.5,-315.7 396.5,-293.7 329.5,-293.7"/>
<text text-anchor="start" x="332.4365" y="-301.4" font-family="Helvetica,sans-Serif" font-size="11.00" fill="#000000">varchar[100]</text>
<polygon fill="none" stroke="#000000" points="195.5,-271.7 195.5,-293.7 329.5,-293.7 329.5,-271.7 195.5,-271.7"/>
<text text-anchor="start" x="215.5" y="-278.8" font-family="Helvetica,sans-Serif" font-size="11.00" fill="#000000">reply_to_name</text>
<polygon fill="none" stroke="#000000" points="329.5,-271.7 329.5,-293.7 396.5,-293.7 396.5,-271.7 329.5,-271.7"/>
<text text-anchor="start" x="332.4365" y="-279.4" font-family="Helvetica,sans-Serif" font-size="11.00" fill="#000000">varchar[100]</text>
<polygon fill="none" stroke="#000000" points="195.5,-249.7 195.5,-271.7 329.5,-271.7 329.5,-249.7 195.5,-249.7"/>
<text text-anchor="start" x="215.5" y="-256.8" font-family="Helvetica,sans-Serif" font-size="11.00" fill="#000000">reply_to_addr</text>
<polygon fill="none" stroke="#000000" points="329.5,-249.7 329.5,-271.7 396.5,-271.7 396.5,-249.7 329.5,-249.7"/>
<text text-anchor="start" x="332.4365" y="-257.4" font-family="Helvetica,sans-Serif" font-size="11.00" fill="#000000">varchar[100]</text>
<polygon fill="none" stroke="#000000" points="195.5,-227.7 195.5,-249.7 329.5,-249.7 329.5,-227.7 195.5,-227.7"/>
<text text-anchor="start" x="215.5" y="-234.8" font-family="Helvetica,sans-Serif" font-size="11.00" fill="#000000">inbound_email_id</text>
<polygon fill="none" stroke="#000000" points="329.5,-227.7 329.5,-249.7 396.5,-249.7 396.5,-227.7 329.5,-227.7"/>
<text text-anchor="start" x="332.5" y="-235.4" font-family="Helvetica,sans-Serif" font-size="11.00" fill="#000000">varchar[36]</text>
<polygon fill="none" stroke="#000000" points="195.5,-205.7 195.5,-227.7 329.5,-227.7 329.5,-205.7 195.5,-205.7"/>
<text text-anchor="start" x="215.5" y="-212.8" font-family="Helvetica,sans-Serif" font-size="11.00" fill="#000000">date_start</text>
<polygon fill="none" stroke="#000000" points="329.5,-205.7 329.5,-227.7 396.5,-227.7 396.5,-205.7 329.5,-205.7"/>
<text text-anchor="start" x="332.5" y="-213.4" font-family="Helvetica,sans-Serif" font-size="11.00" fill="#000000">datetime[19]</text>
<polygon fill="none" stroke="#000000" points="195.5,-183.7 195.5,-205.7 329.5,-205.7 329.5,-183.7 195.5,-183.7"/>
<image xlink:href="../../images/foreignKeys.png" width="11px" height="12px" preserveAspectRatio="xMinYMin meet" x="200.5" y="-200.7"/>
<text text-anchor="start" x="215.5" y="-190.8" font-family="Helvetica,sans-Serif" font-size="11.00" fill="#000000">template_id</text>
<polygon fill="none" stroke="#000000" points="329.5,-183.7 329.5,-205.7 396.5,-205.7 396.5,-183.7 329.5,-183.7"/>
<text text-anchor="start" x="332.5" y="-191.4" font-family="Helvetica,sans-Serif" font-size="11.00" fill="#000000">char[36]</text>
<polygon fill="none" stroke="#000000" points="195.5,-161.7 195.5,-183.7 329.5,-183.7 329.5,-161.7 195.5,-161.7"/>
<text text-anchor="start" x="215.5" y="-168.8" font-family="Helvetica,sans-Serif" font-size="11.00" fill="#000000">status</text>
<polygon fill="none" stroke="#000000" points="329.5,-161.7 329.5,-183.7 396.5,-183.7 396.5,-161.7 329.5,-161.7"/>
<text text-anchor="start" x="332.4365" y="-169.4" font-family="Helvetica,sans-Serif" font-size="11.00" fill="#000000">varchar[100]</text>
<polygon fill="none" stroke="#000000" points="195.5,-139.7 195.5,-161.7 329.5,-161.7 329.5,-139.7 195.5,-139.7"/>
<image xlink:href="../../images/foreignKeys.png" width="11px" height="12px" preserveAspectRatio="xMinYMin meet" x="200.5" y="-156.7"/>
<text text-anchor="start" x="215.5" y="-146.8" font-family="Helvetica,sans-Serif" font-size="11.00" fill="#000000">campaign_id</text>
<polygon fill="none" stroke="#000000" points="329.5,-139.7 329.5,-161.7 396.5,-161.7 396.5,-139.7 329.5,-139.7"/>
<text text-anchor="start" x="332.5" y="-147.4" font-family="Helvetica,sans-Serif" font-size="11.00" fill="#000000">char[36]</text>
<polygon fill="none" stroke="#000000" points="195.5,-117.7 195.5,-139.7 329.5,-139.7 329.5,-117.7 195.5,-117.7"/>
<text text-anchor="start" x="215.5" y="-124.8" font-family="Helvetica,sans-Serif" font-size="11.00" fill="#000000">outbound_email_id</text>
<polygon fill="none" stroke="#000000" points="329.5,-117.7 329.5,-139.7 396.5,-139.7 396.5,-117.7 329.5,-117.7"/>
<text text-anchor="start" x="332.5" y="-125.4" font-family="Helvetica,sans-Serif" font-size="11.00" fill="#000000">char[36]</text>
<polygon fill="none" stroke="#000000" points="195.5,-95.7 195.5,-117.7 329.5,-117.7 329.5,-95.7 195.5,-95.7"/>
<text text-anchor="start" x="215.5" y="-102.8" font-family="Helvetica,sans-Serif" font-size="11.00" fill="#000000">all_prospect_lists</text>
<polygon fill="none" stroke="#000000" points="329.5,-95.7 329.5,-117.7 396.5,-117.7 396.5,-95.7 329.5,-95.7"/>
<text text-anchor="start" x="332.5" y="-103.4" font-family="Helvetica,sans-Serif" font-size="11.00" fill="#000000">boolean[3]</text>
<polygon fill="#ffffff" stroke="transparent" points="195.5,-76.7 195.5,-95.7 266.5,-95.7 266.5,-76.7 195.5,-76.7"/>
<polygon fill="none" stroke="#000000" points="195.5,-76.7 195.5,-95.7 266.5,-95.7 266.5,-76.7 195.5,-76.7"/>
<text text-anchor="start" x="198.5" y="-82.8" font-family="Helvetica,sans-Serif" font-size="11.00" fill="#000000">&lt; 2</text>
<polygon fill="#ffffff" stroke="transparent" points="266.5,-76.7 266.5,-95.7 329.5,-95.7 329.5,-76.7 266.5,-76.7"/>
<polygon fill="none" stroke="#000000" points="266.5,-76.7 266.5,-95.7 329.5,-95.7 329.5,-76.7 266.5,-76.7"/>
<text text-anchor="start" x="320.3862" y="-82.8" font-family="Helvetica,sans-Serif" font-size="11.00" fill="#000000"> &#160;</text>
<polygon fill="#ffffff" stroke="transparent" points="329.5,-76.7 329.5,-95.7 396.5,-95.7 396.5,-76.7 329.5,-76.7"/>
<polygon fill="none" stroke="#000000" points="329.5,-76.7 329.5,-95.7 396.5,-95.7 396.5,-76.7 329.5,-76.7"/>
<text text-anchor="start" x="377.9053" y="-82.8" font-family="Helvetica,sans-Serif" font-size="11.00" fill="#000000">2 &gt;</text>
<polygon fill="none" stroke="#000000" stroke-width="2" points="194,-75.7 194,-515.7 397,-515.7 397,-75.7 194,-75.7"/>
</a>
</g>
</g>
<!-- campaigns -->
<g id="node2" class="node">
<title>campaigns</title>
<g id="a_node2"><a xlink:href="../../tables/campaigns.html" xlink:title="campaigns" target="_top">
<polygon fill="#ffffff" stroke="transparent" points="11.5,-38.2 11.5,-253.2 140.5,-253.2 140.5,-38.2 11.5,-38.2"/>
<polygon fill="#f5f5f5" stroke="transparent" points="12,-229.7 12,-252.7 141,-252.7 141,-229.7 12,-229.7"/>
<polygon fill="none" stroke="#000000" points="12,-229.7 12,-252.7 141,-252.7 141,-229.7 12,-229.7"/>
<text text-anchor="start" x="17" y="-238.3" font-family="Helvetica,sans-Serif" font-weight="bold" font-size="11.00" fill="#000000">campaigns</text>
<text text-anchor="start" x="106.0437" y="-237.8" font-family="Helvetica,sans-Serif" font-size="11.00" fill="#000000">[table]</text>
<polygon fill="none" stroke="#000000" points="12,-207.7 12,-229.7 141,-229.7 141,-207.7 12,-207.7"/>
<image xlink:href="../../images/primaryKeys.png" width="11px" height="12px" preserveAspectRatio="xMinYMin meet" x="17" y="-224.7"/>
<text text-anchor="start" x="32" y="-214.8" font-family="Helvetica,sans-Serif" font-size="11.00" fill="#000000">id</text>
<polygon fill="#ffffff" stroke="transparent" points="12,-185.7 12,-207.7 141,-207.7 141,-185.7 12,-185.7"/>
<polygon fill="none" stroke="#000000" points="12,-185.7 12,-207.7 141,-207.7 141,-185.7 12,-185.7"/>
<text text-anchor="start" x="32" y="-192.8" font-family="Helvetica,sans-Serif" font-size="11.00" fill="#000000">name</text>
<polygon fill="#c0c0c0" stroke="transparent" points="12,-163.7 12,-185.7 141,-185.7 141,-163.7 12,-163.7"/>
<polygon fill="none" stroke="#000000" points="12,-163.7 12,-185.7 141,-185.7 141,-163.7 12,-163.7"/>
<image xlink:href="../../images/foreignKeys.png" width="11px" height="12px" preserveAspectRatio="xMinYMin meet" x="17" y="-180.7"/>
<text text-anchor="start" x="32" y="-170.8" font-family="Helvetica,sans-Serif" font-size="11.00" fill="#000000">modified_user_id</text>
<polygon fill="#c0c0c0" stroke="transparent" points="12,-141.7 12,-163.7 141,-163.7 141,-141.7 12,-141.7"/>
<polygon fill="none" stroke="#000000" points="12,-141.7 12,-163.7 141,-163.7 141,-141.7 12,-141.7"/>
<image xlink:href="../../images/foreignKeys.png" width="11px" height="12px" preserveAspectRatio="xMinYMin meet" x="17" y="-158.7"/>
<text text-anchor="start" x="32" y="-148.8" font-family="Helvetica,sans-Serif" font-size="11.00" fill="#000000">created_by</text>
<polygon fill="#c0c0c0" stroke="transparent" points="12,-119.7 12,-141.7 141,-141.7 141,-119.7 12,-119.7"/>
<polygon fill="none" stroke="#000000" points="12,-119.7 12,-141.7 141,-141.7 141,-119.7 12,-119.7"/>
<image xlink:href="../../images/foreignKeys.png" width="11px" height="12px" preserveAspectRatio="xMinYMin meet" x="17" y="-136.7"/>
<text text-anchor="start" x="32" y="-126.8" font-family="Helvetica,sans-Serif" font-size="11.00" fill="#000000">assigned_user_id</text>
<polygon fill="#ffffff" stroke="transparent" points="12,-97.7 12,-119.7 141,-119.7 141,-97.7 12,-97.7"/>
<polygon fill="none" stroke="#000000" points="12,-97.7 12,-119.7 141,-119.7 141,-97.7 12,-97.7"/>
<text text-anchor="start" x="32" y="-104.8" font-family="Helvetica,sans-Serif" font-size="11.00" fill="#000000">tracker_key</text>
<polygon fill="#ffffff" stroke="transparent" points="12,-75.7 12,-97.7 141,-97.7 141,-75.7 12,-75.7"/>
<polygon fill="none" stroke="#000000" points="12,-75.7 12,-97.7 141,-97.7 141,-75.7 12,-75.7"/>
<image xlink:href="../../images/foreignKeys.png" width="11px" height="12px" preserveAspectRatio="xMinYMin meet" x="17" y="-92.7"/>
<text text-anchor="start" x="32" y="-82.8" font-family="Helvetica,sans-Serif" font-size="11.00" fill="#000000">survey_id</text>
<polygon fill="none" stroke="#000000" points="12,-56.7 12,-75.7 141,-75.7 141,-56.7 12,-56.7"/>
<text text-anchor="start" x="15" y="-62.8" font-family="Helvetica,sans-Serif" font-size="11.00" fill="#000000">...</text>
<polygon fill="#ffffff" stroke="transparent" points="12,-37.7 12,-56.7 67,-56.7 67,-37.7 12,-37.7"/>
<polygon fill="none" stroke="#000000" points="12,-37.7 12,-56.7 67,-56.7 67,-37.7 12,-37.7"/>
<text text-anchor="start" x="15" y="-43.8" font-family="Helvetica,sans-Serif" font-size="11.00" fill="#000000">&lt; 4</text>
<polygon fill="#ffffff" stroke="transparent" points="67,-37.7 67,-56.7 96,-56.7 96,-37.7 67,-37.7"/>
<polygon fill="none" stroke="#000000" points="67,-37.7 67,-56.7 96,-56.7 96,-37.7 67,-37.7"/>
<text text-anchor="start" x="86.8862" y="-43.8" font-family="Helvetica,sans-Serif" font-size="11.00" fill="#000000"> &#160;</text>
<polygon fill="#ffffff" stroke="transparent" points="96,-37.7 96,-56.7 141,-56.7 141,-37.7 96,-37.7"/>
<polygon fill="none" stroke="#000000" points="96,-37.7 96,-56.7 141,-56.7 141,-37.7 96,-37.7"/>
<text text-anchor="start" x="116.2904" y="-43.8" font-family="Helvetica,sans-Serif" font-size="11.00" fill="#000000">14 &gt;</text>
</a>
</g>
</g>
<!-- email_marketing&#45;&gt;campaigns -->
<g id="edge1" class="edge">
<title>email_marketing:w&#45;&gt;campaigns:e</title>
<path fill="none" stroke="#000000" d="M181.6579,-154.9537C162.3334,-169.8406 173.8307,-218.7 141,-218.7"/>
<polygon fill="#000000" stroke="#000000" points="187.8529,-153.05 196.5575,-154.1412 191.6765,-151.875 195.5,-150.7 195.5,-150.7 195.5,-150.7 191.6765,-151.875 194.4425,-147.2588 187.8529,-153.05 187.8529,-153.05"/>
<ellipse fill="none" stroke="#000000" cx="184.7941" cy="-153.99" rx="3.2" ry="3.2"/>
</g>
<!-- email_templates -->
<g id="node3" class="node">
<title>email_templates</title>
<g id="a_node3"><a xlink:href="../../tables/email_templates.html" xlink:title="email_templates" target="_top">
<polygon fill="#ffffff" stroke="transparent" points="8,-408.2 8,-535.2 144,-535.2 144,-408.2 8,-408.2"/>
<polygon fill="#f5f5f5" stroke="transparent" points="8,-511.7 8,-534.7 144,-534.7 144,-511.7 8,-511.7"/>
<polygon fill="none" stroke="#000000" points="8,-511.7 8,-534.7 144,-534.7 144,-511.7 8,-511.7"/>
<text text-anchor="start" x="13" y="-520.3" font-family="Helvetica,sans-Serif" font-weight="bold" font-size="11.00" fill="#000000">email_templates</text>
<text text-anchor="start" x="109.5219" y="-519.8" font-family="Helvetica,sans-Serif" font-size="11.00" fill="#000000">[table]</text>
<polygon fill="none" stroke="#000000" points="8,-489.7 8,-511.7 144,-511.7 144,-489.7 8,-489.7"/>
<image xlink:href="../../images/primaryKeys.png" width="11px" height="12px" preserveAspectRatio="xMinYMin meet" x="13" y="-506.7"/>
<text text-anchor="start" x="35" y="-496.8" font-family="Helvetica,sans-Serif" font-size="11.00" fill="#000000">id</text>
<polygon fill="#ffffff" stroke="transparent" points="8,-467.7 8,-489.7 144,-489.7 144,-467.7 8,-467.7"/>
<polygon fill="none" stroke="#000000" points="8,-467.7 8,-489.7 144,-489.7 144,-467.7 8,-467.7"/>
<text text-anchor="start" x="35" y="-474.8" font-family="Helvetica,sans-Serif" font-size="11.00" fill="#000000">name</text>
<polygon fill="#c0c0c0" stroke="transparent" points="8,-445.7 8,-467.7 144,-467.7 144,-445.7 8,-445.7"/>
<polygon fill="none" stroke="#000000" points="8,-445.7 8,-467.7 144,-467.7 144,-445.7 8,-445.7"/>
<image xlink:href="../../images/foreignKeys.png" width="11px" height="12px" preserveAspectRatio="xMinYMin meet" x="13" y="-462.7"/>
<text text-anchor="start" x="35" y="-452.8" font-family="Helvetica,sans-Serif" font-size="11.00" fill="#000000">assigned_user_id</text>
<polygon fill="none" stroke="#000000" points="8,-426.7 8,-445.7 144,-445.7 144,-426.7 8,-426.7"/>
<text text-anchor="start" x="11" y="-432.8" font-family="Helvetica,sans-Serif" font-size="11.00" fill="#000000">...</text>
<polygon fill="#ffffff" stroke="transparent" points="8,-407.7 8,-426.7 70,-426.7 70,-407.7 8,-407.7"/>
<polygon fill="none" stroke="#000000" points="8,-407.7 8,-426.7 70,-426.7 70,-407.7 8,-407.7"/>
<text text-anchor="start" x="11" y="-413.8" font-family="Helvetica,sans-Serif" font-size="11.00" fill="#000000">&lt; 1</text>
<polygon fill="#ffffff" stroke="transparent" points="70,-407.7 70,-426.7 102,-426.7 102,-407.7 70,-407.7"/>
<polygon fill="none" stroke="#000000" points="70,-407.7 70,-426.7 102,-426.7 102,-407.7 70,-407.7"/>
<text text-anchor="start" x="92.8862" y="-413.8" font-family="Helvetica,sans-Serif" font-size="11.00" fill="#000000"> &#160;</text>
<polygon fill="#ffffff" stroke="transparent" points="102,-407.7 102,-426.7 144,-426.7 144,-407.7 102,-407.7"/>
<polygon fill="none" stroke="#000000" points="102,-407.7 102,-426.7 144,-426.7 144,-407.7 102,-407.7"/>
<text text-anchor="start" x="125.4053" y="-413.8" font-family="Helvetica,sans-Serif" font-size="11.00" fill="#000000">4 &gt;</text>
</a>
</g>
</g>
<!-- email_marketing&#45;&gt;email_templates -->
<g id="edge2" class="edge">
<title>email_marketing:w&#45;&gt;email_templates:e</title>
<path fill="none" stroke="#000000" d="M182.0351,-200.0112C139.0974,-240.6448 207.5691,-500.7 144,-500.7"/>
<polygon fill="#000000" stroke="#000000" points="188.058,-197.6355 196.821,-198.0489 191.779,-196.1678 195.5,-194.7 195.5,-194.7 195.5,-194.7 191.779,-196.1678 194.179,-191.3511 188.058,-197.6355 188.058,-197.6355"/>
<ellipse fill="none" stroke="#000000" cx="185.0812" cy="-198.8097" rx="3.2" ry="3.2"/>
</g>
<!-- email_marketing_prospect_lists -->
<g id="node4" class="node">
<title>email_marketing_prospect_lists</title>
<g id="a_node4"><a xlink:href="../../tables/email_marketing_prospect_lists.html" xlink:title="email_marketing_prospect_lists" target="_top">
<polygon fill="#ffffff" stroke="transparent" points="447,-291.2 447,-440.2 672,-440.2 672,-291.2 447,-291.2"/>
<polygon fill="#f5f5f5" stroke="transparent" points="447.5,-416.7 447.5,-439.7 672.5,-439.7 672.5,-416.7 447.5,-416.7"/>
<polygon fill="none" stroke="#000000" points="447.5,-416.7 447.5,-439.7 672.5,-439.7 672.5,-416.7 447.5,-416.7"/>
<text text-anchor="start" x="452.5" y="-425.3" font-family="Helvetica,sans-Serif" font-weight="bold" font-size="11.00" fill="#000000">email_marketing_prospect_lists</text>
<text text-anchor="start" x="638.0219" y="-424.8" font-family="Helvetica,sans-Serif" font-size="11.00" fill="#000000">[table]</text>
<polygon fill="none" stroke="#000000" points="447.5,-394.7 447.5,-416.7 672.5,-416.7 672.5,-394.7 447.5,-394.7"/>
<image xlink:href="../../images/primaryKeys.png" width="11px" height="12px" preserveAspectRatio="xMinYMin meet" x="452.5" y="-411.7"/>
<text text-anchor="start" x="476.5" y="-401.8" font-family="Helvetica,sans-Serif" font-size="11.00" fill="#000000">id</text>
<polygon fill="#ffffff" stroke="transparent" points="447.5,-372.7 447.5,-394.7 672.5,-394.7 672.5,-372.7 447.5,-372.7"/>
<polygon fill="none" stroke="#000000" points="447.5,-372.7 447.5,-394.7 672.5,-394.7 672.5,-372.7 447.5,-372.7"/>
<image xlink:href="../../images/foreignKeys.png" width="11px" height="12px" preserveAspectRatio="xMinYMin meet" x="452.5" y="-389.7"/>
<text text-anchor="start" x="476.5" y="-379.8" font-family="Helvetica,sans-Serif" font-size="11.00" fill="#000000">prospect_list_id</text>
<polygon fill="#ffffff" stroke="transparent" points="447.5,-350.7 447.5,-372.7 672.5,-372.7 672.5,-350.7 447.5,-350.7"/>
<polygon fill="none" stroke="#000000" points="447.5,-350.7 447.5,-372.7 672.5,-372.7 672.5,-350.7 447.5,-350.7"/>
<image xlink:href="../../images/foreignKeys.png" width="11px" height="12px" preserveAspectRatio="xMinYMin meet" x="452.5" y="-367.7"/>
<text text-anchor="start" x="476.5" y="-357.8" font-family="Helvetica,sans-Serif" font-size="11.00" fill="#000000">email_marketing_id</text>
<polygon fill="#ffffff" stroke="transparent" points="447.5,-328.7 447.5,-350.7 672.5,-350.7 672.5,-328.7 447.5,-328.7"/>
<polygon fill="none" stroke="#000000" points="447.5,-328.7 447.5,-350.7 672.5,-350.7 672.5,-328.7 447.5,-328.7"/>
<text text-anchor="start" x="476.5" y="-335.8" font-family="Helvetica,sans-Serif" font-size="11.00" fill="#000000">deleted</text>
<polygon fill="none" stroke="#000000" points="447.5,-309.7 447.5,-328.7 672.5,-328.7 672.5,-309.7 447.5,-309.7"/>
<text text-anchor="start" x="450.5" y="-315.8" font-family="Helvetica,sans-Serif" font-size="11.00" fill="#000000">...</text>
<polygon fill="#ffffff" stroke="transparent" points="447.5,-290.7 447.5,-309.7 558.5,-309.7 558.5,-290.7 447.5,-290.7"/>
<polygon fill="none" stroke="#000000" points="447.5,-290.7 447.5,-309.7 558.5,-309.7 558.5,-290.7 447.5,-290.7"/>
<text text-anchor="start" x="450.5" y="-296.8" font-family="Helvetica,sans-Serif" font-size="11.00" fill="#000000">&lt; 2</text>
<polygon fill="#ffffff" stroke="transparent" points="558.5,-290.7 558.5,-309.7 615.5,-309.7 615.5,-290.7 558.5,-290.7"/>
<polygon fill="none" stroke="#000000" points="558.5,-290.7 558.5,-309.7 615.5,-309.7 615.5,-290.7 558.5,-290.7"/>
<text text-anchor="start" x="606.3862" y="-296.8" font-family="Helvetica,sans-Serif" font-size="11.00" fill="#000000"> &#160;</text>
<polygon fill="#ffffff" stroke="transparent" points="615.5,-290.7 615.5,-309.7 672.5,-309.7 672.5,-290.7 615.5,-290.7"/>
<polygon fill="none" stroke="#000000" points="615.5,-290.7 615.5,-309.7 672.5,-309.7 672.5,-290.7 615.5,-290.7"/>
<text text-anchor="start" x="663.3862" y="-296.8" font-family="Helvetica,sans-Serif" font-size="11.00" fill="#000000"> &#160;</text>
</a>
</g>
</g>
<!-- email_marketing_prospect_lists&#45;&gt;email_marketing -->
<g id="edge3" class="edge">
<title>email_marketing_prospect_lists:w&#45;&gt;email_marketing:e</title>
<path fill="none" stroke="#000000" d="M433.4767,-365.1331C401.7209,-384.6444 448.1973,-480.7 396.5,-480.7"/>
<polygon fill="#000000" stroke="#000000" points="439.7295,-363.6024 448.3561,-365.1967 443.6147,-362.6512 447.5,-361.7 447.5,-361.7 447.5,-361.7 443.6147,-362.6512 446.6439,-358.2033 439.7295,-363.6024 439.7295,-363.6024"/>
<ellipse fill="none" stroke="#000000" cx="436.6213" cy="-364.3633" rx="3.2" ry="3.2"/>
</g>
<!-- securitygroups_records -->
<g id="node5" class="node">
<title>securitygroups_records</title>
<g id="a_node5"><a xlink:href="../../tables/securitygroups_records.html" xlink:title="securitygroups_records" target="_top">
<polygon fill="#ffffff" stroke="transparent" points="470.5,-461.2 470.5,-632.2 648.5,-632.2 648.5,-461.2 470.5,-461.2"/>
<polygon fill="#f5f5f5" stroke="transparent" points="470.5,-608.7 470.5,-631.7 648.5,-631.7 648.5,-608.7 470.5,-608.7"/>
<polygon fill="none" stroke="#000000" points="470.5,-608.7 470.5,-631.7 648.5,-631.7 648.5,-608.7 470.5,-608.7"/>
<text text-anchor="start" x="475.5" y="-617.3" font-family="Helvetica,sans-Serif" font-weight="bold" font-size="11.00" fill="#000000">securitygroups_records</text>
<text text-anchor="start" x="614.0219" y="-616.8" font-family="Helvetica,sans-Serif" font-size="11.00" fill="#000000">[table]</text>
<polygon fill="none" stroke="#000000" points="470.5,-586.7 470.5,-608.7 648.5,-608.7 648.5,-586.7 470.5,-586.7"/>
<image xlink:href="../../images/primaryKeys.png" width="11px" height="12px" preserveAspectRatio="xMinYMin meet" x="475.5" y="-603.7"/>
<text text-anchor="start" x="499.5" y="-593.8" font-family="Helvetica,sans-Serif" font-size="11.00" fill="#000000">id</text>
<polygon fill="#ffffff" stroke="transparent" points="470.5,-564.7 470.5,-586.7 648.5,-586.7 648.5,-564.7 470.5,-564.7"/>
<polygon fill="none" stroke="#000000" points="470.5,-564.7 470.5,-586.7 648.5,-586.7 648.5,-564.7 470.5,-564.7"/>
<image xlink:href="../../images/foreignKeys.png" width="11px" height="12px" preserveAspectRatio="xMinYMin meet" x="475.5" y="-581.7"/>
<text text-anchor="start" x="499.5" y="-571.8" font-family="Helvetica,sans-Serif" font-size="11.00" fill="#000000">securitygroup_id</text>
<polygon fill="#ffffff" stroke="transparent" points="470.5,-542.7 470.5,-564.7 648.5,-564.7 648.5,-542.7 470.5,-542.7"/>
<polygon fill="none" stroke="#000000" points="470.5,-542.7 470.5,-564.7 648.5,-564.7 648.5,-542.7 470.5,-542.7"/>
<image xlink:href="../../images/foreignKeys.png" width="11px" height="12px" preserveAspectRatio="xMinYMin meet" x="475.5" y="-559.7"/>
<text text-anchor="start" x="499.5" y="-549.8" font-family="Helvetica,sans-Serif" font-size="11.00" fill="#000000">record_id</text>
<polygon fill="#ffffff" stroke="transparent" points="470.5,-520.7 470.5,-542.7 648.5,-542.7 648.5,-520.7 470.5,-520.7"/>
<polygon fill="none" stroke="#000000" points="470.5,-520.7 470.5,-542.7 648.5,-542.7 648.5,-520.7 470.5,-520.7"/>
<text text-anchor="start" x="499.5" y="-527.8" font-family="Helvetica,sans-Serif" font-size="11.00" fill="#000000">module</text>
<polygon fill="#ffffff" stroke="transparent" points="470.5,-498.7 470.5,-520.7 648.5,-520.7 648.5,-498.7 470.5,-498.7"/>
<polygon fill="none" stroke="#000000" points="470.5,-498.7 470.5,-520.7 648.5,-520.7 648.5,-498.7 470.5,-498.7"/>
<text text-anchor="start" x="499.5" y="-505.8" font-family="Helvetica,sans-Serif" font-size="11.00" fill="#000000">deleted</text>
<polygon fill="none" stroke="#000000" points="470.5,-479.7 470.5,-498.7 648.5,-498.7 648.5,-479.7 470.5,-479.7"/>
<text text-anchor="start" x="473.5" y="-485.8" font-family="Helvetica,sans-Serif" font-size="11.00" fill="#000000">...</text>
<polygon fill="#ffffff" stroke="transparent" points="470.5,-460.7 470.5,-479.7 560.5,-479.7 560.5,-460.7 470.5,-460.7"/>
<polygon fill="none" stroke="#000000" points="470.5,-460.7 470.5,-479.7 560.5,-479.7 560.5,-460.7 470.5,-460.7"/>
<text text-anchor="start" x="473.5" y="-466.8" font-family="Helvetica,sans-Serif" font-size="11.00" fill="#000000">&lt; 46</text>
<polygon fill="#ffffff" stroke="transparent" points="560.5,-460.7 560.5,-479.7 604.5,-479.7 604.5,-460.7 560.5,-460.7"/>
<polygon fill="none" stroke="#000000" points="560.5,-460.7 560.5,-479.7 604.5,-479.7 604.5,-460.7 560.5,-460.7"/>
<text text-anchor="start" x="595.3862" y="-466.8" font-family="Helvetica,sans-Serif" font-size="11.00" fill="#000000"> &#160;</text>
<polygon fill="#ffffff" stroke="transparent" points="604.5,-460.7 604.5,-479.7 648.5,-479.7 648.5,-460.7 604.5,-460.7"/>
<polygon fill="none" stroke="#000000" points="604.5,-460.7 604.5,-479.7 648.5,-479.7 648.5,-460.7 604.5,-460.7"/>
<text text-anchor="start" x="639.3862" y="-466.8" font-family="Helvetica,sans-Serif" font-size="11.00" fill="#000000"> &#160;</text>
</a>
</g>
</g>
<!-- securitygroups_records&#45;&gt;email_marketing -->
<g id="edge5" class="edge">
<title>securitygroups_records:w&#45;&gt;email_marketing:e</title>
<path fill="none" stroke="#000000" d="M456.3291,-550.7479C427.8097,-537.0908 437.1043,-480.7 396.5,-480.7"/>
<polygon fill="#000000" stroke="#000000" points="462.6681,-552.0684 469.7658,-557.2243 466.5841,-552.8842 470.5,-553.7 470.5,-553.7 470.5,-553.7 466.5841,-552.8842 471.2342,-550.1757 462.6681,-552.0684 462.6681,-552.0684"/>
<ellipse fill="none" stroke="#000000" cx="459.5354" cy="-551.4158" rx="3.2" ry="3.2"/>
</g>
<!-- securitygroups_records&#45;&gt;campaigns -->
<g id="edge4" class="edge">
<title>securitygroups_records:w&#45;&gt;campaigns:e</title>
<path fill="none" stroke="#000000" d="M456.0971,-553.1306C398.3785,-550.2906 195.2132,-537.4088 185,-527.7 134.7299,-479.9126 210.3593,-218.7 141,-218.7"/>
<polygon fill="#000000" stroke="#000000" points="462.5062,-553.3839 470.3578,-557.2972 466.5031,-553.542 470.5,-553.7 470.5,-553.7 470.5,-553.7 466.5031,-553.542 470.6422,-550.1028 462.5062,-553.3839 462.5062,-553.3839"/>
<ellipse fill="none" stroke="#000000" cx="459.3087" cy="-553.2575" rx="3.2" ry="3.2"/>
</g>
<!-- securitygroups_records&#45;&gt;email_templates -->
<g id="edge6" class="edge">
<title>securitygroups_records:w&#45;&gt;email_templates:e</title>
<path fill="none" stroke="#000000" d="M455.9989,-553.928C340.0447,-557.5902 294.9454,-603.4364 185,-550.7 159.0885,-538.2713 172.7381,-500.7 144,-500.7"/>
<polygon fill="#000000" stroke="#000000" points="462.501,-553.8258 470.5566,-557.2996 466.5005,-553.7629 470.5,-553.7 470.5,-553.7 470.5,-553.7 466.5005,-553.7629 470.4434,-550.1004 462.501,-553.8258 462.501,-553.8258"/>
<ellipse fill="none" stroke="#000000" cx="459.3014" cy="-553.8762" rx="3.2" ry="3.2"/>
</g>
</g>
</svg>
