<?xml version="1.0" encoding="UTF-8" standalone="no"?>
<!DOCTYPE svg PUBLIC "-//W3C//DTD SVG 1.1//EN"
 "http://www.w3.org/Graphics/SVG/1.1/DTD/svg11.dtd">
<!-- Generated by graphviz version 2.40.1 (20161225.0304)
 -->
<!-- Title: oneDegreeRelationshipsDiagram Pages: 1 -->
<svg width="442pt" height="206pt"
 viewBox="0.00 0.00 442.00 206.20" xmlns="http://www.w3.org/2000/svg" xmlns:xlink="http://www.w3.org/1999/xlink">
<g id="graph0" class="graph" transform="scale(1 1) rotate(0) translate(4 202.2)">
<title>oneDegreeRelationshipsDiagram</title>
<polygon fill="#ffffff" stroke="transparent" points="-4,4 -4,-202.2 438,-202.2 438,4 -4,4"/>
<text text-anchor="middle" x="72.4936" y="-7.3" font-family="Helvetica,sans-Serif" font-size="11.00" fill="#000000">Generated by SchemaSpy</text>
<!-- fp_events_fp_event_delegates_1_c -->
<g id="node1" class="node">
<title>fp_events_fp_event_delegates_1_c</title>
<g id="a_node1"><a xlink:href="../../tables/fp_events_fp_event_delegates_1_c.html" xlink:title="fp_events_fp_event_delegates_1_c" target="_top">
<polygon fill="#ffffff" stroke="transparent" points="8,-38.2 8,-194.2 426,-194.2 426,-38.2 8,-38.2"/>
<polygon fill="#f5f5f5" stroke="transparent" points="10,-169.2 10,-192.2 424,-192.2 424,-169.2 10,-169.2"/>
<polygon fill="none" stroke="#000000" points="10,-169.2 10,-192.2 424,-192.2 424,-169.2 10,-169.2"/>
<text text-anchor="start" x="15" y="-177.8" font-family="Helvetica,sans-Serif" font-weight="bold" font-size="11.00" fill="#000000">fp_events_fp_event_delegates_1_c</text>
<text text-anchor="start" x="389.0437" y="-177.3" font-family="Helvetica,sans-Serif" font-size="11.00" fill="#000000">[table]</text>
<polygon fill="none" stroke="#000000" points="10,-147.2 10,-169.2 358,-169.2 358,-147.2 10,-147.2"/>
<image xlink:href="../../images/primaryKeys.png" width="11px" height="12px" preserveAspectRatio="xMinYMin meet" x="15" y="-164.2"/>
<text text-anchor="start" x="30" y="-154.3" font-family="Helvetica,sans-Serif" font-size="11.00" fill="#000000">id</text>
<polygon fill="none" stroke="#000000" points="358,-147.2 358,-169.2 424,-169.2 424,-147.2 358,-147.2"/>
<text text-anchor="start" x="361" y="-154.9" font-family="Helvetica,sans-Serif" font-size="11.00" fill="#000000">varchar[36]</text>
<polygon fill="none" stroke="#000000" points="10,-125.2 10,-147.2 358,-147.2 358,-125.2 10,-125.2"/>
<text text-anchor="start" x="30" y="-132.3" font-family="Helvetica,sans-Serif" font-size="11.00" fill="#000000">date_modified</text>
<polygon fill="none" stroke="#000000" points="358,-125.2 358,-147.2 424,-147.2 424,-125.2 358,-125.2"/>
<text text-anchor="start" x="360.7401" y="-132.9" font-family="Helvetica,sans-Serif" font-size="11.00" fill="#000000">datetime[19]</text>
<polygon fill="none" stroke="#000000" points="10,-103.2 10,-125.2 358,-125.2 358,-103.2 10,-103.2"/>
<text text-anchor="start" x="30" y="-110.3" font-family="Helvetica,sans-Serif" font-size="11.00" fill="#000000">deleted</text>
<polygon fill="none" stroke="#000000" points="358,-103.2 358,-125.2 424,-125.2 424,-103.2 358,-103.2"/>
<text text-anchor="start" x="361" y="-110.9" font-family="Helvetica,sans-Serif" font-size="11.00" fill="#000000">boolean[3]</text>
<polygon fill="#ffffff" stroke="transparent" points="10,-81.2 10,-103.2 358,-103.2 358,-81.2 10,-81.2"/>
<polygon fill="none" stroke="#000000" points="10,-81.2 10,-103.2 358,-103.2 358,-81.2 10,-81.2"/>
<text text-anchor="start" x="30" y="-88.3" font-family="Helvetica,sans-Serif" font-size="11.00" fill="#000000">fp_events_fp_event_delegates_1fp_events_ida</text>
<polygon fill="none" stroke="#000000" points="358,-81.2 358,-103.2 424,-103.2 424,-81.2 358,-81.2"/>
<text text-anchor="start" x="361" y="-88.9" font-family="Helvetica,sans-Serif" font-size="11.00" fill="#000000">varchar[36]</text>
<polygon fill="#ffffff" stroke="transparent" points="10,-59.2 10,-81.2 358,-81.2 358,-59.2 10,-59.2"/>
<polygon fill="none" stroke="#000000" points="10,-59.2 10,-81.2 358,-81.2 358,-59.2 10,-59.2"/>
<text text-anchor="start" x="30" y="-66.3" font-family="Helvetica,sans-Serif" font-size="11.00" fill="#000000">fp_events_fp_event_delegates_1fp_event_delegates_idb</text>
<polygon fill="none" stroke="#000000" points="358,-59.2 358,-81.2 424,-81.2 424,-59.2 358,-59.2"/>
<text text-anchor="start" x="361" y="-66.9" font-family="Helvetica,sans-Serif" font-size="11.00" fill="#000000">varchar[36]</text>
<polygon fill="#ffffff" stroke="transparent" points="10,-40.2 10,-59.2 188,-59.2 188,-40.2 10,-40.2"/>
<polygon fill="none" stroke="#000000" points="10,-40.2 10,-59.2 188,-59.2 188,-40.2 10,-40.2"/>
<text text-anchor="start" x="13" y="-46.3" font-family="Helvetica,sans-Serif" font-size="11.00" fill="#000000">&lt; 0</text>
<polygon fill="#ffffff" stroke="transparent" points="188,-40.2 188,-59.2 358,-59.2 358,-40.2 188,-40.2"/>
<polygon fill="none" stroke="#000000" points="188,-40.2 188,-59.2 358,-59.2 358,-40.2 188,-40.2"/>
<text text-anchor="start" x="348.8862" y="-46.3" font-family="Helvetica,sans-Serif" font-size="11.00" fill="#000000"> &#160;</text>
<polygon fill="#ffffff" stroke="transparent" points="358,-40.2 358,-59.2 424,-59.2 424,-40.2 358,-40.2"/>
<polygon fill="none" stroke="#000000" points="358,-40.2 358,-59.2 424,-59.2 424,-40.2 358,-40.2"/>
<text text-anchor="start" x="405.4053" y="-46.3" font-family="Helvetica,sans-Serif" font-size="11.00" fill="#000000">0 &gt;</text>
<polygon fill="none" stroke="#000000" stroke-width="2" points="9,-39.2 9,-193.2 425,-193.2 425,-39.2 9,-39.2"/>
</a>
</g>
</g>
</g>
</svg>
